<?xml version="1.0" standalone="no"?>
<!DOCTYPE svg PUBLIC "-//W3C//DTD SVG 1.1//EN" "http://www.w3.org/Graphics/SVG/1.1/DTD/svg11.dtd" >
<svg xmlns="http://www.w3.org/2000/svg" xmlns:xlink="http://www.w3.org/1999/xlink" version="1.1">
<metadata></metadata>
<defs>
<font id="svn-poppinssemibold" horiz-adv-x="309" >
<font-face units-per-em="1000" ascent="800" descent="-200" />
<missing-glyph horiz-adv-x="238" />
<glyph horiz-adv-x="0" />
<glyph horiz-adv-x="0" />
<glyph unicode="&#xd;" horiz-adv-x="238" />
<glyph unicode=" "  horiz-adv-x="238" />
<glyph unicode="&#x09;" horiz-adv-x="238" />
<glyph unicode="&#xa0;" horiz-adv-x="238" />
<glyph unicode="!" horiz-adv-x="354" d="M116 227l-17 483h151l-16 -483h-118zM263 75q0 -35 -24 -58.5t-61 -23.5q-38 0 -62.5 23.5t-24.5 58.5t24.5 58.5t62.5 23.5q37 0 61 -23.5t24 -58.5z" />
<glyph unicode="&#x22;" horiz-adv-x="364" d="M50 586l-13 212h120l-12 -212h-95zM219 586l-13 212h121l-13 -212h-95z" />
<glyph unicode="#" horiz-adv-x="887" d="M518 295l33 154h-182l-33 -154h182zM455 0l36 170h-182l-36 -170h-132l36 170h-151v125h178l33 154h-150v125h177l35 166h132l-35 -166h182l35 166h133l-35 -166h128v-125h-155l-33 -154h127v-125h-154l-36 -170h-133z" />
<glyph unicode="$" horiz-adv-x="654" d="M277 -87v82q-100 9 -161 60.5t-63 139.5h150q6 -72 74 -87v191q-31 8 -45.5 12t-43 13.5t-43.5 18.5t-35.5 25t-31 34t-18 43.5t-7.5 56.5q0 87 62.5 142t161.5 63v81h64v-81q96 -8 153.5 -58t64.5 -138h-151q-6 62 -67 81v-189q106 -27 145 -51q80 -50 81 -151 q0 -81 -60.5 -140.5t-165.5 -66.5v-81h-64zM422 195q0 33 -21 53t-60 33v-175q38 7 59.5 31t21.5 58zM199 509q0 -60 78 -87v173q-78 -12 -78 -86z" />
<glyph unicode="%" horiz-adv-x="829" d="M37 550q0 76 44.5 119t114.5 43t114.5 -43t44.5 -119q0 -77 -44.5 -120t-114.5 -43t-114.5 43t-44.5 120zM195 628q-55 0 -55 -78q0 -79 55 -79q57 0 57 79q0 78 -57 78zM150 0l392 700h137l-393 -700h-136zM476 151q0 77 44.5 119.5t114.5 42.5t113.5 -42.5t43.5 -119.5 t-43.5 -120t-113.5 -43q-71 0 -115 43t-44 120zM634 229q-57 0 -57 -78q0 -79 57 -79q56 0 56 79q0 78 -56 78z" />
<glyph unicode="&#x26;" horiz-adv-x="778" d="M537 536h-136q1 33 -16 50.5t-46 17.5q-28 0 -46.5 -16.5t-18.5 -42.5q0 -43 64 -110l176 -174q1 1 2.5 4t2.5 4l57 95h146l-70 -123q-20 -39 -43 -74l169 -167h-172l-76 75q-98 -87 -237 -87q-117 0 -187.5 58.5t-70.5 155.5q0 144 154 213q-51 62 -51 129 q0 73 55.5 121t149.5 48q95 0 146.5 -51t47.5 -126zM297 104q82 0 145 58l-172 170q-97 -43 -97 -122q0 -45 34 -75.5t90 -30.5z" />
<glyph unicode="'" horiz-adv-x="195" d="M50 586l-13 212h120l-12 -212h-95z" />
<glyph unicode="(" horiz-adv-x="485" d="M452 -197h-141q-97 94 -150.5 240t-53.5 313q0 171 56 321.5t163 246.5h141v-13q-110 -105 -167.5 -252t-57.5 -303q0 -152 54.5 -293.5t155.5 -245.5v-14z" />
<glyph unicode=")" horiz-adv-x="485" d="M174 -197h-141v14q101 104 155.5 245.5t54.5 293.5q0 156 -57.5 303t-167.5 252v13h141q107 -96 163 -246.5t56 -321.5q0 -167 -53.5 -313t-150.5 -240z" />
<glyph unicode="*" horiz-adv-x="518" d="M313 738l-24 -139l110 87l50 -90l-130 -47l130 -47l-52 -93l-108 89l23 -138h-104l22 138l-107 -91l-55 96l130 47l-129 45l51 92l111 -88l-23 139h105z" />
<glyph unicode="+" horiz-adv-x="674" d="M271 611h132v-194h189v-122h-189v-194h-132v194h-189v122h189v194z" />
<glyph unicode="," horiz-adv-x="255" d="M12 -144l67 298h148l-124 -298h-91z" />
<glyph unicode="-" horiz-adv-x="583" d="M71 298v118h424v-118h-424z" />
<glyph unicode="." horiz-adv-x="260" d="M216 75q0 -35 -24 -58.5t-61 -23.5q-38 0 -62.5 23.5t-24.5 58.5t24.5 58.5t62.5 23.5q37 0 61 -23.5t24 -58.5z" />
<glyph unicode="/" horiz-adv-x="486" d="M37 -181l270 1128h137l-270 -1128h-137z" />
<glyph unicode="0" horiz-adv-x="646" d="M53 374q0 369 270 369t270 -369q0 -372 -270 -372t-270 372zM455 374q0 42 -2.5 73t-10.5 64.5t-21.5 54t-38.5 34t-59 13.5t-59 -13.5t-38.5 -34t-21.5 -54t-10.5 -64.5t-2.5 -73q0 -56 4.5 -94t17 -74.5t40.5 -55t70 -18.5t70 18.5t40.5 55t17 74.5t4.5 94z" />
<glyph unicode="1" horiz-adv-x="362" d="M133 0v600h-97v129h241v-729h-144z" />
<glyph unicode="2" horiz-adv-x="574" d="M45 10v104q17 15 54 46l55.5 46.5t50.5 44t49.5 46t41.5 43t36.5 45t26 43t19 45.5t5.5 44q0 109 -98 109q-50 0 -77 -33.5t-28 -91.5h-136q4 120 71.5 182t171.5 62q114 0 175 -60.5t61 -159.5q0 -35 -10.5 -71t-23 -63.5t-41 -63.5t-44.5 -55t-55.5 -55t-51.5 -46 t-53 -45h295v-116h-494z" />
<glyph unicode="3" horiz-adv-x="599" d="M55 537q5 100 70.5 154.5t172.5 54.5q109 0 169.5 -54.5t60.5 -138.5q0 -63 -32.5 -106.5t-77.5 -58.5v-4q58 -18 90.5 -64t32.5 -118q0 -92 -62.5 -149.5t-174.5 -57.5q-113 0 -184 57t-75 168h136q2 -49 33.5 -78.5t86.5 -29.5q51 0 78.5 28.5t27.5 73.5q0 60 -38 86 t-118 26h-29v115h29q142 0 142 95q0 43 -25.5 67t-73.5 24q-47 0 -72.5 -25.5t-29.5 -64.5h-137z" />
<glyph unicode="4" horiz-adv-x="661" d="M397 0v142h-350v110l327 468h163v-456h88v-122h-88v-142h-140zM201 264h205v306z" />
<glyph unicode="5" horiz-adv-x="644" d="M91 731h452v-123h-324v-171q21 26 60 42.5t83 16.5q61 0 107 -21.5t71.5 -57t37.5 -76.5t12 -86q0 -115 -65.5 -185t-186.5 -70q-114 0 -182 57t-77 149h136q9 -40 40.5 -64t80.5 -24q59 0 89 37t30 98q0 62 -30.5 94.5t-89.5 32.5q-84 0 -110 -77h-134v428z" />
<glyph unicode="6" horiz-adv-x="640" d="M561 547h-130q-20 84 -105 84q-69 0 -101.5 -55.5t-33.5 -180.5q24 40 70 62.5t100 22.5q100 0 160.5 -63t60.5 -175q0 -109 -64.5 -176.5t-178.5 -67.5q-79 0 -133 26.5t-83.5 78.5t-41.5 117.5t-12 155.5q0 183 63 276.5t199 93.5q105 0 163 -57t67 -142zM329 365 q-53 0 -89 -31t-36 -90t33.5 -93t94.5 -34q54 0 85.5 33t31.5 89q0 58 -30.5 92t-89.5 34z" />
<glyph unicode="7" horiz-adv-x="548" d="M35 727h482v-104l-266 -623h-142l268 607h-342v120z" />
<glyph unicode="8" horiz-adv-x="643" d="M175 386q-100 52 -100 161q0 84 63.5 140t182.5 56q118 0 182 -56.5t64 -139.5q0 -55 -27 -96.5t-72 -64.5q55 -24 86 -70t31 -109q0 -102 -74.5 -162.5t-189.5 -60.5q-114 0 -188.5 60.5t-74.5 162.5q0 63 31 109.5t86 69.5zM321 427q48 0 79 27.5t31 72.5 q0 49 -29.5 76t-80.5 27q-50 0 -79.5 -27t-29.5 -77q0 -45 30.5 -72t78.5 -27zM321 325q-57 0 -92.5 -29t-35.5 -83q0 -50 34.5 -81.5t93.5 -31.5t93 32t34 81q0 53 -35 82.5t-92 29.5z" />
<glyph unicode="9" horiz-adv-x="626" d="M85 205h130q17 -91 113 -91q62 0 90 51.5t28 173.5q-23 -32 -64.5 -50t-89.5 -18q-99 0 -163 61t-64 172q0 110 65.5 176t180.5 66q142 0 200.5 -91t58.5 -274q0 -196 -54.5 -289t-193.5 -93q-110 0 -170 59.5t-67 146.5zM321 385q52 0 82 32t30 86q0 59 -31.5 91.5 t-85.5 32.5t-85.5 -33.5t-31.5 -88.5q0 -53 30.5 -86.5t91.5 -33.5z" />
<glyph unicode=":" horiz-adv-x="263" d="M216 75q0 -35 -24 -58.5t-61 -23.5q-38 0 -62.5 23.5t-24.5 58.5t24.5 58.5t62.5 23.5q37 0 61 -23.5t24 -58.5zM216 489q0 -35 -24 -58.5t-61 -23.5q-38 0 -62.5 23.5t-24.5 58.5t24.5 58.5t62.5 23.5q37 0 61 -23.5t24 -58.5z" />
<glyph unicode=";" horiz-adv-x="324" d="M241 485q0 -35 -24 -58.5t-61 -23.5q-38 0 -62.5 23.5t-24.5 58.5t24.5 58.5t62.5 23.5q37 0 61 -23.5t24 -58.5zM38 -144l67 298h148l-124 -298h-91z" />
<glyph unicode="&#x3c;" horiz-adv-x="584" d="M255 356l218 -224h-176l-218 224l218 224h176z" />
<glyph unicode="=" horiz-adv-x="738" d="M96 175v122h545v-122h-545zM96 415v122h545v-122h-545z" />
<glyph unicode="&#x3e;" horiz-adv-x="567" d="M89 132l219 224l-219 224h177l218 -224l-218 -224h-177z" />
<glyph unicode="?" horiz-adv-x="538" d="M35 511q-2 93 60 152t169 59q104 0 167.5 -56.5t63.5 -155.5q0 -98 -63 -149.5t-167 -51.5l-4 -77h-123l-5 170h45q57 0 94.5 8t62 33t24.5 68q0 44 -25.5 69t-69.5 25q-46 0 -71.5 -25t-25.5 -69h-132zM284 75q0 -35 -24 -58.5t-61 -23.5q-38 0 -62.5 23.5t-24.5 58.5 t24.5 58.5t62.5 23.5q37 0 61 -23.5t24 -58.5z" />
<glyph unicode="@" horiz-adv-x="1051" d="M740 -6q-106 0 -125 83q-29 -39 -75 -61.5t-97 -22.5q-76 0 -119 45.5t-43 124.5q0 115 68.5 199.5t172.5 84.5q86 0 118 -60l9 52h117l-47 -270q-7 -42 1 -62.5t40 -20.5q52 0 81 69.5t29 151.5q0 121 -74 187.5t-209 66.5q-175 0 -290.5 -120.5t-115.5 -298.5 q0 -124 73.5 -191t208.5 -67q97 0 171 35l20 -92q-95 -40 -211 -40q-169 0 -270.5 93.5t-101.5 250.5q0 224 151 374.5t380 150.5q174 0 275.5 -94.5t101.5 -249.5q0 -128 -64.5 -223t-174.5 -95zM618 249q0 42 -23 68t-64 26q-55 0 -89.5 -47.5t-34.5 -109.5q0 -41 20 -65 t60 -24q54 0 92.5 45.5t38.5 106.5z" />
<glyph unicode="A" horiz-adv-x="716" d="M543 0l-46 133h-278l-46 -133h-147l251 699h163l251 -699h-148zM459 245l-101 292l-101 -292h202z" />
<glyph unicode="B" horiz-adv-x="643" d="M458 206q0 45 -30 70.5t-81 25.5h-138v-188h141q51 0 79.5 24t28.5 68zM441 497q0 42 -27 65t-77 23h-128v-175h128q50 0 77 22.5t27 64.5zM600 189q0 -85 -61.5 -137t-168.5 -52h-301v698h288q107 0 167 -50t60 -130q0 -61 -32.5 -102t-86.5 -58q59 -10 97 -58.5 t38 -110.5z" />
<glyph unicode="C" horiz-adv-x="768" d="M35 350q0 156 101 256.5t253 100.5q117 0 205 -60t123 -166h-161q-49 100 -168 100q-93 0 -151 -63t-58 -168t58 -168t151 -63q119 0 168 101h161q-35 -107 -122.5 -166.5t-205.5 -59.5q-152 0 -253 100t-101 256z" />
<glyph unicode="D" horiz-adv-x="717" d="M313 698q167 0 267.5 -95.5t100.5 -254.5q0 -158 -100.5 -253t-267.5 -95h-244v698h244zM209 119h99q110 0 170 60t60 169t-60 170.5t-170 61.5h-99v-461z" />
<glyph unicode="E" horiz-adv-x="532" d="M474 699v-114h-265v-175h235v-111h-235v-185h265v-114h-405v699h405z" />
<glyph unicode="F" horiz-adv-x="530" d="M69 0v698h431v-113h-291v-179h223v-111h-223v-295h-140z" />
<glyph unicode="G" horiz-adv-x="768" d="M391 707q118 0 205 -57.5t120 -161.5h-161q-49 90 -164 90q-95 0 -153.5 -62.5t-58.5 -165.5q0 -106 60 -168t158 -62q80 0 131 42.5t67 118.5h-240v107h378v-122q-22 -113 -115 -192.5t-226 -79.5q-153 0 -255 100t-102 256t101.5 256.5t254.5 100.5z" />
<glyph unicode="H" horiz-adv-x="717" d="M508 0v297h-299v-297h-140v698h140v-287h299v287h140v-698h-140z" />
<glyph unicode="I" horiz-adv-x="278" d="M69 0v698h140v-698h-140z" />
<glyph unicode="J" horiz-adv-x="570" d="M335 208v490h141v-490q0 -102 -59 -158.5t-158 -56.5q-100 0 -161.5 58t-61.5 162h140q2 -95 81 -95q38 0 58 24t20 66z" />
<glyph unicode="K" horiz-adv-x="663" d="M463 0l-254 311v-311h-140v698h140v-313l254 313h169l-288 -346l296 -352h-177z" />
<glyph unicode="L" horiz-adv-x="459" d="M69 698h140v-587h230v-111h-370v698z" />
<glyph unicode="M" horiz-adv-x="899" d="M69 0v698h159l222 -519l222 519h158v-698h-140v454l-187 -454h-106l-188 454v-454h-140z" />
<glyph unicode="N" horiz-adv-x="735" d="M526 699h140v-699h-140l-317 479v-479h-140v699h140l317 -480v480z" />
<glyph unicode="O" horiz-adv-x="785" d="M750 351q0 -156 -103 -257t-254 -101q-150 0 -254 101.5t-104 256.5t104 256t254 101q151 0 254 -101t103 -256zM179 351q0 -106 59 -169.5t155 -63.5q95 0 154 63.5t59 169.5t-59 168.5t-154 62.5q-96 0 -155 -62.5t-59 -168.5z" />
<glyph unicode="P" horiz-adv-x="608" d="M209 381h111q114 0 114 101q0 102 -114 102h-111v-203zM578 482q0 -89 -63 -151.5t-189 -62.5h-117v-268h-140v698h257q121 0 186.5 -60.5t65.5 -155.5z" />
<glyph unicode="Q" horiz-adv-x="787" d="M179 351q0 -106 59 -169.5t155 -63.5q95 0 154 63.5t59 169.5t-59 168.5t-154 62.5q-96 0 -155 -62.5t-59 -168.5zM750 351q0 -93 -39.5 -169.5t-107.5 -124.5l160 -180h-174l-106 127q-44 -11 -90 -11q-150 0 -254 101.5t-104 256.5t104 256t254 101q151 0 254 -101 t103 -256z" />
<glyph unicode="R" horiz-adv-x="641" d="M439 481q0 101 -113 101h-117v-205h117q57 0 85 27.5t28 76.5zM69 698h262q121 0 186.5 -60.5t65.5 -153.5q0 -69 -40 -124.5t-119 -76.5l167 -283h-162l-154 272h-66v-272h-140v698z" />
<glyph unicode="S" horiz-adv-x="609" d="M557 202q0 -87 -66.5 -148t-180.5 -61q-112 0 -185 55.5t-74 152.5h150q3 -43 30.5 -68t75.5 -25q49 0 77 23.5t28 61.5q0 30 -20 51t-51.5 33t-70 22.5t-77 25t-70 35t-51 58t-19.5 88.5q0 93 68 147.5t178 54.5q108 0 175.5 -52.5t74.5 -146.5h-154q-2 36 -29 59 t-71 24q-43 2 -69.5 -19.5t-26.5 -62.5q0 -28 19.5 -48t51.5 -31.5t70 -22.5t76 -26t70 -35.5t51.5 -57.5t19.5 -87z" />
<glyph unicode="T" horiz-adv-x="577" d="M32 585v113h512v-113h-186v-585h-140v585h-186z" />
<glyph unicode="U" horiz-adv-x="697" d="M67 267v431h140v-432q0 -71 37 -108.5t104 -37.5q68 0 105 37.5t37 108.5v432h141v-431q0 -132 -81.5 -203t-203.5 -71q-121 0 -200 71t-79 203z" />
<glyph unicode="V" horiz-adv-x="711" d="M356 143l191 555h149l-256 -698h-170l-256 698h150z" />
<glyph unicode="W" horiz-adv-x="1024" d="M210 -1l-188 699h150l123 -542l142 542h156l134 -539l124 539h151l-195 -698h-165l-131 497l-137 -497z" />
<glyph unicode="X" horiz-adv-x="686" d="M487 0l-151 235l-137 -235h-158l220 352l-223 346h161l151 -234l136 234h158l-219 -351l223 -347h-161z" />
<glyph unicode="Y" horiz-adv-x="636" d="M248 243l-237 455h158l150 -319l149 319h156l-236 -455v-243h-140v243z" />
<glyph unicode="Z" horiz-adv-x="576" d="M526 698v-108l-314 -472h314v-118h-476v108l312 472h-312v118h476z" />
<glyph unicode="[" horiz-adv-x="497" d="M135 -197v1121h251v-114h-119v-891h119v-116h-251z" />
<glyph unicode="\" horiz-adv-x="756" d="M309 947l286 -1128h-137l-285 1128h136z" />
<glyph unicode="]" horiz-adv-x="496" d="M361 924v-1121h-251v116h119v891h-119v114h251z" />
<glyph unicode="^" horiz-adv-x="680" d="M503 167l-162 367l-165 -367h-143l240 533h134l240 -533h-144z" />
<glyph unicode="_" horiz-adv-x="790" d="M107 -173v133h587v-133h-587z" />
<glyph unicode="`" horiz-adv-x="271" d="M10 698v114l230 -119v-100z" />
<glyph unicode="a" horiz-adv-x="678" d="M33 279q0 127 72.5 205.5t180.5 78.5q120 0 183 -88v79h141v-554h-141v81q-27 -39 -74.5 -64.5t-109.5 -25.5q-107 0 -179.5 80.5t-72.5 207.5zM469 277q0 75 -43 119t-104 44q-60 0 -103 -43t-43 -118t43 -120t103 -45q61 0 104 44t43 119z" />
<glyph unicode="b" horiz-adv-x="678" d="M209 473q27 40 74.5 65t108.5 25q109 0 181 -78.5t72 -205.5q0 -128 -72.5 -208t-180.5 -80q-121 0 -183 88v-79h-140v740h140v-267zM502 279q0 75 -43 118t-104 43q-60 0 -103 -44t-43 -119t43 -119t103 -44t103.5 45t43.5 120z" />
<glyph unicode="c" horiz-adv-x="602" d="M33 277q0 129 76.5 207.5t197.5 78.5q103 0 170.5 -51.5t90.5 -144.5h-151q-26 77 -111 77q-60 0 -95 -43.5t-35 -123.5q0 -79 35 -122.5t95 -43.5q85 0 111 76h151q-23 -90 -91 -143t-170 -53q-121 0 -197.5 78.5t-76.5 207.5z" />
<glyph unicode="d" horiz-adv-x="678" d="M33 279q0 127 72.5 205.5t181.5 78.5q54 0 103 -23.5t78 -62.5v263h142v-740h-142v82q-59 -91 -182 -91q-108 0 -180.5 80t-72.5 208zM469 277q0 75 -43 119t-104 44q-60 0 -103 -43t-43 -118t43 -120t103 -45q61 0 104 44t43 119z" />
<glyph unicode="e" horiz-adv-x="617" d="M307 448q-51 0 -87 -31.5t-44 -87.5h263q-1 54 -39 86.5t-93 32.5zM570 174q-24 -80 -92 -131.5t-167 -51.5q-122 0 -200 78.5t-78 207.5q0 130 77 208t201 78q121 0 197 -75.5t76 -198.5q0 -30 -4 -54h-405q5 -60 42 -94t91 -34q78 0 111 67h151z" />
<glyph unicode="f" horiz-adv-x="345" d="M84 0v439h-63v115h63v28q0 201 233 195v-118q-51 1 -71 -17t-20 -65v-23h97v-115h-97v-439h-142z" />
<glyph unicode="g" horiz-adv-x="678" d="M33 279q0 127 72.5 205.5t180.5 78.5q62 0 109 -24.5t74 -63.5v79h141v-558q0 -118 -71.5 -193.5t-202.5 -75.5q-118 0 -193.5 55t-85.5 150h139q11 -38 47.5 -60.5t88.5 -22.5q61 0 99 36.5t38 110.5v86q-27 -39 -74.5 -65t-108.5 -26q-108 0 -180.5 80t-72.5 208z M469 277q0 75 -43 119t-104 44q-60 0 -103 -43t-43 -118t43 -120t103 -45q61 0 104 44t43 119z" />
<glyph unicode="h" horiz-adv-x="661" d="M69 0v740h140v-255q59 77 172 77q96 0 156 -62.5t60 -174.5v-325h-140v306q0 66 -33 101.5t-90 35.5q-58 0 -91.5 -35.5t-33.5 -101.5v-306h-140z" />
<glyph unicode="i" horiz-adv-x="278" d="M69 0v554h140v-554h-140zM140 627q-34 0 -56.5 22t-22.5 54t22.5 53.5t56.5 21.5t57 -21.5t23 -53.5t-23 -54t-57 -22z" />
<glyph unicode="j" horiz-adv-x="278" d="M69 554h140v-645q0 -173 -176 -173h-62v119h40q32 0 45 12.5t13 40.5v646zM140 627q-34 0 -56.5 22t-22.5 54t22.5 53.5t56.5 21.5t57 -21.5t23 -53.5t-23 -54t-57 -22z" />
<glyph unicode="k" horiz-adv-x="584" d="M69 0v740h140v-421l186 235h182l-244 -278l246 -276h-182l-188 236v-236h-140z" />
<glyph unicode="l" horiz-adv-x="278" d="M69 0v740h140v-740h-140z" />
<glyph unicode="m" horiz-adv-x="1048" d="M844 0v306q0 65 -33 99.5t-90 34.5t-90.5 -34.5t-33.5 -99.5v-306h-140v306q0 65 -33 99.5t-90 34.5q-58 0 -91.5 -34.5t-33.5 -99.5v-306h-140v554h140v-67q57 75 163 75q65 0 116 -27.5t79 -78.5q27 48 78.5 77t111.5 29q102 0 164.5 -62.5t62.5 -174.5v-325h-140z" />
<glyph unicode="n" horiz-adv-x="661" d="M457 0v306q0 66 -33 101.5t-90 35.5q-58 0 -91.5 -35.5t-33.5 -101.5v-306h-140v554h140v-69q59 77 167 77q99 0 160 -62.5t61 -174.5v-325h-140z" />
<glyph unicode="o" horiz-adv-x="638" d="M604 277q0 -128 -83 -207t-206 -79q-122 0 -201.5 78.5t-79.5 207.5t81 207.5t204 78.5t204 -78.5t81 -207.5zM176 277q0 -79 39.5 -121.5t99.5 -42.5t102.5 43t42.5 121q0 79 -41.5 121.5t-101.5 42.5t-100.5 -42.5t-40.5 -121.5z" />
<glyph unicode="p" horiz-adv-x="678" d="M209 474q27 38 74.5 63.5t108.5 25.5q109 0 181 -78.5t72 -205.5q0 -128 -72.5 -208t-180.5 -80q-61 0 -107.5 25t-75.5 63v-343h-140v818h140v-80zM502 279q0 75 -43 118t-104 43q-60 0 -103 -44t-43 -119t43 -119t103 -44t103.5 45t43.5 120z" />
<glyph unicode="q" horiz-adv-x="678" d="M33 278q0 125 74.5 204.5t183.5 79.5q115 0 178 -80v72h141v-818h-141v340q-28 -36 -75 -60t-106 -24q-107 0 -181 80.5t-74 205.5zM469 277q0 76 -44 119.5t-103 43.5t-102.5 -43t-43.5 -119t44 -120t102 -44q59 0 103 43.5t44 119.5z" />
<glyph unicode="r" horiz-adv-x="404" d="M209 276v-276h-140v554h140v-86q58 94 170 94v-147h-37q-66 0 -99.5 -31t-33.5 -108z" />
<glyph unicode="s" horiz-adv-x="545" d="M499 158q0 -73 -59.5 -120t-158.5 -47q-103 0 -170 52.5t-72 131.5h141q4 -32 31.5 -53t68.5 -21q40 0 62.5 16t22.5 41q0 27 -32 43t-78 26.5t-92.5 25.5t-78.5 51.5t-32 92.5q0 71 59.5 118.5t159.5 47.5q99 0 158 -49.5t65 -133.5h-134q-3 33 -27.5 52.5t-65.5 19.5 q-38 0 -58.5 -14t-20.5 -39q0 -23 23 -39t57 -23.5t74 -20t74.5 -28t58 -49t24.5 -81.5z" />
<glyph unicode="t" horiz-adv-x="388" d="M91 172v267h-66v115h66v137h141v-137h124v-115h-124v-268q0 -28 13.5 -40.5t45.5 -12.5h65v-118h-88q-177 0 -177 172z" />
<glyph unicode="u" horiz-adv-x="661" d="M592 554v-554h-141v70q-27 -36 -70.5 -56.5t-94.5 -20.5q-99 0 -160.5 62.5t-61.5 173.5v325h140v-305q0 -66 33 -101.5t90 -35.5q58 0 91 35.5t33 101.5v305h141z" />
<glyph unicode="v" horiz-adv-x="599" d="M10 554h150l140 -425l140 425h149l-205 -554h-170z" />
<glyph unicode="w" horiz-adv-x="844" d="M170 0l-163 554h142l98 -422l106 422h148l104 -421l98 421h134l-162 -554h-151l-101 387l-101 -387h-152z" />
<glyph unicode="x" horiz-adv-x="540" d="M375 0l-114 172l-101 -172h-150l181 278l-183 276h158l113 -171l102 171h150l-182 -276l184 -278h-158z" />
<glyph unicode="y" horiz-adv-x="605" d="M305 167l145 387h149l-343 -816h-149l120 276l-222 540h157z" />
<glyph unicode="z" horiz-adv-x="483" d="M441 554v-113l-244 -326h247v-115h-406v113l242 326h-241v115h402z" />
<glyph unicode="{" horiz-adv-x="508" d="M207 224q0 78 -97 85v109q97 9 97 85q0 34 -9.5 125.5t-9.5 132.5q0 78 46.5 121.5t123.5 43.5h69v-118h-42q-62 0 -62 -59q0 -29 8.5 -119t8.5 -132q0 -113 -105 -133v-2q105 -22 105 -134q0 -41 -8.5 -131t-8.5 -119q0 -59 62 -59h42v-119h-69q-77 0 -123.5 43.5 t-46.5 121.5q0 41 9.5 133t9.5 125z" />
<glyph unicode="|" d="M84 808h141v-929h-141v929z" />
<glyph unicode="}" horiz-adv-x="508" d="M301 224q0 -33 9.5 -125t9.5 -133q0 -78 -46.5 -121.5t-123.5 -43.5h-69v119h42q62 0 62 59q0 29 -8.5 119t-8.5 131q0 112 105 134v2q-105 20 -105 133q0 42 8.5 132t8.5 119q0 59 -62 59h-42v118h69q77 0 123.5 -43.5t46.5 -121.5q0 -41 -9.5 -132.5t-9.5 -125.5 q0 -76 97 -85v-109q-97 -7 -97 -85z" />
<glyph unicode="~" horiz-adv-x="592" d="M32 224q32 189 178 189q45 0 100 -32.5t81 -32.5q56 0 65 64h104q-33 -189 -179 -189q-35 0 -67.5 16.5t-60.5 32.5t-52 16q-26 0 -44 -16.5t-23 -47.5h-102z" />
<glyph unicode="&#xa1;" horiz-adv-x="354" d="M99 -148l17 483h118l16 -483h-151zM263 487q0 -35 -24 -58.5t-61 -23.5q-38 0 -62.5 23.5t-24.5 58.5t24.5 58.5t62.5 23.5q37 0 61 -23.5t24 -58.5z" />
<glyph unicode="&#xa2;" horiz-adv-x="663" d="M564 182q-7 -76 -65.5 -126t-146.5 -58v-85h-64v85q-111 10 -172 81t-61 179t61 179t172 81v85h64v-85q88 -8 146.5 -58t65.5 -126h-130q-23 71 -112 71q-62 0 -98 -39t-36 -108t36 -108t98 -39q91 0 112 71h130z" />
<glyph unicode="&#xa3;" horiz-adv-x="654" d="M102 514q0 102 64.5 160.5t169.5 58.5q111 0 169.5 -61.5t61.5 -157.5h-129q-2 103 -100 103q-47 0 -74.5 -28t-27.5 -86q0 -40 22 -112h188v-96h-163q2 -16 2 -24q0 -95 -67 -162h354v-112h-485l-22 72q45 44 66 89.5t21 113.5q0 7 -2 23h-111v96h83q-20 68 -20 123z " />
<glyph unicode="&#xa4;" horiz-adv-x="561" d="M364 377q0 46 -24 71t-59 25t-59 -25t-24 -71t23.5 -70.5t58.5 -24.5t59.5 25t24.5 70zM444 158l-63 62q-46 -22 -101 -22q-56 0 -100 22l-62 -62l-58 58l57 57q-31 43 -31 104t32 106l-58 58l58 58l64 -64q42 21 99 21t99 -21l64 64l57 -58l-56 -57q33 -44 33 -107 q0 -59 -33 -105l56 -56z" />
<glyph unicode="&#xa5;" horiz-adv-x="636" d="M248 243l-35 68l-165 1v97h114l-151 289h158l149 -326l148 326h158l-150 -289h114v-97l-165 -2l-35 -67v-9h200v-97h-200v-137h-140v137h-200v97h200v9z" />
<glyph unicode="&#xa6;" horiz-adv-x="350" d="M105 278h140v-399h-140v399zM245 409h-140v399h140v-399z" />
<glyph unicode="&#xa7;" horiz-adv-x="582" d="M70 534q0 74 60 123t162 49q97 0 156 -47.5t61 -128.5h-140q-5 78 -78 78q-80 0 -80 -64q0 -32 31 -54.5t124 -58.5q91 -36 135.5 -79.5t44.5 -107.5q0 -105 -114 -155q80 -54 80 -135q0 -74 -60 -123t-162 -49q-97 0 -156 47.5t-61 128.5h140q6 -78 78 -78q80 0 80 64 q0 32 -31 54.5t-124 58.5q-91 36 -135.5 79.5t-44.5 107.5q0 110 114 155q-80 54 -80 135zM400 244q0 39 -30 65.5t-79 26.5t-78.5 -26.5t-29.5 -65.5t30 -65.5t79 -26.5t78.5 26.5t29.5 65.5z" />
<glyph unicode="&#xa8;" horiz-adv-x="338" d="M76 620q-28 0 -47 19t-19 47t19 47.5t47 19.5t47.5 -19.5t19.5 -47.5t-19.5 -47t-47.5 -19zM261 620q-28 0 -47 19t-19 47t19 47.5t47 19.5t47.5 -19.5t19.5 -47.5t-19.5 -47t-47.5 -19z" />
<glyph unicode="&#xa9;" horiz-adv-x="785" d="M42 350q0 158 97.5 258t253.5 100q155 0 252.5 -100t97.5 -258t-97.5 -258t-252.5 -100q-156 0 -253.5 100t-97.5 258zM688 350q0 140 -79.5 223.5t-215.5 83.5t-216 -83t-80 -224q0 -139 80 -223.5t216 -84.5q135 0 215 84.5t80 223.5zM598 423q-17 72 -72.5 113.5 t-133.5 41.5q-96 0 -158 -62t-62 -165t62 -165.5t158 -62.5q77 0 133 42.5t73 112.5h-123q-23 -58 -86 -58q-46 0 -72.5 33.5t-26.5 97.5t26.5 97t72.5 33q67 0 86 -58h123z" />
<glyph unicode="&#xaa;" horiz-adv-x="462" d="M198 348q-72 0 -121 51t-49 131t48 130t119 50q82 0 123 -52v46h108v-351h-108v45q-39 -50 -120 -50zM229 626q-37 0 -63.5 -26t-26.5 -71t26.5 -71t63.5 -26t63 26t26 71t-26 71t-63 26z" />
<glyph unicode="&#xab;" horiz-adv-x="521" d="M174 295l92 -175h-133l-88 175l88 175h133zM381 295l92 -175h-132l-89 175l89 175h132z" />
<glyph unicode="&#xac;" horiz-adv-x="681" d="M41 330v108h590v-243h-140v135h-450z" />
<glyph unicode="&#xad;" horiz-adv-x="583" d="M71 298v118h424v-118h-424z" />
<glyph unicode="&#xae;" horiz-adv-x="516" d="M258 658q-72 0 -115 -44.5t-43 -117.5t43 -117t115 -44t115.5 44.5t43.5 116.5q0 73 -43.5 117.5t-115.5 44.5zM258 284q-93 0 -153 60t-60 152q0 94 60 153.5t153 59.5t152.5 -59.5t59.5 -153.5q0 -92 -59.5 -152t-152.5 -60zM352 536q0 -44 -40 -62l52 -82h-78l-43 75 h-6v-75h-67v214h105q35 0 56 -19.5t21 -50.5zM268 548h-32v-31h32q17 0 17 16q0 15 -17 15z" />
<glyph unicode="&#xaf;" horiz-adv-x="402" d="M10 632v100h382v-100h-382z" />
<glyph unicode="&#xb0;" horiz-adv-x="444" d="M27 527q0 82 54.5 130t141.5 48q86 0 140 -48.5t54 -129.5q0 -82 -54.5 -131t-141.5 -49q-86 0 -140 49t-54 131zM307 526q0 49 -25 75.5t-61 26.5q-35 0 -60 -26.5t-25 -75.5q0 -48 24.5 -74t60.5 -26q35 0 60.5 26t25.5 74z" />
<glyph unicode="&#xb1;" horiz-adv-x="676" d="M272 623h133v-136h188v-122h-188v-124h188v-122h-510v122h189v124h-189v122h189v136z" />
<glyph unicode="&#xb2;" horiz-adv-x="360" d="M30 596q3 52 43 84t109 32q66 0 103.5 -33.5t37.5 -78.5q0 -36 -24 -63.5t-81 -60.5l-69 -39h172v-85h-287v80l114 77q62 43 62 84q0 18 -10 29t-26 11q-31 0 -36 -37h-108z" />
<glyph unicode="&#xb3;" horiz-adv-x="357" d="M22 601q2 49 42.5 80t112.5 31q63 0 104.5 -30t41.5 -75q0 -61 -64 -76v-3q69 -20 69 -81q0 -44 -43 -72t-110 -28q-74 0 -114.5 31t-43.5 85h108q6 -38 45 -38q19 0 31 10.5t12 28.5q0 39 -48 39h-35v57h31q47 0 47 38q0 36 -41 36q-37 0 -43 -33h-102z" />
<glyph unicode="&#xb4;" horiz-adv-x="250" d="M10 693l230 119v-114l-230 -105v100z" />
<glyph unicode="&#xb5;" horiz-adv-x="678" d="M603 554v-554h-141v85q-53 -92 -173 -92q-44 0 -75 19v-276h-139v818h139v-305q0 -65 33.5 -100t90.5 -35t90.5 35t33.5 100v305h141z" />
<glyph unicode="&#xb6;" horiz-adv-x="666" d="M269 698h322v-698h-119v590h-65v-590h-120v278h-18q-118 0 -177.5 59.5t-59.5 150.5t59.5 150.5t177.5 59.5z" />
<glyph unicode="&#xb7;" horiz-adv-x="270" d="M223 326q0 -35 -24 -58.5t-61 -23.5q-38 0 -62.5 23.5t-24.5 58.5t24.5 58.5t62.5 23.5q37 0 61 -23.5t24 -58.5z" />
<glyph unicode="&#xb8;" horiz-adv-x="295" d="M155 7v-50q55 0 92.5 -28t37.5 -81q0 -54 -38.5 -83t-94.5 -29h-142v82h119q49 0 49 32q0 31 -49 31h-62v126h88z" />
<glyph unicode="&#xb9;" horiz-adv-x="228" d="M77 352v270h-57v82h164v-352h-107z" />
<glyph unicode="&#xba;" horiz-adv-x="450" d="M28 528q0 81 55.5 131t141.5 50q87 0 142 -50t55 -131q0 -80 -56 -130.5t-142 -50.5t-141 50.5t-55 130.5zM312 527q0 47 -25.5 73t-62.5 26q-36 0 -60.5 -26t-24.5 -73q0 -45 24.5 -70.5t60.5 -25.5t62 25.5t26 70.5z" />
<glyph unicode="&#xbb;" horiz-adv-x="521" d="M389 120h-132l92 175l-92 175h132l89 -175zM182 120h-132l91 175l-91 175h132l89 -175z" />
<glyph unicode="&#xbc;" horiz-adv-x="730" d="M75 0l384 699h133l-383 -699h-134zM653 129h42v-64h-42v-65h-108v65h-190v58l149 230h149v-224zM460 130h89v146zM94 352v270h-57v82h164v-352h-107z" />
<glyph unicode="&#xbd;" horiz-adv-x="757" d="M75 0l377 700h135l-378 -700h-134zM94 352v270h-57v82h164v-352h-107zM412 243q3 52 43 84t109 32q66 0 103.5 -33.5t37.5 -78.5q0 -36 -24 -63.5t-81 -60.5l-69 -39h172v-85h-287v80l114 77q62 43 62 84q0 18 -10 29t-26 11q-31 0 -36 -37h-108z" />
<glyph unicode="&#xbe;" horiz-adv-x="811" d="M169 0l394 700h134l-394 -700h-134zM745 129h43v-64h-43v-65h-107v65h-190v58l143 230h154v-224zM552 129h90v152zM46 601q2 49 42.5 80t112.5 31q63 0 104.5 -30t41.5 -75q0 -61 -64 -76v-3q69 -20 69 -81q0 -44 -43 -72t-110 -28q-74 0 -114.5 31t-43.5 85h108 q6 -38 45 -38q19 0 31 10.5t12 28.5q0 39 -48 39h-35v57h31q47 0 47 38q0 36 -41 36q-37 0 -43 -33h-102z" />
<glyph unicode="&#xbf;" horiz-adv-x="538" d="M503 48q2 -93 -60 -152t-169 -59q-104 0 -167.5 56.5t-63.5 155.5q0 98 63 149.5t167 51.5l4 77h123l5 -170h-45q-57 0 -94.5 -8t-62 -33t-24.5 -68q0 -44 25.5 -69t69.5 -25q46 0 71.5 25t25.5 69h132zM254 484q0 35 24 58.5t61 23.5q38 0 62.5 -23.5t24.5 -58.5 t-24.5 -58.5t-62.5 -23.5q-37 0 -61 23.5t-24 58.5z" />
<glyph unicode="&#xc0;" horiz-adv-x="716" d="M543 0l-46 133h-278l-46 -133h-147l251 699h163l251 -699h-148zM459 245l-101 292l-101 -292h202zM223 854l51 78l172 -105l-51 -75z" />
<glyph unicode="&#xc1;" horiz-adv-x="716" d="M543 0l-46 133h-278l-46 -133h-147l251 699h163l251 -699h-148zM459 245l-101 292l-101 -292h202zM448 932l51 -78l-172 -102l-51 75z" />
<glyph unicode="&#xc2;" horiz-adv-x="716" d="M543 0l-46 133h-278l-46 -133h-147l251 699h163l251 -699h-148zM459 245l-101 292l-101 -292h202zM359 907l153 -100l-53 -65l-100 62l-100 -62l-53 65z" />
<glyph unicode="&#xc3;" horiz-adv-x="716" d="M543 0l-46 133h-278l-46 -133h-147l251 699h163l251 -699h-148zM459 245l-101 292l-101 -292h202zM289 763h-84q4 55 33 87.5t73 32.5q24 0 53.5 -17.5t45.5 -17.5q19 0 22 33h85q-4 -59 -32 -89.5t-74 -30.5q-22 0 -53.5 18t-45.5 18q-19 0 -23 -34z" />
<glyph unicode="&#xc4;" horiz-adv-x="716" d="M543 0l-46 133h-278l-46 -133h-147l251 699h163l251 -699h-148zM265 765q-28 0 -47 19t-19 47t19 47.5t47 19.5t47.5 -19.5t19.5 -47.5t-19.5 -47t-47.5 -19zM450 765q-28 0 -47 19t-19 47t19 47.5t47 19.5t47.5 -19.5t19.5 -47.5t-19.5 -47t-47.5 -19zM459 245l-101 292 l-101 -292h202z" />
<glyph unicode="&#xc5;" horiz-adv-x="716" d="M543 0l-46 133h-278l-46 -133h-147l251 699h163l251 -699h-148zM359 812q20 0 34 14.5t14 35.5q0 23 -14 36.5t-34 13.5t-34 -13.5t-14 -36.5q0 -21 14 -35.5t34 -14.5zM359 977q50 0 83.5 -31.5t33.5 -83.5t-33.5 -83.5t-83.5 -31.5q-49 0 -83 31.5t-34 83.5t34 83.5 t83 31.5zM459 245l-101 292l-101 -292h202z" />
<glyph unicode="&#xc6;" horiz-adv-x="937" d="M476 597l-188 -358h188v358zM879 589h-262v-180h232v-108h-232v-190h262v-111h-403v131h-245l-69 -131h-153l372 699h498v-110z" />
<glyph unicode="&#xc7;" horiz-adv-x="768" d="M35 350q0 156 101 256.5t253 100.5q117 0 205 -60t123 -166h-161q-49 100 -168 100q-93 0 -151 -63t-58 -168t58 -168t151 -63q119 0 168 101h161q-31 -96 -106.5 -154.5t-177.5 -69.5v-41q55 0 92.5 -28t37.5 -81q0 -54 -38.5 -83t-94.5 -29h-142v82h119q49 0 49 32 q0 31 -49 31h-62v117q-136 15 -223 113t-87 241z" />
<glyph unicode="&#xc8;" horiz-adv-x="532" d="M474 699v-114h-265v-175h235v-111h-235v-185h265v-114h-405v699h405zM152 854l51 78l172 -105l-51 -75z" />
<glyph unicode="&#xc9;" horiz-adv-x="532" d="M474 699v-114h-265v-175h235v-111h-235v-185h265v-114h-405v699h405zM363 932l51 -78l-172 -102l-51 75z" />
<glyph unicode="&#xca;" horiz-adv-x="532" d="M474 699v-114h-265v-175h235v-111h-235v-185h265v-114h-405v699h405zM271 907l153 -100l-53 -65l-100 62l-100 -62l-53 65z" />
<glyph unicode="&#xcb;" horiz-adv-x="532" d="M474 699v-114h-265v-175h235v-111h-235v-185h265v-114h-405v699h405zM174 765q-28 0 -47 19t-19 47t19 47.5t47 19.5t47.5 -19.5t19.5 -47.5t-19.5 -47t-47.5 -19zM359 765q-28 0 -47 19t-19 47t19 47.5t47 19.5t47.5 -19.5t19.5 -47.5t-19.5 -47t-47.5 -19z" />
<glyph unicode="&#xcc;" horiz-adv-x="278" d="M69 0v698h140v-698h-140zM12 854l51 78l172 -105l-51 -75z" />
<glyph unicode="&#xcd;" horiz-adv-x="278" d="M69 0v698h140v-698h-140zM213 932l51 -78l-172 -102l-51 75z" />
<glyph unicode="&#xce;" horiz-adv-x="278" d="M69 0v698h140v-698h-140zM288 840v-102l-148 84l-149 -84v102l149 81z" />
<glyph unicode="&#xcf;" horiz-adv-x="278" d="M69 0v698h140v-698h-140zM46 765q-28 0 -47 19t-19 47t19 47.5t47 19.5t47.5 -19.5t19.5 -47.5t-19.5 -47t-47.5 -19zM231 765q-28 0 -47 19t-19 47t19 47.5t47 19.5t47.5 -19.5t19.5 -47.5t-19.5 -47t-47.5 -19z" />
<glyph unicode="&#xd0;" horiz-adv-x="726" d="M322 698q167 0 267.5 -95.5t100.5 -254.5q0 -158 -100.5 -253t-267.5 -95h-245v287h-70v122h70v289h245zM218 114h99q109 0 169 62t60 172t-60 171.5t-169 61.5h-99v-172h167v-122h-167v-173z" />
<glyph unicode="&#xd1;" horiz-adv-x="735" d="M526 699h140v-699h-140l-317 479v-479h-140v699h140l317 -480v480zM188 752q19 131 124 131q31 0 68 -22t55 -22q37 0 43 43h75q-19 -131 -124 -131q-31 0 -68 22.5t-55 22.5q-37 0 -44 -44h-74z" />
<glyph unicode="&#xd2;" horiz-adv-x="785" d="M750 351q0 -156 -103 -257t-254 -101q-150 0 -254 101.5t-104 256.5t104 256t254 101q151 0 254 -101t103 -256zM179 351q0 -106 59 -169.5t155 -63.5q95 0 154 63.5t59 169.5t-59 168.5t-154 62.5q-96 0 -155 -62.5t-59 -168.5zM264 854l51 78l172 -105l-51 -75z" />
<glyph unicode="&#xd3;" horiz-adv-x="785" d="M750 351q0 -156 -103 -257t-254 -101q-150 0 -254 101.5t-104 256.5t104 256t254 101q151 0 254 -101t103 -256zM179 351q0 -106 59 -169.5t155 -63.5q95 0 154 63.5t59 169.5t-59 168.5t-154 62.5q-96 0 -155 -62.5t-59 -168.5zM511 932l51 -78l-172 -102l-51 75z" />
<glyph unicode="&#xd4;" horiz-adv-x="785" d="M750 351q0 -156 -103 -257t-254 -101q-150 0 -254 101.5t-104 256.5t104 256t254 101q151 0 254 -101t103 -256zM179 351q0 -106 59 -169.5t155 -63.5q95 0 154 63.5t59 169.5t-59 168.5t-154 62.5q-96 0 -155 -62.5t-59 -168.5zM392 907l153 -100l-53 -65l-100 62 l-100 -62l-53 65z" />
<glyph unicode="&#xd5;" horiz-adv-x="785" d="M750 351q0 -156 -103 -257t-254 -101q-150 0 -254 101.5t-104 256.5t104 256t254 101q151 0 254 -101t103 -256zM179 351q0 -106 59 -169.5t155 -63.5q95 0 154 63.5t59 169.5t-59 168.5t-154 62.5q-96 0 -155 -62.5t-59 -168.5zM329 763h-84q4 55 33 87.5t73 32.5 q24 0 53.5 -17.5t45.5 -17.5q19 0 22 33h85q-4 -59 -32 -89.5t-74 -30.5q-22 0 -53.5 18t-45.5 18q-19 0 -23 -34z" />
<glyph unicode="&#xd6;" horiz-adv-x="785" d="M750 351q0 -156 -103 -257t-254 -101q-150 0 -254 101.5t-104 256.5t104 256t254 101q151 0 254 -101t103 -256zM179 351q0 -106 59 -169.5t155 -63.5q95 0 154 63.5t59 169.5t-59 168.5t-154 62.5q-96 0 -155 -62.5t-59 -168.5zM300 765q-28 0 -47 19t-19 47t19 47.5 t47 19.5t47.5 -19.5t19.5 -47.5t-19.5 -47t-47.5 -19zM485 765q-28 0 -47 19t-19 47t19 47.5t47 19.5t47.5 -19.5t19.5 -47.5t-19.5 -47t-47.5 -19z" />
<glyph unicode="&#xd7;" horiz-adv-x="670" d="M189 124l-91 91l145 146l-141 141l91 91l141 -141l141 141l92 -91l-141 -141l146 -147l-92 -91l-146 146z" />
<glyph unicode="&#xd8;" horiz-adv-x="785" d="M750 351q0 -156 -103 -257t-254 -101q-122 0 -216 69l-56 -62h-97l100 110q-89 100 -89 241q0 155 104 256t254 101q121 0 216 -68l55 60h97l-99 -109q88 -98 88 -240zM179 351q0 -82 37 -141l304 333q-53 39 -127 39q-96 0 -155 -62.5t-59 -168.5zM393 118 q95 0 154 63.5t59 169.5q0 82 -37 139l-304 -333q55 -39 128 -39z" />
<glyph unicode="&#xd9;" horiz-adv-x="697" d="M67 267v431h140v-432q0 -71 37 -108.5t104 -37.5q68 0 105 37.5t37 108.5v432h141v-431q0 -132 -81.5 -203t-203.5 -71q-121 0 -200 71t-79 203zM214 854l51 78l172 -105l-51 -75z" />
<glyph unicode="&#xda;" horiz-adv-x="697" d="M67 267v431h140v-432q0 -71 37 -108.5t104 -37.5q68 0 105 37.5t37 108.5v432h141v-431q0 -132 -81.5 -203t-203.5 -71q-121 0 -200 71t-79 203zM467 932l51 -78l-172 -102l-51 75z" />
<glyph unicode="&#xdb;" horiz-adv-x="697" d="M67 267v431h140v-432q0 -71 37 -108.5t104 -37.5q68 0 105 37.5t37 108.5v432h141v-431q0 -132 -81.5 -203t-203.5 -71q-121 0 -200 71t-79 203zM497 840v-102l-148 84l-149 -84v102l149 81z" />
<glyph unicode="&#xdc;" horiz-adv-x="697" d="M67 267v431h140v-432q0 -71 37 -108.5t104 -37.5q68 0 105 37.5t37 108.5v432h141v-431q0 -132 -81.5 -203t-203.5 -71q-121 0 -200 71t-79 203zM256 765q-28 0 -47 19t-19 47t19 47.5t47 19.5t47.5 -19.5t19.5 -47.5t-19.5 -47t-47.5 -19zM441 765q-28 0 -47 19t-19 47 t19 47.5t47 19.5t47.5 -19.5t19.5 -47.5t-19.5 -47t-47.5 -19z" />
<glyph unicode="&#xdd;" horiz-adv-x="636" d="M248 243l-237 455h158l150 -319l149 319h156l-236 -455v-243h-140v243zM423 932l51 -78l-172 -102l-51 75z" />
<glyph unicode="&#xde;" horiz-adv-x="608" d="M209 245h111q57 0 85.5 28t28.5 77t-28.5 77t-85.5 28h-111v-210zM578 350q0 -88 -63 -150t-189 -62h-117v-138h-140v699h139v-136h118q121 0 186.5 -59.5t65.5 -153.5z" />
<glyph unicode="&#xdf;" horiz-adv-x="727" d="M52 0v549q0 98 68.5 160t195.5 62q111 0 176 -52t65 -125q0 -40 -19 -75t-42.5 -54t-42.5 -39t-19 -34q0 -17 19.5 -30t78.5 -34q76 -27 110 -66.5t34 -100.5q0 -77 -56.5 -124t-152.5 -47q-95 0 -153.5 49t-68.5 138h135q3 -38 25 -59.5t60 -21.5q72 0 72 56 q0 28 -18.5 45.5t-68.5 34.5q-84 29 -120.5 60t-36.5 78q0 32 19.5 62t42.5 49.5t42.5 45.5t19.5 50q0 36 -28.5 56.5t-77.5 20.5q-119 0 -119 -119v-535h-140z" />
<glyph unicode="&#xe0;" horiz-adv-x="678" d="M33 279q0 127 72.5 205.5t180.5 78.5q120 0 183 -88v79h141v-554h-141v81q-27 -39 -74.5 -64.5t-109.5 -25.5q-107 0 -179.5 80.5t-72.5 207.5zM469 277q0 75 -43 119t-104 44q-60 0 -103 -43t-43 -118t43 -120t103 -45q61 0 104 44t43 119zM226 725l51 78l172 -105 l-51 -75z" />
<glyph unicode="&#xe1;" horiz-adv-x="678" d="M33 279q0 127 72.5 205.5t180.5 78.5q120 0 183 -88v79h141v-554h-141v81q-27 -39 -74.5 -64.5t-109.5 -25.5q-107 0 -179.5 80.5t-72.5 207.5zM469 277q0 75 -43 119t-104 44q-60 0 -103 -43t-43 -118t43 -120t103 -45q61 0 104 44t43 119zM460 803l51 -78l-172 -102 l-51 75z" />
<glyph unicode="&#xe2;" horiz-adv-x="678" d="M33 279q0 127 72.5 205.5t180.5 78.5q120 0 183 -88v79h141v-554h-141v81q-27 -39 -74.5 -64.5t-109.5 -25.5q-107 0 -179.5 80.5t-72.5 207.5zM469 277q0 75 -43 119t-104 44q-60 0 -103 -43t-43 -118t43 -120t103 -45q61 0 104 44t43 119zM337 778l153 -100l-53 -65 l-100 62l-100 -62l-53 65z" />
<glyph unicode="&#xe3;" horiz-adv-x="678" d="M33 279q0 127 72.5 205.5t180.5 78.5q120 0 183 -88v79h141v-554h-141v81q-27 -39 -74.5 -64.5t-109.5 -25.5q-107 0 -179.5 80.5t-72.5 207.5zM469 277q0 75 -43 119t-104 44q-60 0 -103 -43t-43 -118t43 -120t103 -45q61 0 104 44t43 119zM271 635h-84q4 55 33 87.5 t73 32.5q24 0 53.5 -17.5t45.5 -17.5q19 0 22 33h85q-4 -59 -32 -89.5t-74 -30.5q-22 0 -53.5 18t-45.5 18q-19 0 -23 -34z" />
<glyph unicode="&#xe4;" horiz-adv-x="678" d="M33 279q0 127 72.5 205.5t180.5 78.5q120 0 183 -88v79h141v-554h-141v81q-27 -39 -74.5 -64.5t-109.5 -25.5q-107 0 -179.5 80.5t-72.5 207.5zM469 277q0 75 -43 119t-104 44q-60 0 -103 -43t-43 -118t43 -120t103 -45q61 0 104 44t43 119zM248 620q-28 0 -47 19t-19 47 t19 47.5t47 19.5t47.5 -19.5t19.5 -47.5t-19.5 -47t-47.5 -19zM433 620q-28 0 -47 19t-19 47t19 47.5t47 19.5t47.5 -19.5t19.5 -47.5t-19.5 -47t-47.5 -19z" />
<glyph unicode="&#xe5;" horiz-adv-x="678" d="M33 279q0 127 72.5 205.5t180.5 78.5q120 0 183 -88v79h141v-554h-141v81q-27 -39 -74.5 -64.5t-109.5 -25.5q-107 0 -179.5 80.5t-72.5 207.5zM469 277q0 75 -43 119t-104 44q-60 0 -103 -43t-43 -118t43 -120t103 -45q61 0 104 44t43 119zM341 832q50 0 83.5 -31.5 t33.5 -83.5t-33.5 -83.5t-83.5 -31.5q-49 0 -83 31.5t-34 83.5t34 83.5t83 31.5zM341 667q20 0 34 14.5t14 35.5q0 23 -14 36.5t-34 13.5t-34 -13.5t-14 -36.5q0 -21 14 -35.5t34 -14.5z" />
<glyph unicode="&#xe6;" horiz-adv-x="1077" d="M759 448q-55 0 -95.5 -33.5t-50.5 -91.5h287q-1 57 -41 91t-100 34zM1030 174q-23 -80 -86 -131.5t-153 -51.5q-61 0 -111.5 25t-79.5 66v-82h-128v82q-70 -91 -186 -91q-108 0 -180.5 80t-72.5 208t73 206t185 78q116 0 183 -87v78h126v-78q70 87 191 87q112 0 183 -76 t71 -197q0 -22 -5 -52h-427q8 -63 49.5 -97t93.5 -34q96 0 123 67h151zM176 279q0 -75 43 -120t103 -45q61 0 104 44t43 119t-43 119t-104 44q-60 0 -103 -43t-43 -118z" />
<glyph unicode="&#xe7;" horiz-adv-x="602" d="M33 277q0 129 76.5 207.5t197.5 78.5q103 0 170.5 -51.5t90.5 -144.5h-151q-26 77 -111 77q-60 0 -95 -43.5t-35 -123.5q0 -79 35 -122.5t95 -43.5q85 0 111 76h151q-21 -81 -77.5 -132t-141.5 -61v-39q55 0 92.5 -28t37.5 -81q0 -54 -38.5 -83t-94.5 -29h-142v82h119 q49 0 49 32q0 31 -49 31h-62v115q-103 15 -165.5 91t-62.5 192z" />
<glyph unicode="&#xe8;" horiz-adv-x="617" d="M307 448q-51 0 -87 -31.5t-44 -87.5h263q-1 54 -39 86.5t-93 32.5zM570 174q-24 -80 -92 -131.5t-167 -51.5q-122 0 -200 78.5t-78 207.5q0 130 77 208t201 78q121 0 197 -75.5t76 -198.5q0 -30 -4 -54h-405q5 -60 42 -94t91 -34q78 0 111 67h151zM184 725l51 78 l172 -105l-51 -75z" />
<glyph unicode="&#xe9;" horiz-adv-x="617" d="M307 448q-51 0 -87 -31.5t-44 -87.5h263q-1 54 -39 86.5t-93 32.5zM570 174q-24 -80 -92 -131.5t-167 -51.5q-122 0 -200 78.5t-78 207.5q0 130 77 208t201 78q121 0 197 -75.5t76 -198.5q0 -30 -4 -54h-405q5 -60 42 -94t91 -34q78 0 111 67h151zM423 803l51 -78 l-172 -102l-51 75z" />
<glyph unicode="&#xea;" horiz-adv-x="617" d="M307 448q-51 0 -87 -31.5t-44 -87.5h263q-1 54 -39 86.5t-93 32.5zM570 174q-24 -80 -92 -131.5t-167 -51.5q-122 0 -200 78.5t-78 207.5q0 130 77 208t201 78q121 0 197 -75.5t76 -198.5q0 -30 -4 -54h-405q5 -60 42 -94t91 -34q78 0 111 67h151zM309 778l153 -100 l-53 -65l-100 62l-100 -62l-53 65z" />
<glyph unicode="&#xeb;" horiz-adv-x="617" d="M307 448q-51 0 -87 -31.5t-44 -87.5h263q-1 54 -39 86.5t-93 32.5zM570 174q-24 -80 -92 -131.5t-167 -51.5q-122 0 -200 78.5t-78 207.5q0 130 77 208t201 78q121 0 197 -75.5t76 -198.5q0 -30 -4 -54h-405q5 -60 42 -94t91 -34q78 0 111 67h151zM216 622q-28 0 -47 19 t-19 47t19 47.5t47 19.5t47.5 -19.5t19.5 -47.5t-19.5 -47t-47.5 -19zM401 622q-28 0 -47 19t-19 47t19 47.5t47 19.5t47.5 -19.5t19.5 -47.5t-19.5 -47t-47.5 -19z" />
<glyph unicode="&#xec;" horiz-adv-x="290" d="M75 0v554h140v-554h-140zM28 725l51 78l172 -105l-51 -75z" />
<glyph unicode="&#xed;" horiz-adv-x="290" d="M75 0v554h140v-554h-140zM221 803l51 -78l-172 -102l-51 75z" />
<glyph unicode="&#xee;" horiz-adv-x="290" d="M75 0v554h140v-554h-140zM294 695v-102l-148 84l-149 -84v102l149 81z" />
<glyph unicode="&#xef;" horiz-adv-x="290" d="M75 0v554h140v-554h-140zM52 620q-28 0 -47 19t-19 47t19 47.5t47 19.5t47.5 -19.5t19.5 -47.5t-19.5 -47t-47.5 -19zM237 620q-28 0 -47 19t-19 47t19 47.5t47 19.5t47.5 -19.5t19.5 -47.5t-19.5 -47t-47.5 -19z" />
<glyph unicode="&#xf0;" horiz-adv-x="638" d="M264 652l71 23q-24 26 -71 65h134q13 -11 36 -34l112 35v-64l-67 -21q126 -156 126 -339q0 -156 -80.5 -240.5t-207.5 -84.5q-122 0 -203 78.5t-81 207.5q0 128 78.5 206t194.5 78q77 0 139 -45q-24 55 -65 107l-116 -36v64zM177 277q0 -80 40.5 -123t99.5 -43 t101.5 43.5t42.5 122.5t-42 122.5t-101 43.5t-100 -43t-41 -123z" />
<glyph unicode="&#xf1;" horiz-adv-x="661" d="M209 306v-306h-140v554h140v-69q59 77 167 77q99 0 160 -62.5t61 -174.5v-325h-140v306q0 66 -33 101.5t-90 35.5q-58 0 -91.5 -35.5t-33.5 -101.5zM167 607q19 131 124 131q31 0 68 -22t55 -22q37 0 43 43h75q-19 -131 -124 -131q-31 0 -68 22.5t-55 22.5q-37 0 -44 -44 h-74z" />
<glyph unicode="&#xf2;" horiz-adv-x="638" d="M604 277q0 -128 -83 -207t-206 -79q-122 0 -201.5 78.5t-79.5 207.5t81 207.5t204 78.5t204 -78.5t81 -207.5zM176 277q0 -79 39.5 -121.5t99.5 -42.5t102.5 43t42.5 121q0 79 -41.5 121.5t-101.5 42.5t-100.5 -42.5t-40.5 -121.5zM186 725l51 78l172 -105l-51 -75z" />
<glyph unicode="&#xf3;" horiz-adv-x="638" d="M604 277q0 -128 -83 -207t-206 -79q-122 0 -201.5 78.5t-79.5 207.5t81 207.5t204 78.5t204 -78.5t81 -207.5zM176 277q0 -79 39.5 -121.5t99.5 -42.5t102.5 43t42.5 121q0 79 -41.5 121.5t-101.5 42.5t-100.5 -42.5t-40.5 -121.5zM434 803l51 -78l-172 -102l-51 75z" />
<glyph unicode="&#xf4;" horiz-adv-x="638" d="M604 277q0 -128 -83 -207t-206 -79q-122 0 -201.5 78.5t-79.5 207.5t81 207.5t204 78.5t204 -78.5t81 -207.5zM176 277q0 -79 39.5 -121.5t99.5 -42.5t102.5 43t42.5 121q0 79 -41.5 121.5t-101.5 42.5t-100.5 -42.5t-40.5 -121.5zM320 778l153 -100l-53 -65l-100 62 l-100 -62l-53 65z" />
<glyph unicode="&#xf5;" horiz-adv-x="638" d="M604 277q0 -128 -83 -207t-206 -79q-122 0 -201.5 78.5t-79.5 207.5t81 207.5t204 78.5t204 -78.5t81 -207.5zM176 277q0 -79 39.5 -121.5t99.5 -42.5t102.5 43t42.5 121q0 79 -41.5 121.5t-101.5 42.5t-100.5 -42.5t-40.5 -121.5zM252 635h-84q4 55 33 87.5t73 32.5 q24 0 53.5 -17.5t45.5 -17.5q19 0 22 33h85q-4 -59 -32 -89.5t-74 -30.5q-22 0 -53.5 18t-45.5 18q-19 0 -23 -34z" />
<glyph unicode="&#xf6;" horiz-adv-x="638" d="M604 277q0 -128 -83 -207t-206 -79q-122 0 -201.5 78.5t-79.5 207.5t81 207.5t204 78.5t204 -78.5t81 -207.5zM176 277q0 -79 39.5 -121.5t99.5 -42.5t102.5 43t42.5 121q0 79 -41.5 121.5t-101.5 42.5t-100.5 -42.5t-40.5 -121.5zM232 627q-28 0 -47 19t-19 47t19 47.5 t47 19.5t47.5 -19.5t19.5 -47.5t-19.5 -47t-47.5 -19zM417 627q-28 0 -47 19t-19 47t19 47.5t47 19.5t47.5 -19.5t19.5 -47.5t-19.5 -47t-47.5 -19z" />
<glyph unicode="&#xf7;" horiz-adv-x="648" d="M73 296v122h510v-122h-510zM416 137q0 -35 -24 -58.5t-61 -23.5q-38 0 -62.5 23.5t-24.5 58.5t24.5 58.5t62.5 23.5q37 0 61 -23.5t24 -58.5zM416 578q0 -35 -24 -58.5t-61 -23.5q-38 0 -62.5 23.5t-24.5 58.5t24.5 58.5t62.5 23.5q37 0 61 -23.5t24 -58.5z" />
<glyph unicode="&#xf8;" horiz-adv-x="634" d="M602 277q0 -128 -83 -207t-206 -79q-96 0 -169 51l-38 -42h-85l77 84q-66 79 -66 193q0 129 81 207.5t204 78.5q99 0 172 -52l39 43h85l-78 -85q67 -77 67 -192zM174 277q0 -51 18 -90l208 227q-38 27 -85 27q-60 0 -100.5 -42.5t-40.5 -121.5zM313 113q60 0 102.5 43 t42.5 121q0 49 -18 88l-207 -227q34 -25 80 -25z" />
<glyph unicode="&#xf9;" horiz-adv-x="661" d="M592 554v-554h-141v70q-27 -36 -70.5 -56.5t-94.5 -20.5q-99 0 -160.5 62.5t-61.5 173.5v325h140v-305q0 -66 33 -101.5t90 -35.5q58 0 91 35.5t33 101.5v305h141zM192 725l51 78l172 -105l-51 -75z" />
<glyph unicode="&#xfa;" horiz-adv-x="661" d="M592 554v-554h-141v70q-27 -36 -70.5 -56.5t-94.5 -20.5q-99 0 -160.5 62.5t-61.5 173.5v325h140v-305q0 -66 33 -101.5t90 -35.5q58 0 91 35.5t33 101.5v305h141zM434 803l51 -78l-172 -102l-51 75z" />
<glyph unicode="&#xfb;" horiz-adv-x="661" d="M592 554v-554h-141v70q-27 -36 -70.5 -56.5t-94.5 -20.5q-99 0 -160.5 62.5t-61.5 173.5v325h140v-305q0 -66 33 -101.5t90 -35.5q58 0 91 35.5t33 101.5v305h141zM479 695v-102l-148 84l-149 -84v102l149 81z" />
<glyph unicode="&#xfc;" horiz-adv-x="661" d="M592 554v-554h-141v70q-27 -36 -70.5 -56.5t-94.5 -20.5q-99 0 -160.5 62.5t-61.5 173.5v325h140v-305q0 -66 33 -101.5t90 -35.5q58 0 91 35.5t33 101.5v305h141zM238 620q-28 0 -47 19t-19 47t19 47.5t47 19.5t47.5 -19.5t19.5 -47.5t-19.5 -47t-47.5 -19zM423 620 q-28 0 -47 19t-19 47t19 47.5t47 19.5t47.5 -19.5t19.5 -47.5t-19.5 -47t-47.5 -19z" />
<glyph unicode="&#xfd;" horiz-adv-x="605" d="M305 167l145 387h149l-343 -816h-149l120 276l-222 540h157zM415 803l51 -78l-172 -102l-51 75z" />
<glyph unicode="&#xfe;" horiz-adv-x="678" d="M209 468q60 94 179 94q109 0 183 -79.5t74 -204.5q0 -126 -74 -206t-183 -80q-117 0 -179 101v-357h-140v1004h140v-272zM502 278q0 76 -43.5 119t-102.5 43t-103 -43.5t-44 -119.5t44 -119.5t103 -43.5t102.5 44t43.5 120z" />
<glyph unicode="&#xff;" horiz-adv-x="605" d="M305 167l145 387h149l-343 -816h-149l120 276l-222 540h157zM210 620q-28 0 -47 19t-19 47t19 47.5t47 19.5t47.5 -19.5t19.5 -47.5t-19.5 -47t-47.5 -19zM395 620q-28 0 -47 19t-19 47t19 47.5t47 19.5t47.5 -19.5t19.5 -47.5t-19.5 -47t-47.5 -19z" />
<glyph unicode="&#x100;" horiz-adv-x="716" d="M543 0l-46 133h-278l-46 -133h-147l251 699h163l251 -699h-148zM167 777v100h382v-100h-382zM459 245l-101 292l-101 -292h202z" />
<glyph unicode="&#x101;" horiz-adv-x="678" d="M33 279q0 127 72.5 205.5t180.5 78.5q120 0 183 -88v79h141v-554h-141v81q-27 -39 -74.5 -64.5t-109.5 -25.5q-107 0 -179.5 80.5t-72.5 207.5zM469 277q0 75 -43 119t-104 44q-60 0 -103 -43t-43 -118t43 -120t103 -45q61 0 104 44t43 119zM150 632v100h382v-100h-382z " />
<glyph unicode="&#x102;" horiz-adv-x="716" d="M543 0l-46 133h-278l-46 -133h-147l251 699h163l251 -699h-148zM459 245l-101 292l-101 -292h202zM212 872h86q0 -54 60 -54q61 0 61 54h86q0 -62 -37 -98.5t-110 -36.5q-72 0 -109 36.5t-37 98.5z" />
<glyph unicode="&#x103;" horiz-adv-x="678" d="M33 279q0 127 72.5 205.5t180.5 78.5q120 0 183 -88v79h141v-554h-141v81q-27 -39 -74.5 -64.5t-109.5 -25.5q-107 0 -179.5 80.5t-72.5 207.5zM469 277q0 75 -43 119t-104 44q-60 0 -103 -43t-43 -118t43 -120t103 -45q61 0 104 44t43 119zM198 747h86q0 -54 60 -54 q61 0 61 54h86q0 -62 -37 -98.5t-110 -36.5q-72 0 -109 36.5t-37 98.5z" />
<glyph unicode="&#x104;" horiz-adv-x="716" d="M277 699h163l251 -699l-48 -24q-61 -29 -61 -65q0 -19 13.5 -30t36.5 -11q32 0 70 15v-84q-42 -15 -89 -15q-59 0 -99.5 28t-40.5 84q0 63 67 112l-43 123h-278l-46 -133h-147zM459 245l-101 292l-101 -292h202z" />
<glyph unicode="&#x105;" horiz-adv-x="678" d="M33 279q0 127 72.5 205.5t180.5 78.5q120 0 183 -88v79h141v-554h-1l-47 -24q-62 -31 -62 -66q0 -18 13.5 -29t36.5 -11q32 0 71 15v-84q-43 -15 -89 -15q-59 0 -99.5 27.5t-40.5 83.5q0 67 77 117v67q-27 -39 -74.5 -64.5t-109.5 -25.5q-107 0 -179.5 80.5t-72.5 207.5z M469 277q0 75 -43 119t-104 44q-60 0 -103 -43t-43 -118t43 -120t103 -45q61 0 104 44t43 119z" />
<glyph unicode="&#x106;" horiz-adv-x="768" d="M35 350q0 156 101 256.5t253 100.5q117 0 205 -60t123 -166h-161q-49 100 -168 100q-93 0 -151 -63t-58 -168t58 -168t151 -63q119 0 168 101h161q-35 -107 -122.5 -166.5t-205.5 -59.5q-152 0 -253 100t-101 256zM267 845l230 119v-114l-230 -105v100z" />
<glyph unicode="&#x107;" horiz-adv-x="602" d="M33 277q0 129 76.5 207.5t197.5 78.5q103 0 170.5 -51.5t90.5 -144.5h-151q-26 77 -111 77q-60 0 -95 -43.5t-35 -123.5q0 -79 35 -122.5t95 -43.5q85 0 111 76h151q-23 -90 -91 -143t-170 -53q-121 0 -197.5 78.5t-76.5 207.5zM179 693l230 119v-114l-230 -105v100z" />
<glyph unicode="&#x10a;" horiz-adv-x="768" d="M35 350q0 156 101 256.5t253 100.5q117 0 205 -60t123 -166h-161q-49 100 -168 100q-93 0 -151 -63t-58 -168t58 -168t151 -63q119 0 168 101h161q-35 -107 -122.5 -166.5t-205.5 -59.5q-152 0 -253 100t-101 256zM388 772q-28 0 -47 19t-19 47t19 47.5t47 19.5 t47.5 -19.5t19.5 -47.5t-19.5 -47t-47.5 -19z" />
<glyph unicode="&#x10b;" horiz-adv-x="602" d="M33 277q0 129 76.5 207.5t197.5 78.5q103 0 170.5 -51.5t90.5 -144.5h-151q-26 77 -111 77q-60 0 -95 -43.5t-35 -123.5q0 -79 35 -122.5t95 -43.5q85 0 111 76h151q-23 -90 -91 -143t-170 -53q-121 0 -197.5 78.5t-76.5 207.5zM299 620q-28 0 -47 19t-19 47t19 47.5 t47 19.5t47.5 -19.5t19.5 -47.5t-19.5 -47t-47.5 -19z" />
<glyph unicode="&#x10c;" horiz-adv-x="768" d="M35 350q0 156 101 256.5t253 100.5q117 0 205 -60t123 -166h-161q-49 100 -168 100q-93 0 -151 -63t-58 -168t58 -168t151 -63q119 0 168 101h161q-35 -107 -122.5 -166.5t-205.5 -59.5q-152 0 -253 100t-101 256zM389 842l148 86v-102l-148 -81l-149 81v102z" />
<glyph unicode="&#x10d;" horiz-adv-x="602" d="M33 277q0 129 76.5 207.5t197.5 78.5q103 0 170.5 -51.5t90.5 -144.5h-151q-26 77 -111 77q-60 0 -95 -43.5t-35 -123.5q0 -79 35 -122.5t95 -43.5q85 0 111 76h151q-23 -90 -91 -143t-170 -53q-121 0 -197.5 78.5t-76.5 207.5zM300 690l148 86v-102l-148 -81l-149 81 v102z" />
<glyph unicode="&#x10e;" horiz-adv-x="717" d="M313 698q167 0 267.5 -95.5t100.5 -254.5q0 -158 -100.5 -253t-267.5 -95h-244v698h244zM209 119h99q110 0 170 60t60 169t-60 170.5t-170 61.5h-99v-461zM356 835l148 86v-102l-148 -81l-149 81v102z" />
<glyph unicode="&#x10f;" horiz-adv-x="806" d="M663 740h116q17 -60 17 -108q0 -66 -31.5 -101.5t-94.5 -35.5v57q50 0 50 60v19h-57v109zM33 279q0 127 72.5 205.5t181.5 78.5q54 0 103 -23.5t78 -62.5v263h142v-740h-142v82q-59 -91 -182 -91q-108 0 -180.5 80t-72.5 208zM469 277q0 75 -43 119t-104 44 q-60 0 -103 -43t-43 -118t43 -120t103 -45q61 0 104 44t43 119z" />
<glyph unicode="&#x110;" horiz-adv-x="726" d="M322 698q167 0 267.5 -95.5t100.5 -254.5q0 -158 -100.5 -253t-267.5 -95h-245v290h-57v110h57v298h245zM218 114h99q109 0 169 62t60 172t-60 171.5t-169 61.5h-99v-181h155v-110h-155v-176z" />
<glyph unicode="&#x111;" horiz-adv-x="684" d="M33 279q0 127 72.5 205.5t181.5 78.5q54 0 103 -23.5t78 -62.5v115h-136v92h136v56h142v-56h60v-92h-60v-592h-142v82q-59 -91 -182 -91q-108 0 -180.5 80t-72.5 208zM469 277q0 75 -43 119t-104 44q-60 0 -103 -43t-43 -118t43 -120t103 -45q61 0 104 44t43 119z" />
<glyph unicode="&#x112;" horiz-adv-x="532" d="M474 699v-114h-265v-175h235v-111h-235v-185h265v-114h-405v699h405zM76 777v100h382v-100h-382z" />
<glyph unicode="&#x113;" horiz-adv-x="617" d="M307 448q-51 0 -87 -31.5t-44 -87.5h263q-1 54 -39 86.5t-93 32.5zM570 174q-24 -80 -92 -131.5t-167 -51.5q-122 0 -200 78.5t-78 207.5q0 130 77 208t201 78q121 0 197 -75.5t76 -198.5q0 -30 -4 -54h-405q5 -60 42 -94t91 -34q78 0 111 67h151zM118 634v100h382v-100 h-382z" />
<glyph unicode="&#x114;" horiz-adv-x="532" d="M474 699v-114h-265v-175h235v-111h-235v-185h265v-114h-405v699h405zM427 897q0 -72 -43 -113t-117 -41q-72 0 -115.5 41.5t-43.5 113.5v20h74q0 -34 19 -51.5t66 -17.5t66 17.5t19 51.5h75v-21z" />
<glyph unicode="&#x115;" horiz-adv-x="617" d="M307 448q-51 0 -87 -31.5t-44 -87.5h263q-1 54 -39 86.5t-93 32.5zM570 174q-24 -80 -92 -131.5t-167 -51.5q-122 0 -200 78.5t-78 207.5q0 130 77 208t201 78q121 0 197 -75.5t76 -198.5q0 -30 -4 -54h-405q5 -60 42 -94t91 -34q78 0 111 67h151zM468 754 q0 -72 -43 -113t-117 -41q-72 0 -115.5 41.5t-43.5 113.5v20h74q0 -34 19 -51.5t66 -17.5t66 17.5t19 51.5h75v-21z" />
<glyph unicode="&#x116;" horiz-adv-x="532" d="M474 699v-114h-265v-175h235v-111h-235v-185h265v-114h-405v699h405zM266 765q-28 0 -47 19t-19 47t19 47.5t47 19.5t47.5 -19.5t19.5 -47.5t-19.5 -47t-47.5 -19z" />
<glyph unicode="&#x117;" horiz-adv-x="617" d="M307 448q-51 0 -87 -31.5t-44 -87.5h263q-1 54 -39 86.5t-93 32.5zM570 174q-24 -80 -92 -131.5t-167 -51.5q-122 0 -200 78.5t-78 207.5q0 130 77 208t201 78q121 0 197 -75.5t76 -198.5q0 -30 -4 -54h-405q5 -60 42 -94t91 -34q78 0 111 67h151zM308 622q-28 0 -47 19 t-19 47t19 47.5t47 19.5t47.5 -19.5t19.5 -47.5t-19.5 -47t-47.5 -19z" />
<glyph unicode="&#x118;" horiz-adv-x="532" d="M474 699v-114h-265v-175h235v-111h-235v-185h265v-114l-47 -24q-62 -31 -62 -66q0 -18 13.5 -29t36.5 -11q32 0 71 15v-84q-43 -15 -89 -15q-59 0 -99.5 27.5t-40.5 83.5q0 58 57 103h-245v699h405z" />
<glyph unicode="&#x119;" horiz-adv-x="617" d="M307 448q-51 0 -87 -31.5t-44 -87.5h263q-1 54 -39 86.5t-93 32.5zM426 -186q-43 -15 -89 -15q-59 0 -99.5 27.5t-40.5 83.5q0 51 41 89q-93 22 -149 96t-56 182q0 130 77 208t201 78q121 0 197 -75.5t76 -198.5q0 -30 -4 -54h-405q5 -60 42 -94t91 -34q78 0 111 67h151 q-19 -63 -65 -109t-115 -64l-23 -12q-62 -31 -62 -66q0 -18 13.5 -29t36.5 -11q32 0 71 15v-84z" />
<glyph unicode="&#x11a;" horiz-adv-x="532" d="M474 699v-114h-265v-175h235v-111h-235v-185h265v-114h-405v699h405zM267 835l148 86v-102l-148 -81l-149 81v102z" />
<glyph unicode="&#x11b;" horiz-adv-x="617" d="M307 448q-51 0 -87 -31.5t-44 -87.5h263q-1 54 -39 86.5t-93 32.5zM570 174q-24 -80 -92 -131.5t-167 -51.5q-122 0 -200 78.5t-78 207.5q0 130 77 208t201 78q121 0 197 -75.5t76 -198.5q0 -30 -4 -54h-405q5 -60 42 -94t91 -34q78 0 111 67h151zM309 692l148 86v-102 l-148 -81l-149 81v102z" />
<glyph unicode="&#x11e;" horiz-adv-x="768" d="M391 707q118 0 205 -57.5t120 -161.5h-161q-49 90 -164 90q-95 0 -153.5 -62.5t-58.5 -165.5q0 -106 60 -168t158 -62q80 0 131 42.5t67 118.5h-240v107h378v-122q-22 -113 -115 -192.5t-226 -79.5q-153 0 -255 100t-102 256t101.5 256.5t254.5 100.5zM543 897 q0 -72 -43 -113t-117 -41q-72 0 -115.5 41.5t-43.5 113.5v20h74q0 -34 19 -51.5t66 -17.5t66 17.5t19 51.5h75v-21z" />
<glyph unicode="&#x11f;" horiz-adv-x="678" d="M33 279q0 127 72.5 205.5t180.5 78.5q62 0 109 -24.5t74 -63.5v79h141v-558q0 -118 -71.5 -193.5t-202.5 -75.5q-118 0 -193.5 55t-85.5 150h139q11 -38 47.5 -60.5t88.5 -22.5q61 0 99 36.5t38 110.5v86q-27 -39 -74.5 -65t-108.5 -26q-108 0 -180.5 80t-72.5 208z M469 277q0 75 -43 119t-104 44q-60 0 -103 -43t-43 -118t43 -120t103 -45q61 0 104 44t43 119zM501 752q0 -72 -43 -113t-117 -41q-72 0 -115.5 41.5t-43.5 113.5v20h74q0 -34 19 -51.5t66 -17.5t66 17.5t19 51.5h75v-21z" />
<glyph unicode="&#x120;" horiz-adv-x="768" d="M391 707q118 0 205 -57.5t120 -161.5h-161q-49 90 -164 90q-95 0 -153.5 -62.5t-58.5 -165.5q0 -106 60 -168t158 -62q80 0 131 42.5t67 118.5h-240v107h378v-122q-22 -113 -115 -192.5t-226 -79.5q-153 0 -255 100t-102 256t101.5 256.5t254.5 100.5zM383 765 q-28 0 -47 19t-19 47t19 47.5t47 19.5t47.5 -19.5t19.5 -47.5t-19.5 -47t-47.5 -19z" />
<glyph unicode="&#x121;" horiz-adv-x="678" d="M33 279q0 127 72.5 205.5t180.5 78.5q62 0 109 -24.5t74 -63.5v79h141v-558q0 -118 -71.5 -193.5t-202.5 -75.5q-118 0 -193.5 55t-85.5 150h139q11 -38 47.5 -60.5t88.5 -22.5q61 0 99 36.5t38 110.5v86q-27 -39 -74.5 -65t-108.5 -26q-108 0 -180.5 80t-72.5 208z M469 277q0 75 -43 119t-104 44q-60 0 -103 -43t-43 -118t43 -120t103 -45q61 0 104 44t43 119zM340 620q-28 0 -47 19t-19 47t19 47.5t47 19.5t47.5 -19.5t19.5 -47.5t-19.5 -47t-47.5 -19z" />
<glyph unicode="&#x122;" horiz-adv-x="769" d="M324 -43h116q17 -62 17 -108q0 -66 -32 -102t-94 -36v57q50 0 50 62v18h-57v109zM391 707q118 0 205 -57.5t120 -161.5h-161q-49 90 -164 90q-95 0 -153.5 -62.5t-58.5 -165.5q0 -106 60 -168t158 -62q80 0 131 42.5t67 118.5h-240v107h378v-122q-22 -113 -115 -192.5 t-226 -79.5q-153 0 -255 100t-102 256t101.5 256.5t254.5 100.5z" />
<glyph unicode="&#x123;" horiz-adv-x="678" d="M404 597h-116q-16 58 -16 108q0 66 31.5 102t93.5 36v-57q-50 0 -50 -61v-18h57v-110zM33 279q0 127 72.5 205.5t180.5 78.5q62 0 109 -24.5t74 -63.5v79h141v-558q0 -118 -71.5 -193.5t-202.5 -75.5q-118 0 -193.5 55t-85.5 150h139q11 -38 47.5 -60.5t88.5 -22.5 q61 0 99 36.5t38 110.5v86q-27 -39 -74.5 -65t-108.5 -26q-108 0 -180.5 80t-72.5 208zM469 277q0 75 -43 119t-104 44q-60 0 -103 -43t-43 -118t43 -120t103 -45q61 0 104 44t43 119z" />
<glyph unicode="&#x128;" horiz-adv-x="278" d="M69 0v698h140v-698h-140zM68 763h-84q4 55 33 87.5t73 32.5q24 0 53.5 -17.5t45.5 -17.5q19 0 22 33h85q-4 -59 -32 -89.5t-74 -30.5q-22 0 -53.5 18t-45.5 18q-19 0 -23 -34z" />
<glyph unicode="&#x129;" horiz-adv-x="290" d="M75 0v554h140v-554h-140zM73 635h-84q4 55 33 87.5t73 32.5q24 0 53.5 -17.5t45.5 -17.5q19 0 22 33h85q-4 -59 -32 -89.5t-74 -30.5q-22 0 -53.5 18t-45.5 18q-19 0 -23 -34z" />
<glyph unicode="&#x12a;" horiz-adv-x="278" d="M69 0v698h140v-698h-140zM-51 777v100h382v-100h-382z" />
<glyph unicode="&#x12b;" horiz-adv-x="290" d="M75 0v554h140v-554h-140zM-45 632v100h382v-100h-382z" />
<glyph unicode="&#x12c;" horiz-adv-x="278" d="M69 0v698h140v-698h-140zM299 897q0 -72 -43 -113t-117 -41q-72 0 -115.5 41.5t-43.5 113.5v20h74q0 -34 19 -51.5t66 -17.5t66 17.5t19 51.5h75v-21z" />
<glyph unicode="&#x12d;" horiz-adv-x="290" d="M75 0v554h140v-554h-140zM305 752q0 -72 -43 -113t-117 -41q-72 0 -115.5 41.5t-43.5 113.5v20h74q0 -34 19 -51.5t66 -17.5t66 17.5t19 51.5h75v-21z" />
<glyph unicode="&#x12e;" horiz-adv-x="278" d="M221 -198q-43 -15 -89 -15q-59 0 -99.5 27.5t-40.5 83.5q0 67 77 117v683h140v-698h-2l-45 -23q-62 -31 -62 -66q0 -18 13.5 -29t36.5 -11q32 0 71 15v-84z" />
<glyph unicode="&#x12f;" horiz-adv-x="278" d="M221 -198q-43 -15 -89 -15q-59 0 -99.5 27.5t-40.5 83.5q0 67 77 117v539h140v-554h-2l-45 -23q-62 -31 -62 -66q0 -18 13.5 -29t36.5 -11q32 0 71 15v-84zM140 620q-37 0 -61.5 23.5t-24.5 58.5t24.5 58.5t61.5 23.5t61.5 -23.5t24.5 -58.5t-24.5 -58.5t-61.5 -23.5z " />
<glyph unicode="&#x130;" horiz-adv-x="278" d="M69 0v698h140v-698h-140zM139 765q-28 0 -47 19t-19 47t19 47.5t47 19.5t47.5 -19.5t19.5 -47.5t-19.5 -47t-47.5 -19z" />
<glyph unicode="&#x131;" horiz-adv-x="290" d="M75 0v554h140v-554h-140z" />
<glyph unicode="&#x136;" horiz-adv-x="673" d="M276 -43h116q17 -57 17 -108q0 -66 -32 -102t-93 -36v57q50 0 50 62v18h-58v109zM463 0l-254 311v-311h-140v698h140v-313l254 313h169l-288 -346l296 -352h-177z" />
<glyph unicode="&#x137;" horiz-adv-x="584" d="M233 -43h116q16 -58 16 -108q0 -66 -32 -102t-93 -36v57q50 0 50 62v18h-57v109zM69 0v740h140v-421l186 235h182l-244 -278l246 -276h-182l-188 236v-236h-140z" />
<glyph unicode="&#x139;" horiz-adv-x="459" d="M69 698h140v-587h230v-111h-370v698zM103 838l230 119v-114l-230 -105v100z" />
<glyph unicode="&#x13a;" horiz-adv-x="278" d="M69 0v740h140v-740h-140zM18 879l230 119v-114l-230 -105v100z" />
<glyph unicode="&#x13b;" horiz-adv-x="460" d="M197 -43h116q17 -57 17 -108q0 -66 -31.5 -102t-94.5 -36v57q51 0 51 62v18h-58v109zM69 698h140v-587h230v-111h-370v698z" />
<glyph unicode="&#x13c;" horiz-adv-x="278" d="M80 -43h116q17 -62 17 -108q0 -66 -32 -102t-94 -36v57q51 0 51 62v18h-58v109zM69 0v740h140v-740h-140z" />
<glyph unicode="&#x13d;" horiz-adv-x="491" d="M315 698h116q16 -52 16 -107q0 -66 -31.5 -102t-92.5 -36v57q49 0 49 61v19h-57v108zM69 698h140v-587h230v-111h-370v698z" />
<glyph unicode="&#x13e;" horiz-adv-x="449" d="M281 740h116q17 -55 17 -108q0 -66 -31.5 -101.5t-93.5 -35.5v57q50 0 50 60v19h-58v109zM69 0v740h140v-740h-140z" />
<glyph unicode="&#x13f;" horiz-adv-x="459" d="M69 698h140v-587h230v-111h-370v698zM224 765q-28 0 -47 19t-19 47t19 47.5t47 19.5t47.5 -19.5t19.5 -47.5t-19.5 -47t-47.5 -19z" />
<glyph unicode="&#x140;" horiz-adv-x="278" d="M139 773q-29 0 -47.5 18.5t-18.5 47.5q0 28 19 47t47 19t47 -19t19 -47t-19 -47t-47 -19zM69 0v740h140v-740h-140z" />
<glyph unicode="&#x141;" horiz-adv-x="463" d="M81 698h141v-257l88 27v-114l-88 -27v-220h229v-107h-370v283l-72 -22v113l72 22v302z" />
<glyph unicode="&#x142;" horiz-adv-x="290" d="M75 0v286l-66 -21v115l66 21v339h140v-294l67 21v-114l-67 -22v-331h-140z" />
<glyph unicode="&#x143;" horiz-adv-x="735" d="M526 699h140v-699h-140l-317 479v-479h-140v699h140l317 -480v480zM247 838l230 119v-114l-230 -105v100z" />
<glyph unicode="&#x144;" horiz-adv-x="661" d="M226 693l230 119v-114l-230 -105v100zM457 0v306q0 66 -33 101.5t-90 35.5q-58 0 -91.5 -35.5t-33.5 -101.5v-306h-140v554h140v-69q59 77 167 77q99 0 160 -62.5t61 -174.5v-325h-140z" />
<glyph unicode="&#x145;" horiz-adv-x="747" d="M313 -43h116q17 -57 17 -108q0 -66 -31.5 -102t-93.5 -36v57q50 0 50 62v18h-58v109zM526 699h140v-699h-140l-317 479v-479h-140v699h140l317 -480v480z" />
<glyph unicode="&#x146;" horiz-adv-x="661" d="M276 -43h116q16 -53 16 -108q0 -66 -31.5 -102t-92.5 -36v57q49 0 49 62v18h-57v109zM457 0v306q0 66 -33 101.5t-90 35.5q-58 0 -91.5 -35.5t-33.5 -101.5v-306h-140v554h140v-69q59 77 167 77q99 0 160 -62.5t61 -174.5v-325h-140z" />
<glyph unicode="&#x147;" horiz-adv-x="735" d="M526 699h140v-699h-140l-317 479v-479h-140v699h140l317 -480v480zM368 835l148 86v-102l-148 -81l-149 81v102z" />
<glyph unicode="&#x148;" horiz-adv-x="661" d="M457 0v306q0 66 -33 101.5t-90 35.5q-58 0 -91.5 -35.5t-33.5 -101.5v-306h-140v554h140v-69q59 77 167 77q99 0 160 -62.5t61 -174.5v-325h-140zM347 690l148 86v-102l-148 -81l-149 81v102z" />
<glyph unicode="&#x14c;" horiz-adv-x="785" d="M750 351q0 -156 -103 -257t-254 -101q-150 0 -254 101.5t-104 256.5t104 256t254 101q151 0 254 -101t103 -256zM179 351q0 -106 59 -169.5t155 -63.5q95 0 154 63.5t59 169.5t-59 168.5t-154 62.5q-96 0 -155 -62.5t-59 -168.5zM202 777v100h382v-100h-382z" />
<glyph unicode="&#x14d;" horiz-adv-x="638" d="M604 277q0 -128 -83 -207t-206 -79q-122 0 -201.5 78.5t-79.5 207.5t81 207.5t204 78.5t204 -78.5t81 -207.5zM176 277q0 -79 39.5 -121.5t99.5 -42.5t102.5 43t42.5 121q0 79 -41.5 121.5t-101.5 42.5t-100.5 -42.5t-40.5 -121.5zM134 639v100h382v-100h-382z" />
<glyph unicode="&#x14e;" horiz-adv-x="785" d="M750 351q0 -156 -103 -257t-254 -101q-150 0 -254 101.5t-104 256.5t104 256t254 101q151 0 254 -101t103 -256zM179 351q0 -106 59 -169.5t155 -63.5q95 0 154 63.5t59 169.5t-59 168.5t-154 62.5q-96 0 -155 -62.5t-59 -168.5zM552 897q0 -72 -43 -113t-117 -41 q-72 0 -115.5 41.5t-43.5 113.5v20h74q0 -34 19 -51.5t66 -17.5t66 17.5t19 51.5h75v-21z" />
<glyph unicode="&#x14f;" horiz-adv-x="638" d="M604 277q0 -128 -83 -207t-206 -79q-122 0 -201.5 78.5t-79.5 207.5t81 207.5t204 78.5t204 -78.5t81 -207.5zM176 277q0 -79 39.5 -121.5t99.5 -42.5t102.5 43t42.5 121q0 79 -41.5 121.5t-101.5 42.5t-100.5 -42.5t-40.5 -121.5zM485 759q0 -72 -43 -113t-117 -41 q-72 0 -115.5 41.5t-43.5 113.5v20h74q0 -34 19 -51.5t66 -17.5t66 17.5t19 51.5h75v-21z" />
<glyph unicode="&#x150;" horiz-adv-x="785" d="M750 351q0 -156 -103 -257t-254 -101q-150 0 -254 101.5t-104 256.5t104 256t254 101q151 0 254 -101t103 -256zM179 351q0 -106 59 -169.5t155 -63.5q95 0 154 63.5t59 169.5t-59 168.5t-154 62.5q-96 0 -155 -62.5t-59 -168.5zM321 934h116l-100 -188h-88zM506 934h116 l-109 -188h-89z" />
<glyph unicode="&#x151;" horiz-adv-x="638" d="M604 277q0 -128 -83 -207t-206 -79q-122 0 -201.5 78.5t-79.5 207.5t81 207.5t204 78.5t204 -78.5t81 -207.5zM176 277q0 -79 39.5 -121.5t99.5 -42.5t102.5 43t42.5 121q0 79 -41.5 121.5t-101.5 42.5t-100.5 -42.5t-40.5 -121.5zM253 796h116l-100 -188h-88zM438 796 h116l-109 -188h-89z" />
<glyph unicode="&#x152;" horiz-adv-x="1072" d="M1014 588h-265v-181h235v-107h-235v-189h265v-111h-405v93q-80 -99 -227 -101q-145 0 -246 101.5t-101 256.5q0 156 101 257t245 101q145 0 228 -99v89h405v-110zM393 579q-96 0 -155 -62.5t-59 -166.5t59 -167t155 -63q95 0 154 63t59 167t-59 166.5t-154 62.5z" />
<glyph unicode="&#x153;" horiz-adv-x="1052" d="M460 277q0 79 -42 122.5t-102 43.5q-59 0 -99.5 -43.5t-40.5 -122.5t40 -122.5t99 -43.5q60 0 102.5 44t42.5 122zM736 448q-53 0 -89 -34t-42 -94h263q-1 59 -38.5 93.5t-93.5 34.5zM33 277q0 129 81.5 207.5t204.5 78.5q133 0 212 -100q73 100 209 100q121 0 197 -75.5 t76 -197.5q0 -28 -4 -52h-405q4 -63 39.5 -97t90.5 -34q78 0 111 67h151q-24 -80 -92.5 -131.5t-167.5 -51.5q-132 0 -206 102q-37 -49 -93.5 -75.5t-121.5 -26.5q-123 0 -202.5 78.5t-79.5 207.5z" />
<glyph unicode="&#x154;" horiz-adv-x="641" d="M439 481q0 101 -113 101h-117v-205h117q57 0 85 27.5t28 76.5zM69 698h262q121 0 186.5 -60.5t65.5 -153.5q0 -69 -40 -124.5t-119 -76.5l167 -283h-162l-154 272h-66v-272h-140v698zM197 838l230 119v-114l-230 -105v100z" />
<glyph unicode="&#x155;" horiz-adv-x="404" d="M209 276v-276h-140v554h140v-86q58 94 170 94v-147h-37q-66 0 -99.5 -31t-33.5 -108zM128 693l230 119v-114l-230 -105v100z" />
<glyph unicode="&#x156;" horiz-adv-x="649" d="M264 -43h116q16 -58 16 -108q0 -66 -31.5 -102t-93.5 -36v57q50 0 50 62v18h-57v109zM209 0h-140v698h262q121 0 186.5 -60.5t65.5 -153.5q0 -69 -40 -124.5t-119 -76.5l167 -283h-162l-154 272h-66v-272zM439 481q0 101 -113 101h-117v-205h117q57 0 85 27.5t28 76.5z " />
<glyph unicode="&#x157;" horiz-adv-x="404" d="M78 -43h116q16 -53 16 -108q0 -66 -31.5 -102t-92.5 -36v57q49 0 49 62v18h-57v109zM209 276v-276h-140v554h140v-86q58 94 170 94v-147h-37q-66 0 -99.5 -31t-33.5 -108z" />
<glyph unicode="&#x158;" horiz-adv-x="641" d="M439 481q0 101 -113 101h-117v-205h117q57 0 85 27.5t28 76.5zM69 698h262q121 0 186.5 -60.5t65.5 -153.5q0 -69 -40 -124.5t-119 -76.5l167 -283h-162l-154 272h-66v-272h-140v698zM319 835l148 86v-102l-148 -81l-149 81v102z" />
<glyph unicode="&#x159;" horiz-adv-x="404" d="M209 276v-276h-140v554h140v-86q58 94 170 94v-147h-37q-66 0 -99.5 -31t-33.5 -108zM250 690l148 86v-102l-148 -81l-149 81v102z" />
<glyph unicode="&#x15a;" horiz-adv-x="609" d="M557 202q0 -87 -66.5 -148t-180.5 -61q-112 0 -185 55.5t-74 152.5h150q3 -43 30.5 -68t75.5 -25q49 0 77 23.5t28 61.5q0 30 -20 51t-51.5 33t-70 22.5t-77 25t-70 35t-51 58t-19.5 88.5q0 93 68 147.5t178 54.5q108 0 175.5 -52.5t74.5 -146.5h-154q-2 36 -29 59 t-71 24q-43 2 -69.5 -19.5t-26.5 -62.5q0 -28 19.5 -48t51.5 -31.5t70 -22.5t76 -26t70 -35.5t51.5 -57.5t19.5 -87zM181 845l230 119v-114l-230 -105v100z" />
<glyph unicode="&#x15b;" horiz-adv-x="545" d="M499 158q0 -73 -59.5 -120t-158.5 -47q-103 0 -170 52.5t-72 131.5h141q4 -32 31.5 -53t68.5 -21q40 0 62.5 16t22.5 41q0 27 -32 43t-78 26.5t-92.5 25.5t-78.5 51.5t-32 92.5q0 71 59.5 118.5t159.5 47.5q99 0 158 -49.5t65 -133.5h-134q-3 33 -27.5 52.5t-65.5 19.5 q-38 0 -58.5 -14t-20.5 -39q0 -23 23 -39t57 -23.5t74 -20t74.5 -28t58 -49t24.5 -81.5zM154 700l230 119v-114l-230 -105v100z" />
<glyph unicode="&#x15e;" horiz-adv-x="609" d="M557 202q0 -77 -53.5 -135.5t-147.5 -70.5v-46q55 0 92.5 -28t37.5 -81q0 -54 -38.5 -83t-94.5 -29h-142v82h119q49 0 49 32q0 31 -49 31h-62v121q-96 11 -156 65t-61 141h150q3 -43 30.5 -68t75.5 -25q49 0 77 23.5t28 61.5q0 30 -20 51t-51.5 33t-70 22.5t-77 25 t-70 35t-51 58t-19.5 88.5q0 93 68 147.5t178 54.5q108 0 175.5 -52.5t74.5 -146.5h-154q-2 36 -29 59t-71 24q-43 2 -69.5 -19.5t-26.5 -62.5q0 -28 19.5 -48t51.5 -31.5t70 -22.5t76 -26t70 -35.5t51.5 -57.5t19.5 -87z" />
<glyph unicode="&#x15f;" horiz-adv-x="545" d="M499 158q0 -64 -46.5 -109t-127.5 -55v-39q55 0 92.5 -28t37.5 -81q0 -54 -38.5 -83t-94.5 -29h-142v82h119q49 0 49 32q0 31 -49 31h-62v115q-86 11 -140 61t-58 120h141q4 -32 31.5 -53t68.5 -21q40 0 62.5 16t22.5 41q0 27 -32 43t-78 26.5t-92.5 25.5t-78.5 51.5 t-32 92.5q0 71 59.5 118.5t159.5 47.5q99 0 158 -49.5t65 -133.5h-134q-3 33 -27.5 52.5t-65.5 19.5q-38 0 -58.5 -14t-20.5 -39q0 -23 23 -39t57 -23.5t74 -20t74.5 -28t58 -49t24.5 -81.5z" />
<glyph unicode="&#x160;" horiz-adv-x="609" d="M557 202q0 -87 -66.5 -148t-180.5 -61q-112 0 -185 55.5t-74 152.5h150q3 -43 30.5 -68t75.5 -25q49 0 77 23.5t28 61.5q0 30 -20 51t-51.5 33t-70 22.5t-77 25t-70 35t-51 58t-19.5 88.5q0 93 68 147.5t178 54.5q108 0 175.5 -52.5t74.5 -146.5h-154q-2 36 -29 59 t-71 24q-43 2 -69.5 -19.5t-26.5 -62.5q0 -28 19.5 -48t51.5 -31.5t70 -22.5t76 -26t70 -35.5t51.5 -57.5t19.5 -87zM303 842l148 86v-102l-148 -81l-149 81v102z" />
<glyph unicode="&#x161;" horiz-adv-x="545" d="M499 158q0 -73 -59.5 -120t-158.5 -47q-103 0 -170 52.5t-72 131.5h141q4 -32 31.5 -53t68.5 -21q40 0 62.5 16t22.5 41q0 27 -32 43t-78 26.5t-92.5 25.5t-78.5 51.5t-32 92.5q0 71 59.5 118.5t159.5 47.5q99 0 158 -49.5t65 -133.5h-134q-3 33 -27.5 52.5t-65.5 19.5 q-38 0 -58.5 -14t-20.5 -39q0 -23 23 -39t57 -23.5t74 -20t74.5 -28t58 -49t24.5 -81.5zM275 697l148 86v-102l-148 -81l-149 81v102z" />
<glyph unicode="&#x162;" horiz-adv-x="577" d="M32 585v113h512v-113h-186v-585h-23v-45q55 0 92.5 -28t37.5 -81q0 -54 -38.5 -83t-94.5 -29h-142v82h119q49 0 49 32q0 31 -49 31h-62v121h-29v585h-186z" />
<glyph unicode="&#x163;" horiz-adv-x="388" d="M91 172v267h-66v115h66v137h141v-137h124v-115h-124v-268q0 -28 13.5 -40.5t45.5 -12.5h65v-118h-88q-13 0 -19 1v-44q55 0 92.5 -28t37.5 -81q0 -54 -38.5 -83t-94.5 -29h-142v82h119q49 0 49 32q0 31 -49 31h-62v142q-70 40 -70 149z" />
<glyph unicode="&#x164;" horiz-adv-x="577" d="M32 585v113h512v-113h-186v-585h-140v585h-186zM288 835l148 86v-102l-148 -81l-149 81v102z" />
<glyph unicode="&#x165;" horiz-adv-x="391" d="M295 810h116q17 -60 17 -98q0 -117 -126 -117v57q51 0 51 33v16h-58v109zM91 172v267h-66v115h66v137h141v-137h124v-115h-124v-268q0 -28 13.5 -40.5t45.5 -12.5h65v-118h-88q-177 0 -177 172z" />
<glyph unicode="&#x168;" horiz-adv-x="697" d="M67 267v431h140v-432q0 -71 37 -108.5t104 -37.5q68 0 105 37.5t37 108.5v432h141v-431q0 -132 -81.5 -203t-203.5 -71q-121 0 -200 71t-79 203zM277 763h-84q4 55 33 87.5t73 32.5q24 0 53.5 -17.5t45.5 -17.5q19 0 22 33h85q-4 -59 -32 -89.5t-74 -30.5q-22 0 -53.5 18 t-45.5 18q-19 0 -23 -34z" />
<glyph unicode="&#x169;" horiz-adv-x="661" d="M451 0v70q-27 -36 -70.5 -56.5t-94.5 -20.5q-99 0 -160.5 62.5t-61.5 173.5v325h140v-305q0 -66 33 -101.5t90 -35.5q58 0 91 35.5t33 101.5v305h141v-554h-141zM254 635h-84q4 55 33 87.5t73 32.5q24 0 53.5 -17.5t45.5 -17.5q19 0 22 33h85q-4 -59 -32 -89.5t-74 -30.5 q-22 0 -53.5 18t-45.5 18q-19 0 -23 -34z" />
<glyph unicode="&#x16a;" horiz-adv-x="697" d="M67 267v431h140v-432q0 -71 37 -108.5t104 -37.5q68 0 105 37.5t37 108.5v432h141v-431q0 -132 -81.5 -203t-203.5 -71q-121 0 -200 71t-79 203zM158 777v100h382v-100h-382z" />
<glyph unicode="&#x16b;" horiz-adv-x="661" d="M592 554v-554h-141v70q-27 -36 -70.5 -56.5t-94.5 -20.5q-99 0 -160.5 62.5t-61.5 173.5v325h140v-305q0 -66 33 -101.5t90 -35.5q58 0 91 35.5t33 101.5v305h141zM140 632v100h382v-100h-382z" />
<glyph unicode="&#x16c;" horiz-adv-x="697" d="M67 267v431h140v-432q0 -71 37 -108.5t104 -37.5q68 0 105 37.5t37 108.5v432h141v-431q0 -132 -81.5 -203t-203.5 -71q-121 0 -200 71t-79 203zM508 897q0 -72 -43 -113t-117 -41q-72 0 -115.5 41.5t-43.5 113.5v20h74q0 -34 19 -51.5t66 -17.5t66 17.5t19 51.5h75v-21z " />
<glyph unicode="&#x16d;" horiz-adv-x="661" d="M592 554v-554h-141v70q-27 -36 -70.5 -56.5t-94.5 -20.5q-99 0 -160.5 62.5t-61.5 173.5v325h140v-305q0 -66 33 -101.5t90 -35.5q58 0 91 35.5t33 101.5v305h141zM491 752q0 -72 -43 -113t-117 -41q-72 0 -115.5 41.5t-43.5 113.5v20h74q0 -34 19 -51.5t66 -17.5 t66 17.5t19 51.5h75v-21z" />
<glyph unicode="&#x16e;" horiz-adv-x="697" d="M67 267v431h140v-432q0 -71 37 -108.5t104 -37.5q68 0 105 37.5t37 108.5v432h141v-431q0 -132 -81.5 -203t-203.5 -71q-121 0 -200 71t-79 203zM349 977q50 0 83.5 -31.5t33.5 -83.5t-33.5 -83.5t-83.5 -31.5q-49 0 -83 31.5t-34 83.5t34 83.5t83 31.5zM349 812 q20 0 34 14.5t14 35.5q0 23 -14 36.5t-34 13.5t-34 -13.5t-14 -36.5q0 -21 14 -35.5t34 -14.5z" />
<glyph unicode="&#x16f;" horiz-adv-x="661" d="M592 554v-554h-141v70q-27 -36 -70.5 -56.5t-94.5 -20.5q-99 0 -160.5 62.5t-61.5 173.5v325h140v-305q0 -66 33 -101.5t90 -35.5q58 0 91 35.5t33 101.5v305h141zM331 667q20 0 34 14.5t14 35.5q0 23 -14 36.5t-34 13.5t-34 -13.5t-14 -36.5q0 -21 14 -35.5t34 -14.5z M331 832q50 0 83.5 -31.5t33.5 -83.5t-33.5 -83.5t-83.5 -31.5q-49 0 -83 31.5t-34 83.5t34 83.5t83 31.5z" />
<glyph unicode="&#x170;" horiz-adv-x="697" d="M67 267v431h140v-432q0 -71 37 -108.5t104 -37.5q68 0 105 37.5t37 108.5v432h141v-431q0 -132 -81.5 -203t-203.5 -71q-121 0 -200 71t-79 203zM277 934h116l-100 -188h-88zM462 934h116l-109 -188h-89z" />
<glyph unicode="&#x171;" horiz-adv-x="661" d="M592 554v-554h-141v70q-27 -36 -70.5 -56.5t-94.5 -20.5q-99 0 -160.5 62.5t-61.5 173.5v325h140v-305q0 -66 33 -101.5t90 -35.5q58 0 91 35.5t33 101.5v305h141zM259 789h116l-100 -188h-88zM444 789h116l-109 -188h-89z" />
<glyph unicode="&#x172;" horiz-adv-x="697" d="M67 267v431h140v-432q0 -71 37 -108.5t104 -37.5q68 0 105 37.5t37 108.5v432h141v-431q0 -109 -57 -176.5t-149 -88.5v-1l-47 -24q-62 -31 -62 -66q0 -18 13.5 -29t36.5 -11q32 0 71 15v-84q-43 -15 -89 -15q-59 0 -99.5 27.5t-40.5 83.5q0 59 58 104 q-90 21 -144.5 88.5t-54.5 176.5z" />
<glyph unicode="&#x173;" horiz-adv-x="661" d="M592 554v-554v-1l-47 -24q-62 -31 -62 -66q0 -18 13.5 -29t36.5 -11q32 0 71 15v-84q-43 -15 -89 -15q-59 0 -99.5 27.5t-40.5 83.5q0 68 76 116v58q-27 -36 -70.5 -56.5t-94.5 -20.5q-99 0 -160.5 62.5t-61.5 173.5v325h140v-305q0 -66 33 -101.5t90 -35.5q58 0 91 35.5 t33 101.5v305h141z" />
<glyph unicode="&#x174;" horiz-adv-x="1024" d="M210 -1l-188 699h150l123 -542l142 542h156l134 -539l124 539h151l-195 -698h-165l-131 497l-137 -497zM657 844v-102l-148 84l-149 -84v102l149 81z" />
<glyph unicode="&#x175;" horiz-adv-x="844" d="M170 0l-163 554h142l98 -422l106 422h148l104 -421l98 421h134l-162 -554h-151l-101 387l-101 -387h-152zM571 695v-102l-148 84l-149 -84v102l149 81z" />
<glyph unicode="&#x176;" horiz-adv-x="636" d="M248 243l-237 455h158l150 -319l149 319h156l-236 -455v-243h-140v243zM467 840v-102l-148 84l-149 -84v102l149 81z" />
<glyph unicode="&#x177;" horiz-adv-x="605" d="M305 167l145 387h149l-343 -816h-149l120 276l-222 540h157zM451 695v-102l-148 84l-149 -84v102l149 81z" />
<glyph unicode="&#x178;" horiz-adv-x="636" d="M248 243l-237 455h158l150 -319l149 319h156l-236 -455v-243h-140v243zM225 765q-28 0 -47 19t-19 47t19 47.5t47 19.5t47.5 -19.5t19.5 -47.5t-19.5 -47t-47.5 -19zM410 765q-28 0 -47 19t-19 47t19 47.5t47 19.5t47.5 -19.5t19.5 -47.5t-19.5 -47t-47.5 -19z" />
<glyph unicode="&#x179;" horiz-adv-x="576" d="M526 698v-108l-314 -472h314v-118h-476v108l312 472h-312v118h476zM167 838l230 119v-114l-230 -105v100z" />
<glyph unicode="&#x17a;" horiz-adv-x="483" d="M441 554v-113l-244 -326h247v-115h-406v113l242 326h-241v115h402zM122 693l230 119v-114l-230 -105v100z" />
<glyph unicode="&#x17b;" horiz-adv-x="576" d="M526 698v-108l-314 -472h314v-118h-476v108l312 472h-312v118h476zM287 765q-28 0 -47 19t-19 47t19 47.5t47 19.5t47.5 -19.5t19.5 -47.5t-19.5 -47t-47.5 -19z" />
<glyph unicode="&#x17c;" horiz-adv-x="483" d="M441 554v-113l-244 -326h247v-115h-406v113l242 326h-241v115h402zM243 620q-28 0 -47 19t-19 47t19 47.5t47 19.5t47.5 -19.5t19.5 -47.5t-19.5 -47t-47.5 -19z" />
<glyph unicode="&#x17d;" horiz-adv-x="576" d="M526 698v-108l-314 -472h314v-118h-476v108l312 472h-312v118h476zM288 835l148 86v-102l-148 -81l-149 81v102z" />
<glyph unicode="&#x17e;" horiz-adv-x="483" d="M441 554v-113l-244 -326h247v-115h-406v113l242 326h-241v115h402zM244 690l148 86v-102l-148 -81l-149 81v102z" />
<glyph unicode="&#x18f;" horiz-adv-x="781" d="M390 121q77 0 130.5 44t60.5 120h-382q3 -74 56 -119t135 -45zM391 -7q-152 0 -244.5 90t-92.5 247q0 36 4 65h523q-5 86 -57.5 137t-132.5 51q-61 0 -106 -27.5t-65 -76.5h-156q33 105 119.5 168t206.5 63q152 0 246.5 -99t94.5 -260q0 -160 -93.5 -259t-246.5 -99z" />
<glyph unicode="&#x192;" horiz-adv-x="334" d="M88 585q11 100 70 146t175 46l-12 -118q-46 0 -67 -17t-25 -57l-3 -31h91l-11 -115h-93l-54 -511q-9 -91 -58.5 -129.5t-135.5 -38.5h-24l12 118h21q39 0 45 50l54 511h-60l12 115h60z" />
<glyph unicode="&#x1a0;" horiz-adv-x="785" d="M750 351q0 -156 -103 -257t-254 -101q-150 0 -254 101.5t-104 256.5t104 256t254 101q37 0 79 -8q7 0 17 -1t16.5 -1.5t7.5 -0.5q54 2 75 24.5t23 66.5h106q-3 -120 -97 -158q61 -48 95.5 -120.5t34.5 -158.5zM179 351q0 -106 59 -169.5t155 -63.5q95 0 154 63.5 t59 169.5t-59 168.5t-154 62.5q-96 0 -155 -62.5t-59 -168.5z" />
<glyph unicode="&#x1a1;" horiz-adv-x="638" d="M604 277q0 -128 -83 -207t-206 -79q-122 0 -201.5 78.5t-79.5 207.5t81 207.5t204 78.5q42 0 84 -11h8q56 1 78 24t24 67h106q-3 -119 -97 -158q82 -80 82 -208zM176 277q0 -79 39.5 -121.5t99.5 -42.5t102.5 43t42.5 121q0 79 -41.5 121.5t-101.5 42.5t-100.5 -42.5 t-40.5 -121.5z" />
<glyph unicode="&#x1af;" horiz-adv-x="697" d="M67 267v431h140v-432q0 -71 37 -108.5t104 -37.5q68 0 105 37.5t37 108.5v432h66q47 4 65.5 26t20.5 64h106q-3 -131 -117 -165v-356q0 -132 -81.5 -203t-203.5 -71q-121 0 -200 71t-79 203z" />
<glyph unicode="&#x1b0;" horiz-adv-x="661" d="M606 643h106q-3 -134 -120 -166v-477h-141v70q-27 -36 -70.5 -56.5t-94.5 -20.5q-99 0 -160.5 62.5t-61.5 173.5v325h140v-305q0 -66 33 -101.5t90 -35.5q58 0 91 35.5t33 101.5v305h78q42 6 58.5 28t18.5 61z" />
<glyph unicode="&#x1fc;" horiz-adv-x="937" d="M417 839l230 119v-114l-230 -105v100zM476 597l-188 -358h188v358zM879 589h-262v-180h232v-108h-232v-190h262v-111h-403v131h-245l-69 -131h-153l372 699h498v-110z" />
<glyph unicode="&#x1fd;" horiz-adv-x="1080" d="M759 448q-55 0 -95.5 -33.5t-50.5 -91.5h287q-1 57 -41 91t-100 34zM1030 174q-23 -80 -86 -131.5t-153 -51.5q-61 0 -111.5 25t-79.5 66v-82h-128v82q-70 -91 -186 -91q-108 0 -180.5 80t-72.5 208t73 206t185 78q116 0 183 -87v78h126v-78q70 87 191 87q112 0 183 -76 t71 -197q0 -22 -5 -52h-427q8 -63 49.5 -97t93.5 -34q96 0 123 67h151zM176 279q0 -75 43 -120t103 -45q61 0 104 44t43 119t-43 119t-104 44q-60 0 -103 -43t-43 -118zM467 693l230 119v-114l-230 -105v100z" />
<glyph unicode="&#x218;" horiz-adv-x="624" d="M252 -43h116q17 -57 17 -108q0 -66 -32 -102t-94 -36v57q50 0 50 62v18h-57v109zM557 202q0 -87 -66.5 -148t-180.5 -61q-112 0 -185 55.5t-74 152.5h150q3 -43 30.5 -68t75.5 -25q49 0 77 23.5t28 61.5q0 30 -20 51t-51.5 33t-70 22.5t-77 25t-70 35t-51 58t-19.5 88.5 q0 93 68 147.5t178 54.5q108 0 175.5 -52.5t74.5 -146.5h-154q-2 36 -29 59t-71 24q-43 2 -69.5 -19.5t-26.5 -62.5q0 -28 19.5 -48t51.5 -31.5t70 -22.5t76 -26t70 -35.5t51.5 -57.5t19.5 -87z" />
<glyph unicode="&#x219;" horiz-adv-x="545" d="M212 -43h116q16 -58 16 -108q0 -66 -31.5 -102t-93.5 -36v57q50 0 50 62v18h-57v109zM499 158q0 -73 -59.5 -120t-158.5 -47q-103 0 -170 52.5t-72 131.5h141q4 -32 31.5 -53t68.5 -21q40 0 62.5 16t22.5 41q0 27 -32 43t-78 26.5t-92.5 25.5t-78.5 51.5t-32 92.5 q0 71 59.5 118.5t159.5 47.5q99 0 158 -49.5t65 -133.5h-134q-3 33 -27.5 52.5t-65.5 19.5q-38 0 -58.5 -14t-20.5 -39q0 -23 23 -39t57 -23.5t74 -20t74.5 -28t58 -49t24.5 -81.5z" />
<glyph unicode="&#x21a;" horiz-adv-x="577" d="M228 -43h116q16 -58 16 -108q0 -66 -31.5 -102t-93.5 -36v57q51 0 51 62v18h-58v109zM32 585v113h512v-113h-186v-585h-140v585h-186z" />
<glyph unicode="&#x21b;" horiz-adv-x="388" d="M136 -43h116q17 -57 17 -108q0 -66 -32 -102t-94 -36v57q50 0 50 62v18h-57v109zM91 172v267h-66v115h66v137h141v-137h124v-115h-124v-268q0 -28 13.5 -40.5t45.5 -12.5h65v-118h-88q-177 0 -177 172z" />
<glyph unicode="&#x259;" horiz-adv-x="617" d="M310 106q51 0 87 31.5t44 87.5h-263q1 -54 39 -86.5t93 -32.5zM306 -9q-121 0 -197 75.5t-76 198.5q0 30 4 54h405q-5 60 -42 94t-91 34q-78 0 -111 -67h-151q24 80 92 131.5t167 51.5q122 0 200 -78.5t78 -207.5q0 -130 -77 -208t-201 -78z" />
<glyph unicode="&#x2bc;" horiz-adv-x="275" d="M136 446h-96l57 252h147z" />
<glyph unicode="&#x2c6;" horiz-adv-x="317" d="M307 695v-102l-148 84l-149 -84v102l149 81z" />
<glyph unicode="&#x2c7;" horiz-adv-x="317" d="M159 690l148 86v-102l-148 -81l-149 81v102z" />
<glyph unicode="&#x2c9;" horiz-adv-x="402" d="M10 632v100h382v-100h-382z" />
<glyph unicode="&#x2d8;" horiz-adv-x="339" d="M329 752q0 -72 -43 -113t-117 -41q-72 0 -115.5 41.5t-43.5 113.5v20h74q0 -34 19 -51.5t66 -17.5t66 17.5t19 51.5h75v-21z" />
<glyph unicode="&#x2d9;" horiz-adv-x="153" d="M76 620q-28 0 -47 19t-19 47t19 47.5t47 19.5t47.5 -19.5t19.5 -47.5t-19.5 -47t-47.5 -19z" />
<glyph unicode="&#x2da;" horiz-adv-x="249" d="M125 832q50 0 83.5 -31.5t33.5 -83.5t-33.5 -83.5t-83.5 -31.5q-49 0 -83 31.5t-34 83.5t34 83.5t83 31.5zM125 667q20 0 34 14.5t14 35.5q0 23 -14 36.5t-34 13.5t-34 -13.5t-14 -36.5q0 -21 14 -35.5t34 -14.5z" />
<glyph unicode="&#x2db;" horiz-adv-x="251" d="M156 49l40 18l33 -67l-47 -24q-62 -31 -62 -66q0 -18 13.5 -29t36.5 -11q32 0 71 15v-84q-43 -15 -89 -15q-59 0 -99.5 27.5t-40.5 83.5q0 44 32.5 81t111.5 71z" />
<glyph unicode="&#x2dc;" horiz-adv-x="381" d="M8 607q19 131 124 131q31 0 68 -22t55 -22q37 0 43 43h75q-19 -131 -124 -131q-31 0 -68 22.5t-55 22.5q-37 0 -44 -44h-74z" />
<glyph unicode="&#x2dd;" horiz-adv-x="401" d="M82 789h116l-100 -188h-88zM267 789h116l-109 -188h-89z" />
<glyph unicode="&#x300;" horiz-adv-x="6" d="M-339 971l78 56l99 -118l-75 -49z" />
<glyph unicode="&#x301;" horiz-adv-x="6" d="M-205 1027l78 -56l-102 -111l-75 49z" />
<glyph unicode="&#x303;" horiz-adv-x="5" d="M-422 912h-84q4 51 33 80.5t73 29.5q24 0 53.5 -16.5t45.5 -16.5q19 0 22 31h85q-4 -54 -32 -82t-74 -28q-22 0 -53.5 16.5t-45.5 16.5q-19 0 -23 -31z" />
<glyph unicode="&#x309;" horiz-adv-x="5" d="M-326 954v1q3 38 33.5 58t80.5 20q45 0 73 -21t28 -54q0 -32 -22 -50.5t-48 -23.5l-1 -17h-71l-1 60q70 0 70 31q0 9 -8.5 15.5t-20.5 6.5q-33 0 -39 -26h-74z" />
<glyph unicode="&#x323;" horiz-adv-x="5" d="M-377 -236q-34 0 -56.5 22t-22.5 54t22.5 53.5t56.5 21.5t57 -21.5t23 -53.5t-23 -54t-57 -22z" />
<glyph unicode="&#x3c0;" horiz-adv-x="706" d="M26 446v108h652v-108h-74v-446h-140v446h-224v-446h-141v446h-73z" />
<glyph unicode="&#x901;" horiz-adv-x="0" d="M-161 814q-109 0 -167.5 53.5t-58.5 143.5h103q0 -43 32.5 -74t90.5 -31q57 0 89 31t32 74h104q0 -90 -58.5 -143.5t-166.5 -53.5zM-162 984q-22 0 -37.5 16t-15.5 38t15.5 37.5t37.5 15.5q23 0 38.5 -15.5t15.5 -37.5q0 -23 -15.5 -38.5t-38.5 -15.5z" />
<glyph unicode="&#x902;" horiz-adv-x="0" d="M-156 822q-33 0 -55.5 22.5t-22.5 54.5q0 33 22.5 55.5t55.5 22.5t55.5 -22.5t22.5 -55.5q0 -32 -22.5 -54.5t-55.5 -22.5z" />
<glyph unicode="&#x903;" horiz-adv-x="262" d="M131 400q-33 0 -56 22.5t-23 54.5q0 33 23 55.5t56 22.5q32 0 55 -22.5t23 -55.5q0 -32 -23 -54.5t-55 -22.5zM131 104q-33 0 -56 22.5t-23 55.5q0 32 23 54.5t56 22.5q32 0 55 -22.5t23 -54.5q0 -33 -23 -55.5t-55 -22.5z" />
<glyph unicode="&#x905;" horiz-adv-x="835" d="M273 465q48 0 75 25t27 61q0 40 -25.5 64.5t-63.5 24.5q-41 0 -68 -24t-27 -62h-119q0 88 59 141.5t155 53.5q92 0 148 -49t56 -131q0 -55 -29 -95.5t-82 -56.5v-2q26 -5 50 -21h186v346h240v-108h-111v-632h-129v287l-117 1q3 -20 3 -37q0 -88 -56 -141t-149 -53 q-103 0 -167 57.5t-64 150.5h121q0 -42 28 -69.5t73 -27.5t71 26t26 69q0 41 -28 69.5t-83 28.5h-43v104h43z" />
<glyph unicode="&#x906;" horiz-adv-x="1139" d="M273 465q48 0 75 25t27 61q0 40 -25.5 64.5t-63.5 24.5q-41 0 -68 -24t-27 -62h-119q0 88 59 141.5t155 53.5q92 0 148 -49t56 -131q0 -55 -29 -95.5t-82 -56.5v-2q26 -5 50 -21h186v346h550v-108h-111v-632h-129v632h-181v-632h-129v287l-117 1q3 -20 3 -37 q0 -88 -56 -141t-149 -53q-103 0 -167 57.5t-64 150.5h121q0 -42 28 -69.5t73 -27.5t71 26t26 69q0 41 -28 69.5t-83 28.5h-43v104h43z" />
<glyph unicode="&#x907;" horiz-adv-x="579" d="M-27 632v108h633v-108h-139v-183h-181q-88 0 -88 -61q0 -59 79 -59h44q88 0 147 -41.5t59 -134.5q0 -74 -46.5 -121.5t-129.5 -47.5q-96 0 -143 67v-132h-122v256h116q4 -44 33.5 -69.5t78.5 -25.5q44 0 67.5 21.5t23.5 54.5q0 82 -108 82h-59q-71 3 -120 40t-49 111 q0 78 52 115.5t131 37.5h91v90h-370z" />
<glyph unicode="&#x908;" horiz-adv-x="579" d="M208 51v-132h-122v256h116q4 -44 33.5 -69.5t78.5 -25.5q44 0 67.5 21.5t23.5 54.5q0 82 -108 82h-59q-71 3 -120 40t-49 111q0 78 52 115.5t131 37.5h91v90h-370v108h372v68q0 90 44 149t142 59q89 0 137 -51.5t44 -139.5h-113q1 38 -16.5 60.5t-48.5 22.5 q-69 0 -69 -99v-69h141v-108h-139v-183h-181q-88 0 -88 -61q0 -59 79 -59h44q88 0 147 -41.5t59 -134.5q0 -74 -46.5 -121.5t-129.5 -47.5q-96 0 -143 67z" />
<glyph unicode="&#x909;" horiz-adv-x="569" d="M-21 632v108h611v-108h-101v-77q0 -60 -27.5 -100t-71.5 -49v-2q57 -15 91.5 -65.5t34.5 -118.5q0 -97 -60 -157t-165 -60q-109 0 -178 63t-69 168h123q0 -50 33.5 -82.5t84.5 -32.5q50 0 79.5 31t29.5 80q0 47 -29 81t-87 34h-55v113h37q50 0 77.5 27.5t27.5 76.5v70 h-386z" />
<glyph unicode="&#x90a;" horiz-adv-x="857" d="M-21 632v108h898v-108h-388v-77q0 -60 -27.5 -100t-71.5 -49v-2h189q107 0 170 -49t63 -148q0 -87 -51.5 -136t-140.5 -49q-22 0 -54 5v98q11 -1 32 -1q41 0 65.5 21.5t24.5 66.5t-29.5 67t-77.5 22h-84q18 -39 18 -88q0 -92 -60.5 -151t-163.5 -59q-109 0 -178 63 t-69 168h123q0 -50 33.5 -82.5t84.5 -32.5q50 0 79.5 31t29.5 80q0 47 -29 81t-87 34h-55v113h37q50 0 77.5 27.5t27.5 76.5v70h-386z" />
<glyph unicode="&#x90b;" horiz-adv-x="1040" d="M485 0v209l-220 -209h-163v6l382 331q-12 45 -48 72t-87 27q-70 0 -112 -43.5t-42 -115.5h-129q0 120 66.5 194t178.5 74q114 0 174 -80v167h-506v108h1082v-108h-457v-186h158q71 0 71 62v45h111v-351h-23q-47 0 -71.5 -23.5t-24.5 -60.5q0 -82 101 -82q25 0 57 8v-103 q-40 -8 -75 -8q-91 0 -149 45.5t-58 127.5q0 64 35.5 107t96.5 59v89q-38 -17 -90 -17h-139v-344h-119z" />
<glyph unicode="&#x90c;" horiz-adv-x="904" d="M-21 632v108h945v-108h-223v-106q65 -20 104.5 -79t39.5 -148q0 -52 -16 -100h-7q-57 0 -84.5 -23.5t-27.5 -61.5q0 -41 28.5 -60.5t74.5 -19.5q34 0 58 7v-103q-40 -7 -74 -7q-94 0 -152.5 45.5t-58.5 131.5q0 58 36 101t92 57q2 22 2 34q0 54 -26.5 88t-74.5 34 q-53 0 -79.5 -39.5t-26.5 -103.5v-25h-108v25q0 63 -26 103t-77 40q-52 0 -80 -34.5t-28 -90.5q0 -65 33.5 -100.5t93.5 -35.5q7 0 27 2v-113q-13 -1 -34 -1q-120 0 -185.5 68t-65.5 182q0 113 62.5 175t158.5 62q68 0 110.5 -36t61.5 -91h3q33 95 121 119v104h-597z" />
<glyph unicode="&#x90d;" horiz-adv-x="652" d="M-21 632v108h694v-108h-97v-93q0 -117 -52.5 -169.5t-172.5 -37.5v116q52 -6 76 17t24 78v89h-232v-366q0 -66 31 -101.5t87 -35.5q53 0 83 31t30 86h126q0 -107 -63.5 -167t-172.5 -60q-123 0 -186.5 68t-63.5 184l-1 361h-110zM328 826q-112 0 -169 54.5t-57 142.5h111 q0 -43 28.5 -72t86.5 -29q57 0 86 29t29 72h110q0 -88 -56.5 -142.5t-168.5 -54.5z" />
<glyph unicode="&#x90f;" horiz-adv-x="652" d="M-21 632v108h694v-108h-97v-93q0 -117 -52.5 -169.5t-172.5 -37.5v116q52 -6 76 17t24 78v89h-232v-366q0 -66 31 -101.5t87 -35.5q53 0 83 31t30 86h126q0 -107 -63.5 -167t-172.5 -60q-123 0 -186.5 68t-63.5 184l-1 361h-110z" />
<glyph unicode="&#x910;" horiz-adv-x="652" d="M340 19q-123 0 -186.5 68t-63.5 184l-1 361h-110v108h468q-62 98 -98 123t-106 25h-49v105h46q49 0 79 -5t62 -18.5t59.5 -42t58.5 -73t71 -114.5h103v-108h-97v-93q0 -117 -52.5 -169.5t-172.5 -37.5v116q52 -6 76 17t24 78v89h-232v-366q0 -66 31 -101.5t87 -35.5 q53 0 83 31t30 86h126q0 -107 -63.5 -167t-172.5 -60z" />
<glyph unicode="&#x911;" horiz-adv-x="1144" d="M273 465q48 0 75 25t27 61q0 40 -25.5 64.5t-63.5 24.5q-41 0 -68 -24t-27 -62h-119q0 88 59 141.5t155 53.5q92 0 148 -49t56 -131q0 -55 -29 -95.5t-82 -56.5v-2q26 -5 50 -21h186v346h550v-108h-111v-632h-129v632h-181v-632h-129v287l-117 1q3 -20 3 -37 q0 -88 -56 -141t-149 -53q-103 0 -167 57.5t-64 150.5h121q0 -42 28 -69.5t73 -27.5t71 26t26 69q0 41 -28 69.5t-83 28.5h-43v104h43zM838 826q-112 0 -169 54.5t-57 142.5h111q0 -43 28.5 -72t86.5 -29q57 0 86 29t29 72h110q0 -88 -56.5 -142.5t-168.5 -54.5z" />
<glyph unicode="&#x913;" horiz-adv-x="1144" d="M744 0h-129v287l-117 1q3 -20 3 -37q0 -88 -56 -141t-149 -53q-103 0 -167 57.5t-64 150.5h121q0 -42 28 -69.5t73 -27.5t71 26t26 69q0 41 -28 69.5t-83 28.5h-43v104h43q48 0 75 25t27 61q0 40 -25.5 64.5t-63.5 24.5q-41 0 -68 -24t-27 -62h-119q0 88 59 141.5 t155 53.5q92 0 148 -49t56 -131q0 -55 -29 -95.5t-82 -56.5v-2q26 -5 50 -21h186v346h310q-62 98 -98 123t-106 25h-49v105h46q49 0 79 -5t62 -18.5t59.5 -42t58.5 -73t71 -114.5h117v-108h-111v-632h-129v632h-181v-632z" />
<glyph unicode="&#x914;" horiz-adv-x="1144" d="M744 0h-129v287l-117 1q3 -20 3 -37q0 -88 -56 -141t-149 -53q-103 0 -167 57.5t-64 150.5h121q0 -42 28 -69.5t73 -27.5t71 26t26 69q0 41 -28 69.5t-83 28.5h-43v104h43q48 0 75 25t27 61q0 40 -25.5 64.5t-63.5 24.5q-41 0 -68 -24t-27 -62h-119q0 88 59 141.5 t155 53.5q92 0 148 -49t56 -131q0 -55 -29 -95.5t-82 -56.5v-2q26 -5 50 -21h186v346h318q-83 57 -113.5 67.5t-109.5 10.5h-50v81h47q78 0 113 -10t93 -56q-38 68 -72 100.5t-58.5 38.5t-70.5 6h-52v82h50q41 0 64 -2t51.5 -13t47.5 -29.5t47 -56.5t56 -88.5t69 -130.5h120 v-108h-111v-632h-129v632h-181v-632z" />
<glyph unicode="&#x915;" horiz-adv-x="976" d="M433 0v162q-50 -85 -165 -85q-95 0 -152 64t-57 169t58.5 168.5t155.5 63.5q109 0 160 -81v171h-454v108h1017v-108h-439v-173q47 83 155 83q93 0 149 -65t56 -164q0 -106 -57.5 -167t-149.5 -61q-35 0 -66 7v102q12 -4 31 -4q49 0 80 32t31 88q0 53 -32 87t-82 34 q-56 0 -85.5 -38t-29.5 -92v-301h-124zM311 185q58 0 90 37.5t32 86.5q0 50 -31.5 86.5t-89.5 36.5q-52 0 -87 -34t-35 -89q0 -56 34 -90t87 -34z" />
<glyph unicode="&#x916;" horiz-adv-x="950" d="M629 220q49 0 76 32t27 75q-1 43 -27 74.5t-76 31.5q-46 0 -76.5 -28.5t-30.5 -76.5q0 -51 30.5 -79.5t76.5 -28.5zM601 121q-11 0 -33 2q-34 -58 -91.5 -93t-134.5 -35q-125 0 -197.5 71t-72.5 198v137h30q67 0 102 32t35 106v93h-260v108h992v-108h-111v-632h-128v181 q-43 -60 -131 -60zM345 106q83 0 124 64q-62 59 -62 158q0 90 55 147t139 57q86 0 131 -60v160h-363v-110q0 -100 -46 -153t-123 -59v-61q0 -64 38.5 -103.5t106.5 -39.5z" />
<glyph unicode="&#x917;" horiz-adv-x="789" d="M569 0v632h-145v-242q0 -89 -47 -144.5t-143 -55.5q-93 0 -143.5 51t-50.5 142q0 21 1 31h125v-31q0 -83 65 -83q63 0 63 84v248h-315v108h830v-108h-111v-632h-129z" />
<glyph unicode="&#x918;" horiz-adv-x="703" d="M322 204q69 0 115.5 43t46.5 111v274h-269v-52q0 -97 108 -97h42v-104h-52q-55 0 -82.5 -23.5t-27.5 -61.5q0 -44 33 -67t86 -23zM-21 632v108h745v-108h-110v-632h-130v189q-64 -91 -193 -91q-96 0 -157.5 48t-61.5 135q0 58 34 97t83 50v3q-103 23 -103 143v58h-107z " />
<glyph unicode="&#x919;" horiz-adv-x="686" d="M601 308q-30 0 -50.5 20.5t-20.5 49.5q0 30 20.5 50.5t50.5 20.5t50.5 -20.5t20.5 -50.5q0 -29 -20.5 -49.5t-50.5 -20.5zM-21 632v108h728v-108h-236v-183h-182q-87 0 -87 -60t78 -60h45q86 0 145.5 -41.5t59.5 -131.5q0 -80 -57 -127t-162 -47q-111 0 -180 51.5 t-73 141.5h129q1 -44 33.5 -69.5t86.5 -25.5q48 0 74.5 21t26.5 56q0 81 -107 81h-37q-34 0 -64.5 6.5t-60.5 22.5t-48 48.5t-18 77.5q0 74 51.5 110.5t130.5 36.5h91v92h-367z" />
<glyph unicode="&#x91a;" horiz-adv-x="746" d="M-21 632v108h788v-108h-111v-632h-129v176q-60 -87 -181 -87q-90 0 -149 52t-59 142q0 85 62 133h-150v102h367v-102h-39q-53 0 -85.5 -31t-32.5 -80q0 -51 35.5 -80t88.5 -29q65 1 104 47t39 118v271h-548z" />
<glyph unicode="&#x91b;" horiz-adv-x="821" d="M-21 632v108h863v-108h-200v-97q62 -17 98.5 -69.5t36.5 -133.5q0 -143 -101 -226t-276 -83q-152 0 -243 56.5t-91 164.5q0 62 32.5 102t88.5 56v3q-103 22 -103 143v84h-105zM401 133q123 0 193 53.5t70 150.5q0 51 -23.5 81t-58.5 30q-33 0 -56 -24t-23 -69 q0 -36 15 -83h-107q-16 43 -16 97q0 70 35 111.5t93 55.5v96h-310v-79q0 -96 100 -96h20v-104h-18q-58 0 -88 -27t-30 -70q0 -60 51.5 -91.5t152.5 -31.5z" />
<glyph unicode="&#x91c;" horiz-adv-x="852" d="M-21 632v108h894v-108h-111v-632h-129v382h-143v-55q0 -96 -58 -155.5t-156 -59.5q-103 0 -159.5 59t-56.5 156v165h131v-162q0 -48 22.5 -76.5t62.5 -28.5q42 0 65 28t23 77v162h269v140h-654z" />
<glyph unicode="&#x91d;" horiz-adv-x="862" d="M277 329h368v303h-178v-183h-181q-88 0 -88 -61q0 -59 79 -59zM645 0v232h-148q27 -37 27 -92q0 -67 -44 -109.5t-124 -42.5q-91 0 -144 62v-131h-122v251h116q4 -38 33 -62.5t78 -24.5q43 0 65.5 21t22.5 52q0 39 -27.5 60.5t-80.5 21.5h-59q-71 3 -120 40t-49 111 q0 78 52 115.5t131 37.5h91v90h-364v108h903v-108h-111v-632h-126z" />
<glyph unicode="&#x91e;" horiz-adv-x="825" d="M-21 632v108h867v-108h-111v-632h-129v256h-90q-14 -87 -74.5 -138t-153.5 -51q-97 0 -159 52t-70 135h122q9 -34 37.5 -56t70.5 -22q55 0 85 37t30 93q0 54 -30.5 91t-84.5 37q-42 0 -70.5 -22.5t-37.5 -55.5h-122q8 84 69.5 136t159.5 52q91 0 150.5 -48.5t75.5 -130.5 h92v267h-627z" />
<glyph unicode="&#x91f;" horiz-adv-x="648" d="M-21 632v108h689v-108h-188v-200h-123q-74 0 -121 -38.5t-47 -110.5q0 -63 41.5 -103t107.5 -40q68 0 109.5 42t41.5 108h123q0 -118 -74.5 -190t-197.5 -72q-124 0 -202.5 70.5t-78.5 184.5q0 120 78.5 189t211.5 69h5v91h-375z" />
<glyph unicode="&#x920;" horiz-adv-x="673" d="M336 144q67 0 108.5 41t41.5 105t-41.5 104.5t-108.5 40.5q-65 0 -106.5 -40.5t-41.5 -104.5t41.5 -105t106.5 -41zM336 36q-120 0 -198.5 69.5t-78.5 184.5q0 101 59.5 165.5t152.5 82.5v94h-292v108h714v-108h-294v-94q94 -17 154.5 -82t60.5 -166q0 -115 -79 -184.5 t-199 -69.5z" />
<glyph unicode="&#x921;" horiz-adv-x="569" d="M-21 632v108h610v-108h-122v-183h-178q-87 0 -87 -60t78 -60h45q86 0 145.5 -41.5t59.5 -131.5q0 -80 -57 -127t-162 -47q-111 0 -180 51.5t-73 141.5h129q1 -44 33.5 -69.5t86.5 -25.5q48 0 74.5 21t26.5 56q0 81 -107 81h-37q-34 0 -64.5 6.5t-60.5 22.5t-48 48.5 t-18 77.5q0 74 51.5 110.5t130.5 36.5h88v92h-364z" />
<glyph unicode="&#x922;" horiz-adv-x="650" d="M-21 632v108h691v-108h-170v-174h-108q-92 0 -150 -48t-58 -138q0 -80 51 -130.5t141 -50.5q62 0 102.5 29t40.5 78q0 32 -20.5 53t-51.5 21q-28 0 -47 -17.5t-19 -45.5q0 -11 3 -18h-93q-4 24 -4 36q0 65 46 101.5t119 36.5q82 0 129.5 -46t47.5 -121 q0 -93 -67.5 -146.5t-188.5 -53.5q-137 0 -225.5 75t-88.5 203q0 129 81.5 200t210.5 71h27v85h-399z" />
<glyph unicode="&#x923;" horiz-adv-x="880" d="M295 268q39 0 60.5 25t21.5 67v272h-166v-272q0 -41 22.5 -66.5t61.5 -25.5zM-21 632v108h922v-108h-111v-632h-129v632h-157v-260q0 -95 -54.5 -154t-155.5 -59q-100 0 -154.5 60t-54.5 153v260h-106z" />
<glyph unicode="&#x924;" horiz-adv-x="703" d="M-21 632v108h744v-108h-110v-632h-130v383h-133q-74 0 -117 -36t-43 -103q0 -66 38 -103.5t111 -37.5h20v-101h-40q-116 0 -188 62t-72 183q0 124 79 185.5t206 61.5h139v138h-504z" />
<glyph unicode="&#x925;" horiz-adv-x="783" d="M564 0v204q-23 -48 -81 -81.5t-140 -33.5q-128 0 -203.5 75t-75.5 205q0 37 5 64h91q193 0 193 123q0 36 -21 59.5t-57 23.5q-38 0 -60 -23.5t-22 -63.5q0 -14 4 -38h-117q-4 26 -4 41q0 91 56.5 142.5t143.5 51.5q89 0 143.5 -54.5t54.5 -142.5q0 -100 -69.5 -156 t-194.5 -56h-21q4 -64 47 -104t126 -40q87 0 144.5 55t57.5 152v337h240v-108h-111v-632h-129z" />
<glyph unicode="&#x926;" horiz-adv-x="611" d="M-21 632v108h653l-1 -108h-125v-202h-167q-66 0 -107 -34t-41 -95q0 -55 33 -87.5t88 -32.5q45 0 77.5 28t32.5 80h119v-316h-126v165q-46 -60 -140 -60q-93 0 -154.5 59.5t-61.5 167.5q0 112 74.5 174t192.5 62h50v91h-397z" />
<glyph unicode="&#x927;" horiz-adv-x="724" d="M300 85q-96 0 -159 47t-63 132q0 60 35 97.5t82 46.5v4q-53 14 -89 56t-36 109q0 77 50.5 124.5t130.5 47.5q82 0 128.5 -45.5t46.5 -119.5q0 -16 -2 -38h-96q1 12 1 22q0 32 -20 52.5t-54 20.5t-54.5 -22t-20.5 -56q0 -48 38.5 -73.5t97.5 -25.5h59v-104h-53 q-54 0 -83.5 -22t-29.5 -60q0 -42 33.5 -64t89.5 -22q81 0 131 51t50 134v363h238v-108h-109v-632h-129v185q-67 -100 -213 -100z" />
<glyph unicode="&#x928;" horiz-adv-x="810" d="M273 196q43 0 71 27.5t28 70.5q0 42 -28 69.5t-71 27.5q-45 0 -73.5 -27.5t-28.5 -70.5t28.5 -70t73.5 -27zM-21 632v108h852v-108h-111v-632h-129v391h-151q35 -48 35 -115q0 -88 -58 -138.5t-146 -50.5q-92 0 -154 56t-62 150q0 98 64 152t163 54h309v133h-612z" />
<glyph unicode="&#x92a;" horiz-adv-x="668" d="M327 283q58 0 90.5 37.5t32.5 93.5v218h-246v-204q0 -68 30.5 -106.5t92.5 -38.5zM-21 632v108h710v-108h-111v-632h-128v241q-53 -67 -156 -67q-106 0 -163 69.5t-57 184.5v204h-95z" />
<glyph unicode="&#x92b;" horiz-adv-x="985" d="M318 283q54 0 84 35.5t30 89.5v224h-228v-210q0 -65 28.5 -102t85.5 -37zM-21 632v108h1027v-108h-445v-172q51 82 162 82q92 0 148 -63.5t56 -161.5q0 -108 -58 -170t-150 -62q-39 0 -70 9v100q18 -5 37 -5q49 0 79.5 33t30.5 88q0 53 -32 87t-82 34q-60 0 -90.5 -41 t-30.5 -103v-287h-129v239q-49 -65 -146 -65q-102 0 -157 68t-55 180v210h-95z" />
<glyph unicode="&#x92c;" horiz-adv-x="689" d="M474 0v151q-53 -80 -171 -80q-105 0 -174.5 68t-69.5 175q0 105 68.5 171.5t173.5 66.5q111 0 173 -78v158h-495v108h730v-108h-110v-632h-125zM328 467q-59 0 -101 -34l237 -191q17 36 17 73q0 62 -41 107t-112 45zM328 164q60 0 102 35l-239 191q-19 -35 -19 -76 q0 -68 45 -109t111 -41z" />
<glyph unicode="&#x92d;" horiz-adv-x="831" d="M268 185q40 0 61.5 28t21.5 76v66h-71q-44 0 -70.5 -22.5t-26.5 -62.5q0 -39 24 -62t61 -23zM270 76q-93 0 -150 53t-57 140q0 92 60 141.5t154 49.5h74v83q0 96 -68 96q-31 0 -50 -22t-19 -58q0 -18 4 -34h-130q-4 22 -4 39q0 83 50.5 134t143.5 51q194 0 194 -229v-60 h139v280h241v-108h-112v-632h-129v355h-139v-59q0 -104 -52.5 -162t-149.5 -58z" />
<glyph unicode="&#x92e;" horiz-adv-x="822" d="M247 185q40 0 62.5 28t22.5 76v66h-72q-44 0 -70.5 -22.5t-26.5 -62.5q0 -39 23.5 -62t60.5 -23zM601 460v172h-149v-172h149zM-21 632v108h863v-108h-111v-632h-130v355h-149v-59q0 -104 -52.5 -162t-150.5 -58q-93 0 -149.5 53t-56.5 140q0 92 59.5 141.5t153.5 49.5 h76v172h-353z" />
<glyph unicode="&#x92f;" horiz-adv-x="749" d="M356 201q78 0 126 48t48 123v260h-167v-77q0 -178 -175 -193q0 -73 44.5 -117t123.5 -44zM-21 632v108h791v-108h-111v-632h-129v179q-67 -86 -201 -86q-128 0 -198.5 76t-70.5 206q0 18 4 56h12q84 0 121.5 36t37.5 111v54h-256z" />
<glyph unicode="&#x930;" horiz-adv-x="533" d="M-21 632v108h574v-108h-98v-69q0 -249 -235 -249h-22v-113q0 -45 20.5 -72.5t60.5 -27.5q37 0 58.5 25.5t21.5 67.5v25h124q1 -9 1 -21q0 -95 -54 -151t-149 -56q-102 0 -156.5 60t-54.5 156v212h103q80 0 116.5 36.5t36.5 107.5v69h-347z" />
<glyph unicode="&#x931;" horiz-adv-x="533" d="M-21 632v108h574v-108h-98v-69q0 -249 -235 -249h-22v-113q0 -45 20.5 -72.5t60.5 -27.5q37 0 58.5 25.5t21.5 67.5v25h124q1 -9 1 -21q0 -95 -54 -151t-149 -56q-102 0 -156.5 60t-54.5 156v212h103q80 0 116.5 36.5t36.5 107.5v69h-347zM111 -193q-32 0 -55 22.5 t-23 54.5q0 33 23 56t55 23q33 0 56 -23t23 -56q0 -32 -23 -54.5t-56 -22.5z" />
<glyph unicode="&#x932;" horiz-adv-x="910" d="M600 44q-8 0 -34 2v113q18 -2 27 -2q59 0 93 37t34 99q0 55 -27.5 90t-77.5 35q-53 0 -79.5 -39.5t-26.5 -103.5v-21h-108v21q0 63 -26 103t-77 40q-52 0 -80 -34.5t-28 -90.5q0 -62 34 -99t93 -37q7 0 27 2v-113q-26 -2 -34 -2q-119 0 -185 69.5t-66 181.5 q0 113 62.5 174.5t158.5 61.5q130 0 173 -125h3q37 101 134 121v105h-611v108h951v-108h-213v-115q61 -23 97.5 -80.5t36.5 -141.5q0 -112 -66 -181.5t-185 -69.5z" />
<glyph unicode="&#x933;" horiz-adv-x="975" d="M305 179q53 0 86 33.5t33 85.5q0 54 -33 88t-86 34t-86.5 -34t-33.5 -89q0 -53 34 -85.5t86 -32.5zM669 179q53 0 86.5 32.5t33.5 85.5q0 55 -33 89t-86 34t-86 -34t-33 -88q0 -53 33 -86t85 -33zM688 69q-70 0 -122.5 33.5t-76.5 91.5h-4q-23 -58 -75.5 -91.5 t-122.5 -33.5q-97 0 -162.5 63.5t-65.5 165.5q0 104 65 168t162 64q137 0 200 -123h3q49 99 153 119v106h-663v108h1016v-108h-228v-115q67 -22 108 -80t41 -139q0 -102 -65.5 -165.5t-162.5 -63.5z" />
<glyph unicode="&#x935;" horiz-adv-x="670" d="M319 178q64 0 99.5 40t35.5 91v1q0 54 -35.5 93t-99.5 39q-58 0 -95.5 -36t-37.5 -95q0 -60 37.5 -96.5t95.5 -36.5zM690 632h-110v-632h-126v158q-55 -83 -169 -83q-103 0 -164.5 66.5t-61.5 172.5q0 102 62 167t164 65q114 0 169 -83v169h-475v108h711v-108z" />
<glyph unicode="&#x936;" horiz-adv-x="840" d="M305 -8q-108 0 -169 62.5t-61 168.5v185h142q79 0 130 31.5t51 98.5q0 45 -24.5 72t-66.5 27t-66 -27t-24 -72q0 -6 0.5 -18.5t0.5 -19.5h-128q-3 21 -3 42q0 92 60 149.5t160 57.5t160.5 -57.5t60.5 -161.5q0 -113 -73.5 -172t-190.5 -59h-58v-85q0 -50 23 -80t73 -30 q42 0 66 27.5t24 73.5v14h126v-16q0 -99 -57 -155t-156 -56zM619 0v740h242v-108h-111v-632h-131z" />
<glyph unicode="&#x937;" horiz-adv-x="680" d="M329 274q94 0 124 81l-254 184v-115q0 -69 32.5 -109.5t97.5 -40.5zM463 440v192h-262zM-21 632v108h722v-108h-111v-632h-127v235q-52 -70 -161 -70q-110 0 -169 72t-59 191v204h-95z" />
<glyph unicode="&#x938;" horiz-adv-x="825" d="M433 556q0 -76 -35 -132h208v208h-173v-76zM-21 632v108h867v-108h-112v-632h-128v319h-408v-116q0 -46 21 -74t63 -28q39 0 61 26t22 67v13h124q1 -8 1 -19q0 -91 -55 -144t-151 -53q-102 0 -158 60.5t-56 157.5v202h81q154 0 154 145v76h-326z" />
<glyph unicode="&#x939;" horiz-adv-x="586" d="M537 71q-9 -80 -71.5 -130t-159.5 -50q-112 0 -176.5 63t-64.5 165q0 120 97 181q-73 39 -73 117q0 60 43.5 94t117.5 34h100v87h-371v108h627v-108h-133v-180h-177q-79 0 -79 -60q0 -40 41 -58q21 4 50 4q103 0 161 -50t68 -128h-124q-7 30 -35 52.5t-72 22.5 q-52 0 -83.5 -33t-31.5 -86t31.5 -85.5t83.5 -32.5q42 0 70.5 21.5t36.5 51.5h124z" />
<glyph unicode="&#x93c;" horiz-adv-x="0" d="M-312 -219q-32 0 -55 22.5t-23 54.5q0 33 23 56t55 23q33 0 56 -23t23 -56q0 -32 -23 -54.5t-56 -22.5z" />
<glyph unicode="&#x93d;" horiz-adv-x="589" d="M64 52v109h235q31 0 48 13t17 35q0 24 -24.5 51.5t-59.5 54.5t-70.5 58t-60 74t-24.5 91q0 67 44.5 100.5t117.5 33.5h218v-109h-186q-62 0 -62 -45q0 -24 24.5 -51.5t59.5 -54.5t70 -58t59.5 -74t24.5 -90q0 -63 -44.5 -100.5t-119.5 -37.5h-267z" />
<glyph unicode="&#x93e;" d="M90 0v632h-111v108h351v-108h-111v-632h-129z" />
<glyph unicode="&#x93f;" d="M219 632v-632h-129v632h-111v108h111q5 131 116.5 204.5t288.5 73.5q179 0 292 -78.5t113 -211.5v-17h-129v15q0 92 -82 139t-194 47q-53 0 -99 -9t-86 -28t-64.5 -54t-27.5 -81h112v-108h-111z" />
<glyph unicode="&#x940;" d="M-219 711v62q0 113 52.5 179t167.5 66q218 0 218 -245v-33h111v-108h-111v-632h-129v632h-111v108h115v40q0 129 -93 129q-95 0 -95 -129v-69h-125z" />
<glyph unicode="&#x941;" horiz-adv-x="0" d="M-206 -324q-107 0 -178 55t-69 168h114q-2 -62 34 -92.5t96 -30.5q49 0 77 22t28 62q0 33 -22 55t-63 22h-30v101h30q95 0 145 -48.5t50 -130.5q0 -85 -57 -134t-155 -49z" />
<glyph unicode="&#x942;" horiz-adv-x="0" d="M-185 -312q-78 0 -129.5 44t-51.5 125q0 82 57.5 129.5t149.5 47.5q69 0 120.5 -23.5t80.5 -65.5t43 -92.5t14 -111.5q0 -17 -2 -47h-105v54q0 91 -39.5 140t-112.5 49q-45 0 -74 -21.5t-29 -59.5q0 -35 25 -55t61 -20q19 0 30 1v-93q-13 -1 -38 -1z" />
<glyph unicode="&#x943;" horiz-adv-x="0" d="M-137 -326q-87 0 -148 44.5t-61 137.5q0 80 55 129.5t152 49.5q40 0 49 -1v-88h-39q-44 0 -68 -24t-24 -61q0 -44 29.5 -64t75.5 -20q38 0 79 12v-100q-45 -15 -100 -15z" />
<glyph unicode="&#x944;" horiz-adv-x="0" d="M-124 -468q-82 0 -139 35.5t-57 109.5q0 47 27 78.5t70 40.5v4q-96 22 -96 112q0 44 25.5 73t58 39.5t70.5 10.5h75v-71h-25q-80 0 -80 -59q0 -57 82 -57h54v-96h-48q-89 0 -89 -61q0 -59 92 -59q59 0 99 15v-97q-46 -18 -119 -18z" />
<glyph unicode="&#x945;" horiz-adv-x="0" d="M-161 814q-112 0 -169 54.5t-57 142.5h111q0 -43 28.5 -72t86.5 -29q57 0 86 29t29 72h110q0 -88 -56.5 -142.5t-168.5 -54.5z" />
<glyph unicode="&#x947;" horiz-adv-x="0" d="M-213 736q-64 101 -100 126.5t-107 25.5h-49v105h46q49 0 79 -5t62.5 -18.5t60 -43t59 -74.5t71.5 -116h-122z" />
<glyph unicode="&#x948;" horiz-adv-x="0" d="M-202 737q-86 59 -116.5 70t-110.5 11h-50v81h47q78 0 113 -10t93 -56q-38 68 -72 100.5t-58.5 38.5t-70.5 6h-52v82h50q41 0 64 -2t51.5 -13.5t47.5 -30t47.5 -56.5t57 -89t69.5 -132h-110z" />
<glyph unicode="&#x949;" horiz-adv-x="311" d="M90 0v632h-111v108h351v-108h-111v-632h-129zM156 814q-112 0 -169 54.5t-57 142.5h111q0 -43 28.5 -72t86.5 -29q57 0 86 29t29 72h110q0 -88 -56.5 -142.5t-168.5 -54.5z" />
<glyph unicode="&#x94b;" horiz-adv-x="310" d="M219 0h-129v632h-111v108h115q-62 98 -98 123t-106 25h-49v105h46q49 0 79 -5t62 -18.5t59.5 -42t58.5 -73t71 -114.5h113v-108h-111v-632z" />
<glyph unicode="&#x94c;" d="M219 0h-129v632h-111v108h121q-83 57 -113.5 67.5t-109.5 10.5h-50v81h47q78 0 113 -10t93 -56q-38 68 -72 100.5t-58.5 38.5t-70.5 6h-52v82h50q41 0 64 -2t51.5 -13t47.5 -29.5t47 -56.5t56 -88.5t69 -130.5h118v-108h-111v-632z" />
<glyph unicode="&#x94d;" horiz-adv-x="0" d="M-90 -271l-126 214h129l130 -214h-133z" />
<glyph unicode="&#x950;" horiz-adv-x="1066" d="M301 11q-103 0 -166 57t-63 151h122q0 -42 27.5 -69.5t72.5 -27.5t71.5 27.5t26.5 71.5q0 42 -28 71.5t-84 29.5h-43v109h43q48 0 75.5 25.5t27.5 64.5q0 42 -26 67t-65 25q-41 0 -67 -23.5t-26 -62.5h-120q0 88 59 141.5t155 53.5q94 0 150.5 -50t56.5 -134 q0 -58 -29 -99t-83 -57v-4q9 -2 25 -8h59q55 0 80 22.5t25 81.5q0 102 47 156t155 54q111 0 160.5 -62.5t49.5 -184.5v-127q0 -291 -264 -291q-40 0 -100 10v108q45 -8 77 -8q90 0 126 46.5t36 138.5v139q0 121 -85 121q-82 0 -82 -101q0 -109 -44 -155.5t-151 -48.5 q9 -29 9 -60q0 -90 -58 -144t-152 -54zM567 733q-109 0 -167 53.5t-58 143.5h102q0 -43 32.5 -73.5t90.5 -30.5q57 0 89.5 30.5t32.5 73.5h104q0 -90 -58.5 -143.5t-167.5 -53.5zM567 904q-23 0 -38 15t-15 38t15.5 38.5t37.5 15.5q23 0 38 -15.5t15 -38.5t-15 -38t-38 -15z " />
<glyph unicode="&#x958;" horiz-adv-x="976" d="M433 0v162q-50 -85 -165 -85q-95 0 -152 64t-57 169t58.5 168.5t155.5 63.5q109 0 160 -81v171h-454v108h1017v-108h-439v-173q47 83 155 83q93 0 149 -65t56 -164q0 -106 -57.5 -167t-149.5 -61q-35 0 -66 7v102q12 -4 31 -4q49 0 80 32t31 88q0 53 -32 87t-82 34 q-56 0 -85.5 -38t-29.5 -92v-301h-124zM249 -145q-32 0 -55 22.5t-23 54.5q0 33 23 56t55 23q33 0 56 -23t23 -56q0 -32 -23 -54.5t-56 -22.5zM311 185q58 0 90 37.5t32 86.5q0 50 -31.5 86.5t-89.5 36.5q-52 0 -87 -34t-35 -89q0 -56 34 -90t87 -34z" />
<glyph unicode="&#x959;" horiz-adv-x="950" d="M601 121q-11 0 -33 2q-34 -58 -91.5 -93t-134.5 -35q-125 0 -197.5 71t-72.5 198v137h30q67 0 102 32t35 106v93h-260v108h992v-108h-111v-632h-128v181q-43 -60 -131 -60zM321 -224q-32 0 -55 22.5t-23 54.5q0 33 23 56t55 23q33 0 56 -23t23 -56q0 -32 -23 -54.5 t-56 -22.5zM629 220q49 0 76 32t27 75q-1 43 -27 74.5t-76 31.5q-46 0 -76.5 -28.5t-30.5 -76.5q0 -51 30.5 -79.5t76.5 -28.5zM345 106q83 0 124 64q-62 59 -62 158q0 90 55 147t139 57q86 0 131 -60v160h-363v-110q0 -100 -46 -153t-123 -59v-61q0 -64 38.5 -103.5 t106.5 -39.5z" />
<glyph unicode="&#x95a;" horiz-adv-x="788" d="M569 0v632h-145v-242q0 -89 -47 -144.5t-143 -55.5q-93 0 -143.5 51t-50.5 142q0 21 1 31h125v-31q0 -83 65 -83q63 0 63 84v248h-315v108h830v-108h-111v-632h-129zM236 -34q-32 0 -55 22.5t-23 54.5q0 33 23 56t55 23q33 0 56 -23t23 -56q0 -32 -23 -54.5t-56 -22.5z " />
<glyph unicode="&#x95b;" horiz-adv-x="852" d="M-21 632v108h894v-108h-111v-632h-129v382h-143v-55q0 -96 -58 -155.5t-156 -59.5q-103 0 -159.5 59t-56.5 156v165h131v-162q0 -48 22.5 -76.5t62.5 -28.5q42 0 65 28t23 77v162h269v140h-654zM278 -109q-32 0 -55 22.5t-23 54.5q0 33 23 56t55 23q33 0 56 -23t23 -56 q0 -32 -23 -54.5t-56 -22.5z" />
<glyph unicode="&#x95c;" horiz-adv-x="569" d="M-21 632v108h610v-108h-122v-183h-178q-87 0 -87 -60t78 -60h45q86 0 145.5 -41.5t59.5 -131.5q0 -80 -57 -127t-162 -47q-111 0 -180 51.5t-73 141.5h129q1 -44 33.5 -69.5t86.5 -25.5q48 0 74.5 21t26.5 56q0 81 -107 81h-37q-34 0 -64.5 6.5t-60.5 22.5t-48 48.5 t-18 77.5q0 74 51.5 110.5t130.5 36.5h88v92h-364zM308 -239q-32 0 -55 22.5t-23 54.5q0 33 23 56t55 23q33 0 56 -23t23 -56q0 -32 -23 -54.5t-56 -22.5z" />
<glyph unicode="&#x95d;" horiz-adv-x="650" d="M-21 632v108h691v-108h-170v-174h-108q-92 0 -150 -48t-58 -138q0 -80 51 -130.5t141 -50.5q62 0 102.5 29t40.5 78q0 32 -20.5 53t-51.5 21q-28 0 -47 -17.5t-19 -45.5q0 -11 3 -18h-93q-4 24 -4 36q0 65 46 101.5t119 36.5q82 0 129.5 -46t47.5 -121 q0 -93 -67.5 -146.5t-188.5 -53.5q-137 0 -225.5 75t-88.5 203q0 129 81.5 200t210.5 71h27v85h-399zM352 -222q-32 0 -55 22.5t-23 54.5q0 33 23 56t55 23q33 0 56 -23t23 -56q0 -32 -23 -54.5t-56 -22.5z" />
<glyph unicode="&#x95e;" horiz-adv-x="985" d="M318 283q54 0 84 35.5t30 89.5v224h-228v-210q0 -65 28.5 -102t85.5 -37zM-21 632v108h1027v-108h-445v-172q51 82 162 82q92 0 148 -63.5t56 -161.5q0 -108 -58 -170t-150 -62q-39 0 -70 9v100q18 -5 37 -5q49 0 79.5 33t30.5 88q0 53 -32 87t-82 34q-60 0 -90.5 -41 t-30.5 -103v-287h-129v239q-49 -65 -146 -65q-102 0 -157 68t-55 180v210h-95zM239 -43q-32 0 -55 22.5t-23 54.5q0 33 23 56t55 23q33 0 56 -23t23 -56q0 -32 -23 -54.5t-56 -22.5z" />
<glyph unicode="&#x960;" horiz-adv-x="1014" d="M485 0v209l-220 -209h-163v6l382 331q-12 45 -48 72t-87 27q-70 0 -112 -43.5t-42 -115.5h-129q0 120 66.5 194t178.5 74q114 0 174 -80v167h-506v108h1083v-108h-458v-186h158q71 0 71 62v45h111v-354h-37q-80 0 -80 -59q0 -57 83 -57h53v-96h-49q-88 0 -88 -61 q0 -59 92 -59q49 0 100 15v-96q-48 -20 -120 -20q-82 0 -138.5 36.5t-56.5 110.5q0 45 27 77t69 41v4q-96 22 -96 112q0 57 38 87t92 35v92q-38 -17 -90 -17h-139v-344h-119z" />
<glyph unicode="&#x961;" horiz-adv-x="913" d="M-21 632v108h952v-108h-230v-106q65 -20 104.5 -79t39.5 -148q0 -52 -16 -100h-33q-80 0 -80 -59q0 -57 83 -57h54v-96h-49q-89 0 -89 -61q0 -59 92 -59q52 0 100 15v-96q-48 -20 -119 -20q-83 0 -139.5 36.5t-56.5 111.5q0 44 27 76t69 41v4q-96 22 -96 112q0 55 35 84 t87 37q2 20 2 32q0 54 -26.5 88t-74.5 34q-53 0 -79.5 -39.5t-26.5 -103.5v-25h-108v25q0 63 -26 103t-77 40q-52 0 -80 -34.5t-28 -90.5q0 -65 33.5 -100.5t93.5 -35.5q7 0 27 2v-113q-13 -1 -34 -1q-120 0 -185.5 68t-65.5 182q0 113 62.5 175t158.5 62q68 0 110.5 -36 t61.5 -91h3q33 95 121 119v104h-597z" />
<glyph unicode="&#x962;" horiz-adv-x="0" d="M103 -472q-72 0 -116.5 34.5t-44.5 98.5q0 44 26.5 76t68.5 43q1 7 1 21q0 40 -18.5 64.5t-53.5 24.5q-38 0 -57 -28.5t-19 -74.5v-18h-84v18q0 46 -18.5 74.5t-55.5 28.5t-57.5 -24.5t-20.5 -65.5q0 -46 24.5 -71.5t66.5 -25.5q15 0 21 2v-88q-10 -1 -25 -1 q-90 0 -139 50.5t-49 134.5q0 85 47 131.5t117 46.5q95 0 128 -93h3q14 40 48 66.5t86 26.5q68 0 113.5 -47t45.5 -131q0 -34 -12 -73h-6q-43 0 -63.5 -17t-20.5 -44q0 -28 21.5 -43t53.5 -15q29 0 44 5v-81q-28 -5 -55 -5z" />
<glyph unicode="&#x963;" horiz-adv-x="0" d="M184 -580q-34 -13 -89 -13q-62 0 -104 26t-42 82q0 35 20 58.5t51 30.5v2q-71 16 -71 85q0 41 25 63t63 28q1 6 1 19q0 40 -18.5 64.5t-53.5 24.5q-38 0 -57 -28.5t-19 -74.5v-18h-84v18q0 46 -18.5 74.5t-55.5 28.5t-57.5 -24.5t-20.5 -65.5q0 -46 24.5 -71.5 t66.5 -25.5q15 0 21 2v-88q-10 -1 -25 -1q-90 0 -139 50.5t-49 134.5q0 85 47 131.5t117 46.5q95 0 128 -93h3q14 40 48 66.5t86 26.5q68 0 113.5 -47t45.5 -131q0 -34 -12 -73h-26q-58 0 -58 -42q0 -41 61 -41h38v-75h-35q-65 0 -65 -44q0 -42 66 -42q41 0 74 11v-75z" />
<glyph unicode="&#x964;" horiz-adv-x="320" d="M279 741v-741h-128v741h128z" />
<glyph unicode="&#x965;" horiz-adv-x="570" d="M279 741v-741h-128v741h128zM527 741v-741h-128v741h128z" />
<glyph unicode="&#x966;" horiz-adv-x="646" d="M53 374q0 369 270 369t270 -369q0 -372 -270 -372t-270 372zM455 374q0 42 -2.5 73t-10.5 64.5t-21.5 54t-38.5 34t-59 13.5t-59 -13.5t-38.5 -34t-21.5 -54t-10.5 -64.5t-2.5 -73q0 -56 4.5 -94t17 -74.5t40.5 -55t70 -18.5t70 18.5t40.5 55t17 74.5t4.5 94z" />
<glyph unicode="&#x967;" horiz-adv-x="362" d="M133 0v600h-97v129h241v-729h-144z" />
<glyph unicode="&#x968;" horiz-adv-x="574" d="M45 10v104q17 15 54 46l55.5 46.5t50.5 44t49.5 46t41.5 43t36.5 45t26 43t19 45.5t5.5 44q0 109 -98 109q-50 0 -77 -33.5t-28 -91.5h-136q4 120 71.5 182t171.5 62q114 0 175 -60.5t61 -159.5q0 -35 -10.5 -71t-23 -63.5t-41 -63.5t-44.5 -55t-55.5 -55t-51.5 -46 t-53 -45h295v-116h-494z" />
<glyph unicode="&#x969;" horiz-adv-x="599" d="M55 537q5 100 70.5 154.5t172.5 54.5q109 0 169.5 -54.5t60.5 -138.5q0 -63 -32.5 -106.5t-77.5 -58.5v-4q58 -18 90.5 -64t32.5 -118q0 -92 -62.5 -149.5t-174.5 -57.5q-113 0 -184 57t-75 168h136q2 -49 33.5 -78.5t86.5 -29.5q51 0 78.5 28.5t27.5 73.5q0 60 -38 86 t-118 26h-29v115h29q142 0 142 95q0 43 -25.5 67t-73.5 24q-47 0 -72.5 -25.5t-29.5 -64.5h-137z" />
<glyph unicode="&#x96a;" horiz-adv-x="661" d="M397 0v142h-350v110l327 468h163v-456h88v-122h-88v-142h-140zM201 264h205v306z" />
<glyph unicode="&#x96b;" horiz-adv-x="644" d="M91 731h452v-123h-324v-171q21 26 60 42.5t83 16.5q61 0 107 -21.5t71.5 -57t37.5 -76.5t12 -86q0 -115 -65.5 -185t-186.5 -70q-114 0 -182 57t-77 149h136q9 -40 40.5 -64t80.5 -24q59 0 89 37t30 98q0 62 -30.5 94.5t-89.5 32.5q-84 0 -110 -77h-134v428z" />
<glyph unicode="&#x96c;" horiz-adv-x="640" d="M561 547h-130q-20 84 -105 84q-69 0 -101.5 -55.5t-33.5 -180.5q24 40 70 62.5t100 22.5q100 0 160.5 -63t60.5 -175q0 -109 -64.5 -176.5t-178.5 -67.5q-79 0 -133 26.5t-83.5 78.5t-41.5 117.5t-12 155.5q0 183 63 276.5t199 93.5q105 0 163 -57t67 -142zM329 365 q-53 0 -89 -31t-36 -90t33.5 -93t94.5 -34q54 0 85.5 33t31.5 89q0 58 -30.5 92t-89.5 34z" />
<glyph unicode="&#x96d;" horiz-adv-x="548" d="M35 727h482v-104l-266 -623h-142l268 607h-342v120z" />
<glyph unicode="&#x96e;" horiz-adv-x="643" d="M175 386q-100 52 -100 161q0 84 63.5 140t182.5 56q118 0 182 -56.5t64 -139.5q0 -55 -27 -96.5t-72 -64.5q55 -24 86 -70t31 -109q0 -102 -74.5 -162.5t-189.5 -60.5q-114 0 -188.5 60.5t-74.5 162.5q0 63 31 109.5t86 69.5zM321 427q48 0 79 27.5t31 72.5 q0 49 -29.5 76t-80.5 27q-50 0 -79.5 -27t-29.5 -77q0 -45 30.5 -72t78.5 -27zM321 325q-57 0 -92.5 -29t-35.5 -83q0 -50 34.5 -81.5t93.5 -31.5t93 32t34 81q0 53 -35 82.5t-92 29.5z" />
<glyph unicode="&#x96f;" horiz-adv-x="626" d="M85 205h130q17 -91 113 -91q62 0 90 51.5t28 173.5q-23 -32 -64.5 -50t-89.5 -18q-99 0 -163 61t-64 172q0 110 65.5 176t180.5 66q142 0 200.5 -91t58.5 -274q0 -196 -54.5 -289t-193.5 -93q-110 0 -170 59.5t-67 146.5zM321 385q52 0 82 32t30 86q0 59 -31.5 91.5 t-85.5 32.5t-85.5 -33.5t-31.5 -88.5q0 -53 30.5 -86.5t91.5 -33.5z" />
<glyph unicode="&#x970;" horiz-adv-x="482" d="M243 506q74 0 121 -46.5t47 -119.5q0 -72 -47 -118t-121 -46q-75 0 -123 46.5t-48 118.5q0 73 48 119t123 46zM243 429q-40 0 -66 -25t-26 -63q0 -39 26 -63.5t66 -24.5q38 0 63 24.5t25 62.5t-25 63.5t-63 25.5z" />
<glyph unicode="&#x972;" horiz-adv-x="838" d="M273 465q48 0 75 25t27 61q0 40 -25.5 64.5t-63.5 24.5q-41 0 -68 -24t-27 -62h-119q0 88 59 141.5t155 53.5q92 0 148 -49t56 -131q0 -55 -29 -95.5t-82 -56.5v-2q26 -5 50 -21h186v346h240v-108h-111v-632h-129v287l-117 1q3 -20 3 -37q0 -88 -56 -141t-149 -53 q-103 0 -167 57.5t-64 150.5h121q0 -42 28 -69.5t73 -27.5t71 26t26 69q0 41 -28 69.5t-83 28.5h-43v104h43zM688 830q-112 0 -169 54.5t-57 142.5h111q0 -43 28.5 -72t86.5 -29q57 0 86 29t29 72h110q0 -88 -56.5 -142.5t-168.5 -54.5z" />
<glyph unicode="&#x1e80;" horiz-adv-x="1024" d="M210 -1l-188 699h150l123 -542l142 542h156l134 -539l124 539h151l-195 -698h-165l-131 497l-137 -497zM367 843v114l230 -119v-100z" />
<glyph unicode="&#x1e81;" horiz-adv-x="844" d="M170 0l-163 554h142l98 -422l106 422h148l104 -421l98 421h134l-162 -554h-151l-101 387l-101 -387h-152zM270 698v114l230 -119v-100z" />
<glyph unicode="&#x1e82;" horiz-adv-x="1024" d="M210 -1l-188 699h150l123 -542l142 542h156l134 -539l124 539h151l-195 -698h-165l-131 497l-137 -497zM435 842l230 119v-114l-230 -105v100z" />
<glyph unicode="&#x1e83;" horiz-adv-x="844" d="M170 0l-163 554h142l98 -422l106 422h148l104 -421l98 421h134l-162 -554h-151l-101 387l-101 -387h-152zM348 693l230 119v-114l-230 -105v100z" />
<glyph unicode="&#x1e84;" horiz-adv-x="1024" d="M210 -1l-188 699h150l123 -542l142 542h156l134 -539l124 539h151l-195 -698h-165l-131 497l-137 -497zM416 766q-28 0 -47 19t-19 47t19 47.5t47 19.5t47.5 -19.5t19.5 -47.5t-19.5 -47t-47.5 -19zM601 766q-28 0 -47 19t-19 47t19 47.5t47 19.5t47.5 -19.5t19.5 -47.5 t-19.5 -47t-47.5 -19z" />
<glyph unicode="&#x1e85;" horiz-adv-x="844" d="M170 0l-163 554h142l98 -422l106 422h148l104 -421l98 421h134l-162 -554h-151l-101 387l-101 -387h-152zM330 620q-28 0 -47 19t-19 47t19 47.5t47 19.5t47.5 -19.5t19.5 -47.5t-19.5 -47t-47.5 -19zM515 620q-28 0 -47 19t-19 47t19 47.5t47 19.5t47.5 -19.5 t19.5 -47.5t-19.5 -47t-47.5 -19z" />
<glyph unicode="&#x1ea0;" horiz-adv-x="716" d="M357 -236q-34 0 -56.5 22t-22.5 54t22.5 53.5t56.5 21.5t57 -21.5t23 -53.5t-23 -54t-57 -22zM543 0l-46 133h-278l-46 -133h-147l251 699h163l251 -699h-148zM459 245l-101 292l-101 -292h202z" />
<glyph unicode="&#x1ea1;" horiz-adv-x="678" d="M304 -236q-34 0 -56.5 22t-22.5 54t22.5 53.5t56.5 21.5t57 -21.5t23 -53.5t-23 -54t-57 -22zM33 279q0 127 72.5 205.5t180.5 78.5q120 0 183 -88v79h141v-554h-141v81q-27 -39 -74.5 -64.5t-109.5 -25.5q-107 0 -179.5 80.5t-72.5 207.5zM469 277q0 75 -43 119t-104 44 q-60 0 -103 -43t-43 -118t43 -120t103 -45q61 0 104 44t43 119z" />
<glyph unicode="&#x1ea2;" horiz-adv-x="716" d="M248 854v1q3 44 33.5 67.5t80.5 23.5q45 0 73 -24.5t28 -62.5t-22.5 -59.5t-47.5 -26.5l-1 -20h-71l-1 70q70 0 70 36q0 10 -8.5 17.5t-20.5 7.5q-33 0 -39 -30h-74zM543 0l-46 133h-278l-46 -133h-147l251 699h163l251 -699h-148zM459 245l-101 292l-101 -292h202z" />
<glyph unicode="&#x1ea3;" horiz-adv-x="678" d="M241 725v1q3 44 33.5 67.5t80.5 23.5q45 0 73 -24.5t28 -62.5t-22.5 -59.5t-47.5 -26.5l-1 -20h-71l-1 70q70 0 70 36q0 10 -8.5 17.5t-20.5 7.5q-33 0 -39 -30h-74zM33 279q0 127 72.5 205.5t180.5 78.5q120 0 183 -88v79h141v-554h-141v81q-27 -39 -74.5 -64.5 t-109.5 -25.5q-107 0 -179.5 80.5t-72.5 207.5zM469 277q0 75 -43 119t-104 44q-60 0 -103 -43t-43 -118t43 -120t103 -45q61 0 104 44t43 119z" />
<glyph unicode="&#x1ea4;" horiz-adv-x="716" d="M514 1027l78 -56l-102 -111l-75 49zM543 0l-46 133h-278l-46 -133h-147l251 699h163l251 -699h-148zM459 245l-101 292l-101 -292h202zM359 907l153 -100l-53 -65l-100 62l-100 -62l-53 65z" />
<glyph unicode="&#x1ea5;" horiz-adv-x="678" d="M492 898l78 -56l-102 -111l-75 49zM33 279q0 127 72.5 205.5t180.5 78.5q120 0 183 -88v79h141v-554h-141v81q-27 -39 -74.5 -64.5t-109.5 -25.5q-107 0 -179.5 80.5t-72.5 207.5zM469 277q0 75 -43 119t-104 44q-60 0 -103 -43t-43 -118t43 -120t103 -45q61 0 104 44 t43 119zM337 778l153 -100l-53 -65l-100 62l-100 -62l-53 65z" />
<glyph unicode="&#x1ea6;" horiz-adv-x="716" d="M383 971l78 56l99 -118l-75 -49zM543 0l-46 133h-278l-46 -133h-147l251 699h163l251 -699h-148zM459 245l-101 292l-101 -292h202zM359 907l153 -100l-53 -65l-100 62l-100 -62l-53 65z" />
<glyph unicode="&#x1ea7;" horiz-adv-x="678" d="M361 842l78 56l99 -118l-75 -49zM33 279q0 127 72.5 205.5t180.5 78.5q120 0 183 -88v79h141v-554h-141v81q-27 -39 -74.5 -64.5t-109.5 -25.5q-107 0 -179.5 80.5t-72.5 207.5zM469 277q0 75 -43 119t-104 44q-60 0 -103 -43t-43 -118t43 -120t103 -45q61 0 104 44 t43 119zM337 778l153 -100l-53 -65l-100 62l-100 -62l-53 65z" />
<glyph unicode="&#x1ea8;" horiz-adv-x="716" d="M392 954v1q3 38 33.5 58t80.5 20q45 0 73 -21t28 -54q0 -32 -22 -50.5t-48 -23.5l-1 -17h-71l-1 60q70 0 70 31q0 9 -8.5 15.5t-20.5 6.5q-33 0 -39 -26h-74zM543 0l-46 133h-278l-46 -133h-147l251 699h163l251 -699h-148zM459 245l-101 292l-101 -292h202zM359 907 l153 -100l-53 -65l-100 62l-100 -62l-53 65z" />
<glyph unicode="&#x1ea9;" horiz-adv-x="678" d="M370 825v1q3 38 33.5 58t80.5 20q45 0 73 -21t28 -54q0 -32 -22 -50.5t-48 -23.5l-1 -17h-71l-1 60q70 0 70 31q0 9 -8.5 15.5t-20.5 6.5q-33 0 -39 -26h-74zM33 279q0 127 72.5 205.5t180.5 78.5q120 0 183 -88v79h141v-554h-141v81q-27 -39 -74.5 -64.5t-109.5 -25.5 q-107 0 -179.5 80.5t-72.5 207.5zM469 277q0 75 -43 119t-104 44q-60 0 -103 -43t-43 -118t43 -120t103 -45q61 0 104 44t43 119zM337 778l153 -100l-53 -65l-100 62l-100 -62l-53 65z" />
<glyph unicode="&#x1eaa;" horiz-adv-x="716" d="M543 0l-46 133h-278l-46 -133h-147l251 699h163l251 -699h-148zM459 245l-101 292l-101 -292h202zM359 890l153 -90l-53 -58l-100 56l-100 -56l-53 58zM290 902h-84q4 51 33 80.5t73 29.5q24 0 53.5 -16.5t45.5 -16.5q19 0 22 31h85q-4 -54 -32 -82t-74 -28 q-22 0 -53.5 16.5t-45.5 16.5q-19 0 -23 -31z" />
<glyph unicode="&#x1eab;" horiz-adv-x="678" d="M337 761l153 -90l-53 -58l-100 56l-100 -56l-53 58zM268 773h-84q4 51 33 80.5t73 29.5q24 0 53.5 -16.5t45.5 -16.5q19 0 22 31h85q-4 -54 -32 -82t-74 -28q-22 0 -53.5 16.5t-45.5 16.5q-19 0 -23 -31zM33 279q0 127 72.5 205.5t180.5 78.5q120 0 183 -88v79h141v-554 h-141v81q-27 -39 -74.5 -64.5t-109.5 -25.5q-107 0 -179.5 80.5t-72.5 207.5zM469 277q0 75 -43 119t-104 44q-60 0 -103 -43t-43 -118t43 -120t103 -45q61 0 104 44t43 119z" />
<glyph unicode="&#x1eac;" horiz-adv-x="716" d="M357 -236q-34 0 -56.5 22t-22.5 54t22.5 53.5t56.5 21.5t57 -21.5t23 -53.5t-23 -54t-57 -22zM543 0l-46 133h-278l-46 -133h-147l251 699h163l251 -699h-148zM459 245l-101 292l-101 -292h202zM359 907l153 -100l-53 -65l-100 62l-100 -62l-53 65z" />
<glyph unicode="&#x1ead;" horiz-adv-x="678" d="M304 -236q-34 0 -56.5 22t-22.5 54t22.5 53.5t56.5 21.5t57 -21.5t23 -53.5t-23 -54t-57 -22zM33 279q0 127 72.5 205.5t180.5 78.5q120 0 183 -88v79h141v-554h-141v81q-27 -39 -74.5 -64.5t-109.5 -25.5q-107 0 -179.5 80.5t-72.5 207.5zM469 277q0 75 -43 119t-104 44 q-60 0 -103 -43t-43 -118t43 -120t103 -45q61 0 104 44t43 119zM337 778l153 -100l-53 -65l-100 62l-100 -62l-53 65z" />
<glyph unicode="&#x1eae;" horiz-adv-x="716" d="M382 1050l78 -56l-102 -111l-75 49zM543 0l-46 133h-278l-46 -133h-147l251 699h163l251 -699h-148zM459 245l-101 292l-101 -292h202zM212 872h86q0 -54 60 -54q61 0 61 54h86q0 -62 -37 -98.5t-110 -36.5q-72 0 -109 36.5t-37 98.5z" />
<glyph unicode="&#x1eaf;" horiz-adv-x="678" d="M368 925l78 -56l-102 -111l-75 49zM33 279q0 127 72.5 205.5t180.5 78.5q120 0 183 -88v79h141v-554h-141v81q-27 -39 -74.5 -64.5t-109.5 -25.5q-107 0 -179.5 80.5t-72.5 207.5zM469 277q0 75 -43 119t-104 44q-60 0 -103 -43t-43 -118t43 -120t103 -45q61 0 104 44 t43 119zM198 747h86q0 -54 60 -54q61 0 61 54h86q0 -62 -37 -98.5t-110 -36.5q-72 0 -109 36.5t-37 98.5z" />
<glyph unicode="&#x1eb0;" horiz-adv-x="716" d="M261 994l78 56l99 -118l-75 -49zM543 0l-46 133h-278l-46 -133h-147l251 699h163l251 -699h-148zM459 245l-101 292l-101 -292h202zM212 872h86q0 -54 60 -54q61 0 61 54h86q0 -62 -37 -98.5t-110 -36.5q-72 0 -109 36.5t-37 98.5z" />
<glyph unicode="&#x1eb1;" horiz-adv-x="678" d="M247 869l78 56l99 -118l-75 -49zM33 279q0 127 72.5 205.5t180.5 78.5q120 0 183 -88v79h141v-554h-141v81q-27 -39 -74.5 -64.5t-109.5 -25.5q-107 0 -179.5 80.5t-72.5 207.5zM469 277q0 75 -43 119t-104 44q-60 0 -103 -43t-43 -118t43 -120t103 -45q61 0 104 44 t43 119zM198 747h86q0 -54 60 -54q61 0 61 54h86q0 -62 -37 -98.5t-110 -36.5q-72 0 -109 36.5t-37 98.5z" />
<glyph unicode="&#x1eb2;" horiz-adv-x="716" d="M543 0l-46 133h-278l-46 -133h-147l251 699h163l251 -699h-148zM459 245l-101 292l-101 -292h202zM212 859h86q0 -49 60 -49q61 0 61 49h86q0 -56 -37 -89t-110 -33q-72 0 -109 33t-37 89zM250 956v1q3 38 33.5 58t80.5 20q45 0 73 -21t28 -54q0 -32 -22 -50.5t-48 -23.5 l-1 -17h-71l-1 60q70 0 70 31q0 9 -8.5 15.5t-20.5 6.5q-33 0 -39 -26h-74z" />
<glyph unicode="&#x1eb3;" horiz-adv-x="678" d="M198 735h86q0 -49 60 -49q61 0 61 49h86q0 -56 -37 -89t-110 -33q-72 0 -109 33t-37 89zM236 832v1q3 38 33.5 58t80.5 20q45 0 73 -21t28 -54q0 -32 -22 -50.5t-48 -23.5l-1 -17h-71l-1 60q70 0 70 31q0 9 -8.5 15.5t-20.5 6.5q-33 0 -39 -26h-74zM33 279 q0 127 72.5 205.5t180.5 78.5q120 0 183 -88v79h141v-554h-141v81q-27 -39 -74.5 -64.5t-109.5 -25.5q-107 0 -179.5 80.5t-72.5 207.5zM469 277q0 75 -43 119t-104 44q-60 0 -103 -43t-43 -118t43 -120t103 -45q61 0 104 44t43 119z" />
<glyph unicode="&#x1eb4;" horiz-adv-x="716" d="M212 859h86q0 -49 60 -49q61 0 61 49h86q0 -56 -37 -89t-110 -33q-72 0 -109 33t-37 89zM543 0l-46 133h-278l-46 -133h-147l251 699h163l251 -699h-148zM459 245l-101 292l-101 -292h202zM291 884h-82q5 50 32.5 79t70.5 29q23 0 52 -16t44 -16q18 0 21 30h82 q-4 -54 -30.5 -81t-71.5 -27q-21 0 -52 16.5t-44 16.5q-19 0 -22 -31z" />
<glyph unicode="&#x1eb5;" horiz-adv-x="678" d="M198 734h86q0 -49 60 -49q61 0 61 49h86q0 -56 -37 -89t-110 -33q-72 0 -109 33t-37 89zM277 759h-82q5 50 32.5 79t70.5 29q23 0 52 -16t44 -16q18 0 21 30h82q-4 -54 -30.5 -81t-71.5 -27q-21 0 -52 16.5t-44 16.5q-19 0 -22 -31zM33 279q0 127 72.5 205.5t180.5 78.5 q120 0 183 -88v79h141v-554h-141v81q-27 -39 -74.5 -64.5t-109.5 -25.5q-107 0 -179.5 80.5t-72.5 207.5zM469 277q0 75 -43 119t-104 44q-60 0 -103 -43t-43 -118t43 -120t103 -45q61 0 104 44t43 119z" />
<glyph unicode="&#x1eb6;" horiz-adv-x="716" d="M357 -236q-34 0 -56.5 22t-22.5 54t22.5 53.5t56.5 21.5t57 -21.5t23 -53.5t-23 -54t-57 -22zM543 0l-46 133h-278l-46 -133h-147l251 699h163l251 -699h-148zM459 245l-101 292l-101 -292h202zM212 872h86q0 -54 60 -54q61 0 61 54h86q0 -62 -37 -98.5t-110 -36.5 q-72 0 -109 36.5t-37 98.5z" />
<glyph unicode="&#x1eb7;" horiz-adv-x="678" d="M304 -236q-34 0 -56.5 22t-22.5 54t22.5 53.5t56.5 21.5t57 -21.5t23 -53.5t-23 -54t-57 -22zM33 279q0 127 72.5 205.5t180.5 78.5q120 0 183 -88v79h141v-554h-141v81q-27 -39 -74.5 -64.5t-109.5 -25.5q-107 0 -179.5 80.5t-72.5 207.5zM469 277q0 75 -43 119t-104 44 q-60 0 -103 -43t-43 -118t43 -120t103 -45q61 0 104 44t43 119zM198 747h86q0 -54 60 -54q61 0 61 54h86q0 -62 -37 -98.5t-110 -36.5q-72 0 -109 36.5t-37 98.5z" />
<glyph unicode="&#x1eb8;" horiz-adv-x="532" d="M262 -236q-34 0 -56.5 22t-22.5 54t22.5 53.5t56.5 21.5t57 -21.5t23 -53.5t-23 -54t-57 -22zM474 699v-114h-265v-175h235v-111h-235v-185h265v-114h-405v699h405z" />
<glyph unicode="&#x1eb9;" horiz-adv-x="617" d="M312 -236q-34 0 -56.5 22t-22.5 54t22.5 53.5t56.5 21.5t57 -21.5t23 -53.5t-23 -54t-57 -22zM307 448q-51 0 -87 -31.5t-44 -87.5h263q-1 54 -39 86.5t-93 32.5zM570 174q-24 -80 -92 -131.5t-167 -51.5q-122 0 -200 78.5t-78 207.5q0 130 77 208t201 78 q121 0 197 -75.5t76 -198.5q0 -30 -4 -54h-405q5 -60 42 -94t91 -34q78 0 111 67h151z" />
<glyph unicode="&#x1eba;" horiz-adv-x="532" d="M171 854v1q3 44 33.5 67.5t80.5 23.5q45 0 73 -24.5t28 -62.5t-22.5 -59.5t-47.5 -26.5l-1 -20h-71l-1 70q70 0 70 36q0 10 -8.5 17.5t-20.5 7.5q-33 0 -39 -30h-74zM474 699v-114h-265v-175h235v-111h-235v-185h265v-114h-405v699h405z" />
<glyph unicode="&#x1ebb;" horiz-adv-x="617" d="M218 725v1q3 44 33.5 67.5t80.5 23.5q45 0 73 -24.5t28 -62.5t-22.5 -59.5t-47.5 -26.5l-1 -20h-71l-1 70q70 0 70 36q0 10 -8.5 17.5t-20.5 7.5q-33 0 -39 -30h-74zM307 448q-51 0 -87 -31.5t-44 -87.5h263q-1 54 -39 86.5t-93 32.5zM570 174q-24 -80 -92 -131.5 t-167 -51.5q-122 0 -200 78.5t-78 207.5q0 130 77 208t201 78q121 0 197 -75.5t76 -198.5q0 -30 -4 -54h-405q5 -60 42 -94t91 -34q78 0 111 67h151z" />
<glyph unicode="&#x1ebc;" horiz-adv-x="532" d="M474 699v-114h-265v-175h235v-111h-235v-185h265v-114h-405v699h405zM203 763h-84q4 55 33 87.5t73 32.5q24 0 53.5 -17.5t45.5 -17.5q19 0 22 33h85q-4 -59 -32 -89.5t-74 -30.5q-22 0 -53.5 18t-45.5 18q-19 0 -23 -34z" />
<glyph unicode="&#x1ebd;" horiz-adv-x="617" d="M307 448q-51 0 -87 -31.5t-44 -87.5h263q-1 54 -39 86.5t-93 32.5zM570 174q-24 -80 -92 -131.5t-167 -51.5q-122 0 -200 78.5t-78 207.5q0 130 77 208t201 78q121 0 197 -75.5t76 -198.5q0 -30 -4 -54h-405q5 -60 42 -94t91 -34q78 0 111 67h151zM238 635h-84 q4 55 33 87.5t73 32.5q24 0 53.5 -17.5t45.5 -17.5q19 0 22 33h85q-4 -59 -32 -89.5t-74 -30.5q-22 0 -53.5 18t-45.5 18q-19 0 -23 -34z" />
<glyph unicode="&#x1ebe;" horiz-adv-x="532" d="M426 1027l78 -56l-102 -111l-75 49zM474 699v-114h-265v-175h235v-111h-235v-185h265v-114h-405v699h405zM271 907l153 -100l-53 -65l-100 62l-100 -62l-53 65z" />
<glyph unicode="&#x1ebf;" horiz-adv-x="617" d="M464 898l78 -56l-102 -111l-75 49zM307 448q-51 0 -87 -31.5t-44 -87.5h263q-1 54 -39 86.5t-93 32.5zM570 174q-24 -80 -92 -131.5t-167 -51.5q-122 0 -200 78.5t-78 207.5q0 130 77 208t201 78q121 0 197 -75.5t76 -198.5q0 -30 -4 -54h-405q5 -60 42 -94t91 -34 q78 0 111 67h151zM309 778l153 -100l-53 -65l-100 62l-100 -62l-53 65z" />
<glyph unicode="&#x1ec0;" horiz-adv-x="532" d="M295 971l78 56l99 -118l-75 -49zM474 699v-114h-265v-175h235v-111h-235v-185h265v-114h-405v699h405zM271 907l153 -100l-53 -65l-100 62l-100 -62l-53 65z" />
<glyph unicode="&#x1ec1;" horiz-adv-x="617" d="M333 842l78 56l99 -118l-75 -49zM307 448q-51 0 -87 -31.5t-44 -87.5h263q-1 54 -39 86.5t-93 32.5zM570 174q-24 -80 -92 -131.5t-167 -51.5q-122 0 -200 78.5t-78 207.5q0 130 77 208t201 78q121 0 197 -75.5t76 -198.5q0 -30 -4 -54h-405q5 -60 42 -94t91 -34 q78 0 111 67h151zM309 778l153 -100l-53 -65l-100 62l-100 -62l-53 65z" />
<glyph unicode="&#x1ec2;" horiz-adv-x="532" d="M304 954v1q3 38 33.5 58t80.5 20q45 0 73 -21t28 -54q0 -32 -22 -50.5t-48 -23.5l-1 -17h-71l-1 60q70 0 70 31q0 9 -8.5 15.5t-20.5 6.5q-33 0 -39 -26h-74zM474 699v-114h-265v-175h235v-111h-235v-185h265v-114h-405v699h405zM271 907l153 -100l-53 -65l-100 62 l-100 -62l-53 65z" />
<glyph unicode="&#x1ec3;" horiz-adv-x="617" d="M342 825v1q3 38 33.5 58t80.5 20q45 0 73 -21t28 -54q0 -32 -22 -50.5t-48 -23.5l-1 -17h-71l-1 60q70 0 70 31q0 9 -8.5 15.5t-20.5 6.5q-33 0 -39 -26h-74zM307 448q-51 0 -87 -31.5t-44 -87.5h263q-1 54 -39 86.5t-93 32.5zM570 174q-24 -80 -92 -131.5t-167 -51.5 q-122 0 -200 78.5t-78 207.5q0 130 77 208t201 78q121 0 197 -75.5t76 -198.5q0 -30 -4 -54h-405q5 -60 42 -94t91 -34q78 0 111 67h151zM309 778l153 -100l-53 -65l-100 62l-100 -62l-53 65z" />
<glyph unicode="&#x1ec4;" horiz-adv-x="532" d="M271 890l153 -90l-53 -58l-100 56l-100 -56l-53 58zM202 902h-84q4 51 33 80.5t73 29.5q24 0 53.5 -16.5t45.5 -16.5q19 0 22 31h85q-4 -54 -32 -82t-74 -28q-22 0 -53.5 16.5t-45.5 16.5q-19 0 -23 -31zM474 699v-114h-265v-175h235v-111h-235v-185h265v-114h-405v699 h405z" />
<glyph unicode="&#x1ec5;" horiz-adv-x="617" d="M309 761l153 -90l-53 -58l-100 56l-100 -56l-53 58zM240 773h-84q4 51 33 80.5t73 29.5q24 0 53.5 -16.5t45.5 -16.5q19 0 22 31h85q-4 -54 -32 -82t-74 -28q-22 0 -53.5 16.5t-45.5 16.5q-19 0 -23 -31zM307 448q-51 0 -87 -31.5t-44 -87.5h263q-1 54 -39 86.5t-93 32.5 zM570 174q-24 -80 -92 -131.5t-167 -51.5q-122 0 -200 78.5t-78 207.5q0 130 77 208t201 78q121 0 197 -75.5t76 -198.5q0 -30 -4 -54h-405q5 -60 42 -94t91 -34q78 0 111 67h151z" />
<glyph unicode="&#x1ec6;" horiz-adv-x="532" d="M262 -236q-34 0 -56.5 22t-22.5 54t22.5 53.5t56.5 21.5t57 -21.5t23 -53.5t-23 -54t-57 -22zM474 699v-114h-265v-175h235v-111h-235v-185h265v-114h-405v699h405zM271 907l153 -100l-53 -65l-100 62l-100 -62l-53 65z" />
<glyph unicode="&#x1ec7;" horiz-adv-x="617" d="M312 -236q-34 0 -56.5 22t-22.5 54t22.5 53.5t56.5 21.5t57 -21.5t23 -53.5t-23 -54t-57 -22zM307 448q-51 0 -87 -31.5t-44 -87.5h263q-1 54 -39 86.5t-93 32.5zM570 174q-24 -80 -92 -131.5t-167 -51.5q-122 0 -200 78.5t-78 207.5q0 130 77 208t201 78 q121 0 197 -75.5t76 -198.5q0 -30 -4 -54h-405q5 -60 42 -94t91 -34q78 0 111 67h151zM309 778l153 -100l-53 -65l-100 62l-100 -62l-53 65z" />
<glyph unicode="&#x1ec8;" horiz-adv-x="278" d="M30 854v1q3 44 33.5 67.5t80.5 23.5q45 0 73 -24.5t28 -62.5t-22.5 -59.5t-47.5 -26.5l-1 -20h-71l-1 70q70 0 70 36q0 10 -8.5 17.5t-20.5 7.5q-33 0 -39 -30h-74zM69 0v698h140v-698h-140z" />
<glyph unicode="&#x1ec9;" horiz-adv-x="278" d="M69 0v554h140v-554h-140zM30 725v1q3 44 33.5 67.5t80.5 23.5q45 0 73 -24.5t28 -62.5t-22.5 -59.5t-47.5 -26.5l-1 -20h-71l-1 70q70 0 70 36q0 10 -8.5 17.5t-20.5 7.5q-33 0 -39 -30h-74z" />
<glyph unicode="&#x1eca;" horiz-adv-x="278" d="M138 -236q-34 0 -56.5 22t-22.5 54t22.5 53.5t56.5 21.5t57 -21.5t23 -53.5t-23 -54t-57 -22zM69 0v698h140v-698h-140z" />
<glyph unicode="&#x1ecb;" horiz-adv-x="278" d="M139 -236q-34 0 -56.5 22t-22.5 54t22.5 53.5t56.5 21.5t57 -21.5t23 -53.5t-23 -54t-57 -22zM69 0v554h140v-554h-140zM140 627q-34 0 -56.5 22t-22.5 54t22.5 53.5t56.5 21.5t57 -21.5t23 -53.5t-23 -54t-57 -22z" />
<glyph unicode="&#x1ecc;" horiz-adv-x="785" d="M391 -236q-34 0 -56.5 22t-22.5 54t22.5 53.5t56.5 21.5t57 -21.5t23 -53.5t-23 -54t-57 -22zM750 351q0 -156 -103 -257t-254 -101q-150 0 -254 101.5t-104 256.5t104 256t254 101q151 0 254 -101t103 -256zM179 351q0 -106 59 -169.5t155 -63.5q95 0 154 63.5t59 169.5 t-59 168.5t-154 62.5q-96 0 -155 -62.5t-59 -168.5z" />
<glyph unicode="&#x1ecd;" horiz-adv-x="638" d="M319 -236q-34 0 -56.5 22t-22.5 54t22.5 53.5t56.5 21.5t57 -21.5t23 -53.5t-23 -54t-57 -22zM604 277q0 -128 -83 -207t-206 -79q-122 0 -201.5 78.5t-79.5 207.5t81 207.5t204 78.5t204 -78.5t81 -207.5zM176 277q0 -79 39.5 -121.5t99.5 -42.5t102.5 43t42.5 121 q0 79 -41.5 121.5t-101.5 42.5t-100.5 -42.5t-40.5 -121.5z" />
<glyph unicode="&#x1ece;" horiz-adv-x="785" d="M305 854v1q3 44 33.5 67.5t80.5 23.5q45 0 73 -24.5t28 -62.5t-22.5 -59.5t-47.5 -26.5l-1 -20h-71l-1 70q70 0 70 36q0 10 -8.5 17.5t-20.5 7.5q-33 0 -39 -30h-74zM750 351q0 -156 -103 -257t-254 -101q-150 0 -254 101.5t-104 256.5t104 256t254 101q151 0 254 -101 t103 -256zM179 351q0 -106 59 -169.5t155 -63.5q95 0 154 63.5t59 169.5t-59 168.5t-154 62.5q-96 0 -155 -62.5t-59 -168.5z" />
<glyph unicode="&#x1ecf;" horiz-adv-x="638" d="M223 725v1q3 44 33.5 67.5t80.5 23.5q45 0 73 -24.5t28 -62.5t-22.5 -59.5t-47.5 -26.5l-1 -20h-71l-1 70q70 0 70 36q0 10 -8.5 17.5t-20.5 7.5q-33 0 -39 -30h-74zM604 277q0 -128 -83 -207t-206 -79q-122 0 -201.5 78.5t-79.5 207.5t81 207.5t204 78.5t204 -78.5 t81 -207.5zM176 277q0 -79 39.5 -121.5t99.5 -42.5t102.5 43t42.5 121q0 79 -41.5 121.5t-101.5 42.5t-100.5 -42.5t-40.5 -121.5z" />
<glyph unicode="&#x1ed0;" horiz-adv-x="785" d="M547 1027l78 -56l-102 -111l-75 49zM750 351q0 -156 -103 -257t-254 -101q-150 0 -254 101.5t-104 256.5t104 256t254 101q151 0 254 -101t103 -256zM179 351q0 -106 59 -169.5t155 -63.5q95 0 154 63.5t59 169.5t-59 168.5t-154 62.5q-96 0 -155 -62.5t-59 -168.5z M392 907l153 -100l-53 -65l-100 62l-100 -62l-53 65z" />
<glyph unicode="&#x1ed1;" horiz-adv-x="638" d="M475 898l78 -56l-102 -111l-75 49zM604 277q0 -128 -83 -207t-206 -79q-122 0 -201.5 78.5t-79.5 207.5t81 207.5t204 78.5t204 -78.5t81 -207.5zM176 277q0 -79 39.5 -121.5t99.5 -42.5t102.5 43t42.5 121q0 79 -41.5 121.5t-101.5 42.5t-100.5 -42.5t-40.5 -121.5z M320 778l153 -100l-53 -65l-100 62l-100 -62l-53 65z" />
<glyph unicode="&#x1ed2;" horiz-adv-x="785" d="M416 971l78 56l99 -118l-75 -49zM750 351q0 -156 -103 -257t-254 -101q-150 0 -254 101.5t-104 256.5t104 256t254 101q151 0 254 -101t103 -256zM179 351q0 -106 59 -169.5t155 -63.5q95 0 154 63.5t59 169.5t-59 168.5t-154 62.5q-96 0 -155 -62.5t-59 -168.5zM392 907 l153 -100l-53 -65l-100 62l-100 -62l-53 65z" />
<glyph unicode="&#x1ed3;" horiz-adv-x="638" d="M344 842l78 56l99 -118l-75 -49zM604 277q0 -128 -83 -207t-206 -79q-122 0 -201.5 78.5t-79.5 207.5t81 207.5t204 78.5t204 -78.5t81 -207.5zM176 277q0 -79 39.5 -121.5t99.5 -42.5t102.5 43t42.5 121q0 79 -41.5 121.5t-101.5 42.5t-100.5 -42.5t-40.5 -121.5z M320 778l153 -100l-53 -65l-100 62l-100 -62l-53 65z" />
<glyph unicode="&#x1ed4;" horiz-adv-x="785" d="M425 954v1q3 38 33.5 58t80.5 20q45 0 73 -21t28 -54q0 -32 -22 -50.5t-48 -23.5l-1 -17h-71l-1 60q70 0 70 31q0 9 -8.5 15.5t-20.5 6.5q-33 0 -39 -26h-74zM750 351q0 -156 -103 -257t-254 -101q-150 0 -254 101.5t-104 256.5t104 256t254 101q151 0 254 -101t103 -256 zM179 351q0 -106 59 -169.5t155 -63.5q95 0 154 63.5t59 169.5t-59 168.5t-154 62.5q-96 0 -155 -62.5t-59 -168.5zM392 907l153 -100l-53 -65l-100 62l-100 -62l-53 65z" />
<glyph unicode="&#x1ed5;" horiz-adv-x="638" d="M353 825v1q3 38 33.5 58t80.5 20q45 0 73 -21t28 -54q0 -32 -22 -50.5t-48 -23.5l-1 -17h-71l-1 60q70 0 70 31q0 9 -8.5 15.5t-20.5 6.5q-33 0 -39 -26h-74zM604 277q0 -128 -83 -207t-206 -79q-122 0 -201.5 78.5t-79.5 207.5t81 207.5t204 78.5t204 -78.5t81 -207.5z M176 277q0 -79 39.5 -121.5t99.5 -42.5t102.5 43t42.5 121q0 79 -41.5 121.5t-101.5 42.5t-100.5 -42.5t-40.5 -121.5zM320 778l153 -100l-53 -65l-100 62l-100 -62l-53 65z" />
<glyph unicode="&#x1ed6;" horiz-adv-x="785" d="M392 890l153 -90l-53 -58l-100 56l-100 -56l-53 58zM323 902h-84q4 51 33 80.5t73 29.5q24 0 53.5 -16.5t45.5 -16.5q19 0 22 31h85q-4 -54 -32 -82t-74 -28q-22 0 -53.5 16.5t-45.5 16.5q-19 0 -23 -31zM750 351q0 -156 -103 -257t-254 -101q-150 0 -254 101.5 t-104 256.5t104 256t254 101q151 0 254 -101t103 -256zM179 351q0 -106 59 -169.5t155 -63.5q95 0 154 63.5t59 169.5t-59 168.5t-154 62.5q-96 0 -155 -62.5t-59 -168.5z" />
<glyph unicode="&#x1ed7;" horiz-adv-x="638" d="M320 761l153 -90l-53 -58l-100 56l-100 -56l-53 58zM251 773h-84q4 51 33 80.5t73 29.5q24 0 53.5 -16.5t45.5 -16.5q19 0 22 31h85q-4 -54 -32 -82t-74 -28q-22 0 -53.5 16.5t-45.5 16.5q-19 0 -23 -31zM604 277q0 -128 -83 -207t-206 -79q-122 0 -201.5 78.5 t-79.5 207.5t81 207.5t204 78.5t204 -78.5t81 -207.5zM176 277q0 -79 39.5 -121.5t99.5 -42.5t102.5 43t42.5 121q0 79 -41.5 121.5t-101.5 42.5t-100.5 -42.5t-40.5 -121.5z" />
<glyph unicode="&#x1ed8;" horiz-adv-x="785" d="M391 -236q-34 0 -56.5 22t-22.5 54t22.5 53.5t56.5 21.5t57 -21.5t23 -53.5t-23 -54t-57 -22zM750 351q0 -156 -103 -257t-254 -101q-150 0 -254 101.5t-104 256.5t104 256t254 101q151 0 254 -101t103 -256zM179 351q0 -106 59 -169.5t155 -63.5q95 0 154 63.5t59 169.5 t-59 168.5t-154 62.5q-96 0 -155 -62.5t-59 -168.5zM392 907l153 -100l-53 -65l-100 62l-100 -62l-53 65z" />
<glyph unicode="&#x1ed9;" horiz-adv-x="638" d="M319 -236q-34 0 -56.5 22t-22.5 54t22.5 53.5t56.5 21.5t57 -21.5t23 -53.5t-23 -54t-57 -22zM604 277q0 -128 -83 -207t-206 -79q-122 0 -201.5 78.5t-79.5 207.5t81 207.5t204 78.5t204 -78.5t81 -207.5zM176 277q0 -79 39.5 -121.5t99.5 -42.5t102.5 43t42.5 121 q0 79 -41.5 121.5t-101.5 42.5t-100.5 -42.5t-40.5 -121.5zM320 778l153 -100l-53 -65l-100 62l-100 -62l-53 65z" />
<glyph unicode="&#x1eda;" horiz-adv-x="785" d="M511 932l51 -78l-172 -102l-51 75zM750 351q0 -156 -103 -257t-254 -101q-150 0 -254 101.5t-104 256.5t104 256t254 101q37 0 79 -8q7 0 17 -1t16.5 -1.5t7.5 -0.5q54 2 75 24.5t23 66.5h106q-3 -120 -97 -158q61 -48 95.5 -120.5t34.5 -158.5zM179 351 q0 -106 59 -169.5t155 -63.5q95 0 154 63.5t59 169.5t-59 168.5t-154 62.5q-96 0 -155 -62.5t-59 -168.5z" />
<glyph unicode="&#x1edb;" horiz-adv-x="638" d="M434 803l51 -78l-172 -102l-51 75zM604 277q0 -128 -83 -207t-206 -79q-122 0 -201.5 78.5t-79.5 207.5t81 207.5t204 78.5q42 0 84 -11h8q56 1 78 24t24 67h106q-3 -119 -97 -158q82 -80 82 -208zM176 277q0 -79 39.5 -121.5t99.5 -42.5t102.5 43t42.5 121 q0 79 -41.5 121.5t-101.5 42.5t-100.5 -42.5t-40.5 -121.5z" />
<glyph unicode="&#x1edc;" horiz-adv-x="785" d="M264 854l51 78l172 -105l-51 -75zM750 351q0 -156 -103 -257t-254 -101q-150 0 -254 101.5t-104 256.5t104 256t254 101q37 0 79 -8q7 0 17 -1t16.5 -1.5t7.5 -0.5q54 2 75 24.5t23 66.5h106q-3 -120 -97 -158q61 -48 95.5 -120.5t34.5 -158.5zM179 351q0 -106 59 -169.5 t155 -63.5q95 0 154 63.5t59 169.5t-59 168.5t-154 62.5q-96 0 -155 -62.5t-59 -168.5z" />
<glyph unicode="&#x1edd;" horiz-adv-x="638" d="M186 725l51 78l172 -105l-51 -75zM604 277q0 -128 -83 -207t-206 -79q-122 0 -201.5 78.5t-79.5 207.5t81 207.5t204 78.5q42 0 84 -11h8q56 1 78 24t24 67h106q-3 -119 -97 -158q82 -80 82 -208zM176 277q0 -79 39.5 -121.5t99.5 -42.5t102.5 43t42.5 121 q0 79 -41.5 121.5t-101.5 42.5t-100.5 -42.5t-40.5 -121.5z" />
<glyph unicode="&#x1ede;" horiz-adv-x="785" d="M305 854v1q3 44 33.5 67.5t80.5 23.5q45 0 73 -24.5t28 -62.5t-22.5 -59.5t-47.5 -26.5l-1 -20h-71l-1 70q70 0 70 36q0 10 -8.5 17.5t-20.5 7.5q-33 0 -39 -30h-74zM750 351q0 -156 -103 -257t-254 -101q-150 0 -254 101.5t-104 256.5t104 256t254 101q37 0 79 -8 q7 0 17 -1t16.5 -1.5t7.5 -0.5q54 2 75 24.5t23 66.5h106q-3 -120 -97 -158q61 -48 95.5 -120.5t34.5 -158.5zM179 351q0 -106 59 -169.5t155 -63.5q95 0 154 63.5t59 169.5t-59 168.5t-154 62.5q-96 0 -155 -62.5t-59 -168.5z" />
<glyph unicode="&#x1edf;" horiz-adv-x="638" d="M223 725v1q3 44 33.5 67.5t80.5 23.5q45 0 73 -24.5t28 -62.5t-22.5 -59.5t-47.5 -26.5l-1 -20h-71l-1 70q70 0 70 36q0 10 -8.5 17.5t-20.5 7.5q-33 0 -39 -30h-74zM604 277q0 -128 -83 -207t-206 -79q-122 0 -201.5 78.5t-79.5 207.5t81 207.5t204 78.5q42 0 84 -11h8 q56 1 78 24t24 67h106q-3 -119 -97 -158q82 -80 82 -208zM176 277q0 -79 39.5 -121.5t99.5 -42.5t102.5 43t42.5 121q0 79 -41.5 121.5t-101.5 42.5t-100.5 -42.5t-40.5 -121.5z" />
<glyph unicode="&#x1ee0;" horiz-adv-x="785" d="M329 763h-84q4 55 33 87.5t73 32.5q24 0 53.5 -17.5t45.5 -17.5q19 0 22 33h85q-4 -59 -32 -89.5t-74 -30.5q-22 0 -53.5 18t-45.5 18q-19 0 -23 -34zM750 351q0 -156 -103 -257t-254 -101q-150 0 -254 101.5t-104 256.5t104 256t254 101q37 0 79 -8q7 0 17 -1t16.5 -1.5 t7.5 -0.5q54 2 75 24.5t23 66.5h106q-3 -120 -97 -158q61 -48 95.5 -120.5t34.5 -158.5zM179 351q0 -106 59 -169.5t155 -63.5q95 0 154 63.5t59 169.5t-59 168.5t-154 62.5q-96 0 -155 -62.5t-59 -168.5z" />
<glyph unicode="&#x1ee1;" horiz-adv-x="638" d="M252 635h-84q4 55 33 87.5t73 32.5q24 0 53.5 -17.5t45.5 -17.5q19 0 22 33h85q-4 -59 -32 -89.5t-74 -30.5q-22 0 -53.5 18t-45.5 18q-19 0 -23 -34zM604 277q0 -128 -83 -207t-206 -79q-122 0 -201.5 78.5t-79.5 207.5t81 207.5t204 78.5q42 0 84 -11h8q56 1 78 24 t24 67h106q-3 -119 -97 -158q82 -80 82 -208zM176 277q0 -79 39.5 -121.5t99.5 -42.5t102.5 43t42.5 121q0 79 -41.5 121.5t-101.5 42.5t-100.5 -42.5t-40.5 -121.5z" />
<glyph unicode="&#x1ee2;" horiz-adv-x="785" d="M391 -236q-34 0 -56.5 22t-22.5 54t22.5 53.5t56.5 21.5t57 -21.5t23 -53.5t-23 -54t-57 -22zM750 351q0 -156 -103 -257t-254 -101q-150 0 -254 101.5t-104 256.5t104 256t254 101q37 0 79 -8q7 0 17 -1t16.5 -1.5t7.5 -0.5q54 2 75 24.5t23 66.5h106q-3 -120 -97 -158 q61 -48 95.5 -120.5t34.5 -158.5zM179 351q0 -106 59 -169.5t155 -63.5q95 0 154 63.5t59 169.5t-59 168.5t-154 62.5q-96 0 -155 -62.5t-59 -168.5z" />
<glyph unicode="&#x1ee3;" horiz-adv-x="638" d="M319 -236q-34 0 -56.5 22t-22.5 54t22.5 53.5t56.5 21.5t57 -21.5t23 -53.5t-23 -54t-57 -22zM604 277q0 -128 -83 -207t-206 -79q-122 0 -201.5 78.5t-79.5 207.5t81 207.5t204 78.5q42 0 84 -11h8q56 1 78 24t24 67h106q-3 -119 -97 -158q82 -80 82 -208zM176 277 q0 -79 39.5 -121.5t99.5 -42.5t102.5 43t42.5 121q0 79 -41.5 121.5t-101.5 42.5t-100.5 -42.5t-40.5 -121.5z" />
<glyph unicode="&#x1ee4;" horiz-adv-x="697" d="M67 267v431h140v-432q0 -71 37 -108.5t104 -37.5q68 0 105 37.5t37 108.5v432h141v-431q0 -132 -81.5 -203t-203.5 -71q-121 0 -200 71t-79 203zM345 -236q-34 0 -56.5 22t-22.5 54t22.5 53.5t56.5 21.5t57 -21.5t23 -53.5t-23 -54t-57 -22z" />
<glyph unicode="&#x1ee5;" horiz-adv-x="661" d="M314 -236q-34 0 -56.5 22t-22.5 54t22.5 53.5t56.5 21.5t57 -21.5t23 -53.5t-23 -54t-57 -22zM592 554v-554h-141v70q-27 -36 -70.5 -56.5t-94.5 -20.5q-99 0 -160.5 62.5t-61.5 173.5v325h140v-305q0 -66 33 -101.5t90 -35.5q58 0 91 35.5t33 101.5v305h141z" />
<glyph unicode="&#x1ee6;" horiz-adv-x="697" d="M239 854v1q3 44 33.5 67.5t80.5 23.5q45 0 73 -24.5t28 -62.5t-22.5 -59.5t-47.5 -26.5l-1 -20h-71l-1 70q70 0 70 36q0 10 -8.5 17.5t-20.5 7.5q-33 0 -39 -30h-74zM67 267v431h140v-432q0 -71 37 -108.5t104 -37.5q68 0 105 37.5t37 108.5v432h141v-431 q0 -132 -81.5 -203t-203.5 -71q-121 0 -200 71t-79 203z" />
<glyph unicode="&#x1ee7;" horiz-adv-x="661" d="M223 725v1q3 44 33.5 67.5t80.5 23.5q45 0 73 -24.5t28 -62.5t-22.5 -59.5t-47.5 -26.5l-1 -20h-71l-1 70q70 0 70 36q0 10 -8.5 17.5t-20.5 7.5q-33 0 -39 -30h-74zM592 554v-554h-141v70q-27 -36 -70.5 -56.5t-94.5 -20.5q-99 0 -160.5 62.5t-61.5 173.5v325h140v-305 q0 -66 33 -101.5t90 -35.5q58 0 91 35.5t33 101.5v305h141z" />
<glyph unicode="&#x1ee8;" horiz-adv-x="697" d="M467 932l51 -78l-172 -102l-51 75zM67 267v431h140v-432q0 -71 37 -108.5t104 -37.5q68 0 105 37.5t37 108.5v432h66q47 4 65.5 26t20.5 64h106q-3 -131 -117 -165v-356q0 -132 -81.5 -203t-203.5 -71q-121 0 -200 71t-79 203z" />
<glyph unicode="&#x1ee9;" horiz-adv-x="661" d="M434 803l51 -78l-172 -102l-51 75zM606 643h106q-3 -134 -120 -166v-477h-141v70q-27 -36 -70.5 -56.5t-94.5 -20.5q-99 0 -160.5 62.5t-61.5 173.5v325h140v-305q0 -66 33 -101.5t90 -35.5q58 0 91 35.5t33 101.5v305h78q42 6 58.5 28t18.5 61z" />
<glyph unicode="&#x1eea;" horiz-adv-x="697" d="M214 854l51 78l172 -105l-51 -75zM67 267v431h140v-432q0 -71 37 -108.5t104 -37.5q68 0 105 37.5t37 108.5v432h66q47 4 65.5 26t20.5 64h106q-3 -131 -117 -165v-356q0 -132 -81.5 -203t-203.5 -71q-121 0 -200 71t-79 203z" />
<glyph unicode="&#x1eeb;" horiz-adv-x="661" d="M192 725l51 78l172 -105l-51 -75zM606 643h106q-3 -134 -120 -166v-477h-141v70q-27 -36 -70.5 -56.5t-94.5 -20.5q-99 0 -160.5 62.5t-61.5 173.5v325h140v-305q0 -66 33 -101.5t90 -35.5q58 0 91 35.5t33 101.5v305h78q42 6 58.5 28t18.5 61z" />
<glyph unicode="&#x1eec;" horiz-adv-x="697" d="M239 854v1q3 44 33.5 67.5t80.5 23.5q45 0 73 -24.5t28 -62.5t-22.5 -59.5t-47.5 -26.5l-1 -20h-71l-1 70q70 0 70 36q0 10 -8.5 17.5t-20.5 7.5q-33 0 -39 -30h-74zM67 267v431h140v-432q0 -71 37 -108.5t104 -37.5q68 0 105 37.5t37 108.5v432h66q47 4 65.5 26t20.5 64 h106q-3 -131 -117 -165v-356q0 -132 -81.5 -203t-203.5 -71q-121 0 -200 71t-79 203z" />
<glyph unicode="&#x1eed;" horiz-adv-x="661" d="M223 725v1q3 44 33.5 67.5t80.5 23.5q45 0 73 -24.5t28 -62.5t-22.5 -59.5t-47.5 -26.5l-1 -20h-71l-1 70q70 0 70 36q0 10 -8.5 17.5t-20.5 7.5q-33 0 -39 -30h-74zM606 643h106q-3 -134 -120 -166v-477h-141v70q-27 -36 -70.5 -56.5t-94.5 -20.5q-99 0 -160.5 62.5 t-61.5 173.5v325h140v-305q0 -66 33 -101.5t90 -35.5q58 0 91 35.5t33 101.5v305h78q42 6 58.5 28t18.5 61z" />
<glyph unicode="&#x1eee;" horiz-adv-x="697" d="M277 763h-84q4 55 33 87.5t73 32.5q24 0 53.5 -17.5t45.5 -17.5q19 0 22 33h85q-4 -59 -32 -89.5t-74 -30.5q-22 0 -53.5 18t-45.5 18q-19 0 -23 -34zM67 267v431h140v-432q0 -71 37 -108.5t104 -37.5q68 0 105 37.5t37 108.5v432h66q47 4 65.5 26t20.5 64h106 q-3 -131 -117 -165v-356q0 -132 -81.5 -203t-203.5 -71q-121 0 -200 71t-79 203z" />
<glyph unicode="&#x1eef;" horiz-adv-x="661" d="M254 635h-84q4 55 33 87.5t73 32.5q24 0 53.5 -17.5t45.5 -17.5q19 0 22 33h85q-4 -59 -32 -89.5t-74 -30.5q-22 0 -53.5 18t-45.5 18q-19 0 -23 -34zM606 643h106q-3 -134 -120 -166v-477h-141v70q-27 -36 -70.5 -56.5t-94.5 -20.5q-99 0 -160.5 62.5t-61.5 173.5v325 h140v-305q0 -66 33 -101.5t90 -35.5q58 0 91 35.5t33 101.5v305h78q42 6 58.5 28t18.5 61z" />
<glyph unicode="&#x1ef0;" horiz-adv-x="697" d="M345 -236q-34 0 -56.5 22t-22.5 54t22.5 53.5t56.5 21.5t57 -21.5t23 -53.5t-23 -54t-57 -22zM67 267v431h140v-432q0 -71 37 -108.5t104 -37.5q68 0 105 37.5t37 108.5v432h66q47 4 65.5 26t20.5 64h106q-3 -131 -117 -165v-356q0 -132 -81.5 -203t-203.5 -71 q-121 0 -200 71t-79 203z" />
<glyph unicode="&#x1ef1;" horiz-adv-x="661" d="M314 -236q-34 0 -56.5 22t-22.5 54t22.5 53.5t56.5 21.5t57 -21.5t23 -53.5t-23 -54t-57 -22zM606 643h106q-3 -134 -120 -166v-477h-141v70q-27 -36 -70.5 -56.5t-94.5 -20.5q-99 0 -160.5 62.5t-61.5 173.5v325h140v-305q0 -66 33 -101.5t90 -35.5q58 0 91 35.5 t33 101.5v305h78q42 6 58.5 28t18.5 61z" />
<glyph unicode="&#x1ef2;" horiz-adv-x="636" d="M248 243l-237 455h158l150 -319l149 319h156l-236 -455v-243h-140v243zM179 854l51 78l172 -105l-51 -75z" />
<glyph unicode="&#x1ef3;" horiz-adv-x="605" d="M305 167l145 387h149l-343 -816h-149l120 276l-222 540h157zM160 725l51 78l172 -105l-51 -75z" />
<glyph unicode="&#x1ef4;" horiz-adv-x="636" d="M248 243l-237 455h158l150 -319l149 319h156l-236 -455v-243h-140v243zM317 -236q-34 0 -56.5 22t-22.5 54t22.5 53.5t56.5 21.5t57 -21.5t23 -53.5t-23 -54t-57 -22z" />
<glyph unicode="&#x1ef5;" horiz-adv-x="605" d="M491 -236q-34 0 -56.5 22t-22.5 54t22.5 53.5t56.5 21.5t57 -21.5t23 -53.5t-23 -54t-57 -22zM305 167l145 387h149l-343 -816h-149l120 276l-222 540h157z" />
<glyph unicode="&#x1ef6;" horiz-adv-x="636" d="M214 854v1q3 44 33.5 67.5t80.5 23.5q45 0 73 -24.5t28 -62.5t-22.5 -59.5t-47.5 -26.5l-1 -20h-71l-1 70q70 0 70 36q0 10 -8.5 17.5t-20.5 7.5q-33 0 -39 -30h-74zM248 243l-237 455h158l150 -319l149 319h156l-236 -455v-243h-140v243z" />
<glyph unicode="&#x1ef7;" horiz-adv-x="605" d="M201 725v1q3 44 33.5 67.5t80.5 23.5q45 0 73 -24.5t28 -62.5t-22.5 -59.5t-47.5 -26.5l-1 -20h-71l-1 70q70 0 70 36q0 10 -8.5 17.5t-20.5 7.5q-33 0 -39 -30h-74zM305 167l145 387h149l-343 -816h-149l120 276l-222 540h157z" />
<glyph unicode="&#x1ef8;" horiz-adv-x="636" d="M248 243l-237 455h158l150 -319l149 319h156l-236 -455v-243h-140v243zM247 763h-84q4 55 33 87.5t73 32.5q24 0 53.5 -17.5t45.5 -17.5q19 0 22 33h85q-4 -59 -32 -89.5t-74 -30.5q-22 0 -53.5 18t-45.5 18q-19 0 -23 -34z" />
<glyph unicode="&#x1ef9;" horiz-adv-x="605" d="M305 167l145 387h149l-343 -816h-149l120 276l-222 540h157zM232 635h-84q4 55 33 87.5t73 32.5q24 0 53.5 -17.5t45.5 -17.5q19 0 22 33h85q-4 -59 -32 -89.5t-74 -30.5q-22 0 -53.5 18t-45.5 18q-19 0 -23 -34z" />
<glyph unicode="&#x1efa;" horiz-adv-x="0" d="M606 643h106q-4 -181 -216 -175v84q61 0 84.5 22.5t25.5 68.5z" />
<glyph unicode="&#x2000;" horiz-adv-x="545" />
<glyph unicode="&#x2001;" horiz-adv-x="1091" />
<glyph unicode="&#x2002;" horiz-adv-x="545" />
<glyph unicode="&#x2003;" horiz-adv-x="1091" />
<glyph unicode="&#x2004;" horiz-adv-x="363" />
<glyph unicode="&#x2005;" horiz-adv-x="272" />
<glyph unicode="&#x2006;" horiz-adv-x="181" />
<glyph unicode="&#x2007;" horiz-adv-x="181" />
<glyph unicode="&#x2008;" horiz-adv-x="136" />
<glyph unicode="&#x2009;" horiz-adv-x="218" />
<glyph unicode="&#x200a;" horiz-adv-x="60" />
<glyph unicode="&#x200c;" horiz-adv-x="0" d="M24 -230h-47v1041h47v-1041z" />
<glyph unicode="&#x200d;" horiz-adv-x="0" d="M128 593l-33 -33l-72 75v-865h-47v865l-69 -73l-33 33l93 93l-95 95l33 33l95 -95l96 95l32 -32l-96 -96z" />
<glyph unicode="&#x2010;" horiz-adv-x="583" d="M71 298v118h424v-118h-424z" />
<glyph unicode="&#x2011;" horiz-adv-x="583" d="M71 298v118h424v-118h-424z" />
<glyph unicode="&#x2012;" horiz-adv-x="583" d="M71 298v118h424v-118h-424z" />
<glyph unicode="&#x2013;" horiz-adv-x="702" d="M79 298v118h544v-118h-544z" />
<glyph unicode="&#x2014;" horiz-adv-x="927" d="M79 298v118h769v-118h-769z" />
<glyph unicode="&#x2018;" horiz-adv-x="275" d="M139 698h96l-57 -252h-147z" />
<glyph unicode="&#x2019;" horiz-adv-x="275" d="M136 446h-96l57 252h147z" />
<glyph unicode="&#x201a;" horiz-adv-x="220" d="M12 -144l67 298h148l-124 -298h-91z" />
<glyph unicode="&#x201c;" horiz-adv-x="480" d="M139 698h96l-57 -252h-147zM341 698h96l-57 -252h-147z" />
<glyph unicode="&#x201d;" horiz-adv-x="486" d="M347 446h-96l57 252h147zM145 446h-96l57 252h147z" />
<glyph unicode="&#x201e;" horiz-adv-x="510" d="M12 -144l67 298h148l-124 -298h-91zM267 -144l67 298h148l-124 -298h-91z" />
<glyph unicode="&#x2020;" horiz-adv-x="617" d="M364 543l203 11v-108l-203 12l14 -722h-140l14 722l-203 -12v108l203 -11l-14 243h140z" />
<glyph unicode="&#x2021;" horiz-adv-x="617" d="M567 554v-108l-203 12v-393l203 11v-108l-203 12l14 -244h-140l14 244l-202 -12v108l202 -11v393l-202 -12v108l202 -11l-14 243h140l-14 -243z" />
<glyph unicode="&#x2022;" horiz-adv-x="480" d="M239 194q-58 0 -98.5 40.5t-40.5 98.5q0 59 40.5 99.5t98.5 40.5q59 0 100 -40.5t41 -99.5q0 -58 -41 -98.5t-100 -40.5z" />
<glyph unicode="&#x2026;" horiz-adv-x="695" d="M435 75q0 -35 -24 -58.5t-61 -23.5q-38 0 -62.5 23.5t-24.5 58.5t24.5 58.5t62.5 23.5q37 0 61 -23.5t24 -58.5zM655 75q0 -35 -24 -58.5t-61 -23.5q-38 0 -62.5 23.5t-24.5 58.5t24.5 58.5t62.5 23.5q37 0 61 -23.5t24 -58.5zM216 75q0 -35 -24 -58.5t-61 -23.5 q-38 0 -62.5 23.5t-24.5 58.5t24.5 58.5t62.5 23.5q37 0 61 -23.5t24 -58.5z" />
<glyph unicode="&#x202f;" horiz-adv-x="218" />
<glyph unicode="&#x2030;" horiz-adv-x="1116" d="M36 550q0 75 44.5 117.5t114.5 42.5t114.5 -42.5t44.5 -117.5t-44.5 -118t-114.5 -43t-114.5 43t-44.5 118zM194 626q-55 0 -55 -76q0 -77 55 -77q57 0 57 77q0 76 -57 76zM118 0l392 700h137l-393 -700h-136zM412 151q0 75 44.5 117t114.5 42t114 -42t44 -117 q0 -76 -44 -118.5t-114 -42.5t-114.5 42.5t-44.5 118.5zM570 227q-56 0 -56 -76q0 -77 56 -77t56 77q0 76 -56 76zM763 151q0 75 44.5 117t114.5 42t114.5 -42t44.5 -117q0 -76 -44.5 -118.5t-114.5 -42.5t-114.5 42.5t-44.5 118.5zM921 227q-55 0 -55 -76q0 -77 55 -77 q57 0 57 77q0 76 -57 76z" />
<glyph unicode="&#x2039;" horiz-adv-x="316" d="M174 295l92 -175h-133l-88 175l88 175h133z" />
<glyph unicode="&#x203a;" horiz-adv-x="316" d="M182 120h-132l91 175l-91 175h132l89 -175z" />
<glyph unicode="&#x2044;" horiz-adv-x="579" d="M32 0l392 700h138l-393 -700h-137z" />
<glyph unicode="&#x205f;" horiz-adv-x="272" />
<glyph unicode="&#x20a8;" horiz-adv-x="1167" d="M439 482q0 103 -113 103h-117v-206h117q113 0 113 103zM69 698h262q121 0 186.5 -60.5t65.5 -152.5q0 -71 -42 -126.5t-126 -74.5l176 -284h-165l-163 275h-54v-275h-140v698zM636 393q0 71 60.5 120.5t163.5 49.5q100 0 160 -49.5t68 -133.5h-141q-4 35 -28.5 55 t-64.5 20t-62.5 -17t-22.5 -44q0 -26 24 -42t60.5 -22.5t78.5 -18t78.5 -25.5t60.5 -46.5t24 -81.5q0 -73 -61 -120t-159 -47q-103 0 -166.5 48t-71.5 136h142q3 -36 28.5 -56t66.5 -20q42 0 64.5 17t22.5 45q0 31 -33.5 47.5t-81.5 25.5t-95.5 22t-81 47t-33.5 90z" />
<glyph unicode="&#x20ac;" horiz-adv-x="799" d="M90 350q0 14 2 38h-69v83h86q35 108 125.5 172t209.5 64q117 0 204.5 -60t122.5 -166h-160q-52 97 -168 97q-61 0 -108.5 -28t-73.5 -79h192v-83h-217q-2 -24 -2 -38q0 -12 2 -36h217v-83h-193q26 -51 74 -80t109 -29q117 0 168 98h160q-35 -107 -122.5 -166.5 t-204.5 -59.5q-120 0 -210.5 64.5t-125.5 172.5h-85v83h69q-2 24 -2 36z" />
<glyph unicode="&#x20b9;" horiz-adv-x="611" d="M42 601v98h537v-98h-101v-76h101v-92h-107q-16 -95 -78.5 -138t-188.5 -43v-53q0 -101 86 -101q85 0 85 100h130q-2 -101 -57 -154.5t-157 -53.5q-106 0 -162 57t-56 166v133q81 0 123 2.5t76.5 11.5t48 26t19.5 47h-299v92h304v76h-304z" />
<glyph unicode="&#x20ba;" horiz-adv-x="842" d="M295 704v-176l150 31v-92l-150 -31v-72l148 30v-92l-148 -30v-145q33 -7 78 -7q67 0 113.5 22.5t71.5 67t35.5 100t10.5 131.5h144q0 -235 -87.5 -344t-286.5 -109q-93 0 -222 27v227l-138 -28v93l138 28v72l-141 -29v90l141 30v206h143z" />
<glyph unicode="&#x20bd;" horiz-adv-x="653" d="M254 590v-204h114q55 0 83 27.5t28 74.5t-28 74.5t-83 27.5h-114zM22 278v108h92v312h257q121 0 186.5 -59t65.5 -151q0 -89 -63 -149.5t-189 -60.5h-117v-72h178v-110h-178v-96h-140v96h-92v110h92v72h-92z" />
<glyph unicode="&#x2113;" horiz-adv-x="278" d="M69 0v740h140v-740h-140z" />
<glyph unicode="&#x2122;" horiz-adv-x="844" d="M25 623v82h265v-82h-80v-270h-105l1 270h-81zM345 353v352h139l85 -226l92 226h130v-352h-97l-2 221l-91 -221h-71l-91 229v-229h-94z" />
<glyph unicode="&#x2126;" horiz-adv-x="786" d="M37 358q0 155 102.5 252.5t253.5 97.5q152 0 254.5 -97.5t102.5 -252.5q0 -163 -114 -250h106v-108h-272v112q62 32 99.5 92t37.5 141q0 109 -59 171.5t-155 62.5t-154.5 -63t-58.5 -171q0 -82 37 -142t100 -91v-112h-273v108h106q-113 86 -113 250z" />
<glyph unicode="&#x212e;" horiz-adv-x="753" d="M685 135q-134 -142 -300 -142q-152 0 -249 91t-97 250q0 163 90 268.5t247 105.5q156 0 247 -97t91 -231v-62h-506v-173q73 -67 177 -67q132 0 248 116zM208 397h332v170q-61 59 -164 59q-104 0 -168 -67v-162z" />
<glyph unicode="&#x2202;" horiz-adv-x="599" d="M410 319q0 60 -25 92t-67 32q-61 0 -100 -58t-39 -145q0 -64 24.5 -96.5t65.5 -32.5q61 0 101 60.5t40 147.5zM36 240q0 135 80 227.5t194 92.5q69 0 113 -48q-20 147 -145 147q-33 0 -72 -10v75q49 16 105 16q120 0 186 -90t66 -242q0 -190 -87.5 -303t-221.5 -113 q-96 0 -157 63t-61 185z" />
<glyph unicode="&#x2206;" horiz-adv-x="714" d="M20 108l280 592h115l279 -592v-108h-674v108zM550 108l-193 432l-193 -432h386z" />
<glyph unicode="&#x220f;" horiz-adv-x="744" d="M26 592v108h692v-108h-74v-592h-140v592h-264v-592h-141v592h-73z" />
<glyph unicode="&#x2211;" horiz-adv-x="506" d="M40 537v163h426v-108h-303l254 -208v-108l-257 -222h306v-107h-426v164l245 216z" />
<glyph unicode="&#x2212;" horiz-adv-x="566" d="M71 298v118h424v-118h-424z" />
<glyph unicode="&#x2215;" horiz-adv-x="486" d="M37 -181l270 1128h137l-270 -1128h-137z" />
<glyph unicode="&#x2219;" horiz-adv-x="270" d="M223 326q0 -35 -24 -58.5t-61 -23.5q-38 0 -62.5 23.5t-24.5 58.5t24.5 58.5t62.5 23.5q37 0 61 -23.5t24 -58.5z" />
<glyph unicode="&#x221a;" horiz-adv-x="876" d="M346 -42h-70l-140 248l-75 -44l-40 67l197 117l125 -225l426 770h92z" />
<glyph unicode="&#x221e;" horiz-adv-x="737" d="M207 281q58 0 101 59q-31 37 -53.5 55.5t-47.5 18.5q-29 0 -47 -17.5t-18 -49.5q0 -31 18 -48.5t47 -17.5zM530 281q29 0 47 17.5t18 49.5t-17.5 49t-47.5 17q-29 0 -57.5 -17.5t-47.5 -47.5q55 -68 105 -68zM28 347q0 75 48.5 119.5t120.5 44.5q94 0 174 -93 q63 94 170 93q74 -1 121 -44.5t47 -118.5t-48.5 -119.5t-120.5 -44.5q-93 0 -176 89q-64 -90 -168 -89q-75 1 -121.5 44t-46.5 119z" />
<glyph unicode="&#x222b;" horiz-adv-x="280" d="M27 -72l89 837q9 91 58.5 129.5t134.5 38.5h20l-12 -118h-16q-21 0 -31.5 -12t-13.5 -38l-88 -837q-10 -91 -59.5 -129.5t-135.5 -38.5h-19l12 118h17q38 0 44 50z" />
<glyph unicode="&#x2248;" horiz-adv-x="592" d="M32 153q32 189 178 189q45 0 100 -32.5t81 -32.5q56 0 65 64h104q-33 -189 -179 -189q-35 0 -67.5 16t-60.5 32.5t-52 16.5q-26 0 -44 -16.5t-23 -47.5h-102zM32 388q32 189 178 189q45 0 100 -32.5t81 -32.5q56 0 65 64h104q-33 -189 -179 -189q-35 0 -67.5 16.5 t-60.5 32.5t-52 16q-26 0 -44 -16.5t-23 -47.5h-102z" />
<glyph unicode="&#x2260;" horiz-adv-x="721" d="M96 79l79 96h-79v122h180l97 118h-277v122h378l78 95h89l-78 -95h78v-122h-179l-97 -118h276v-122h-376l-79 -96h-90z" />
<glyph unicode="&#x2264;" horiz-adv-x="535" d="M80 36v107h383v-107h-383zM467 205h-180l-218 187l218 188h180l-218 -187z" />
<glyph unicode="&#x2265;" horiz-adv-x="535" d="M248 205h-179l217 188l-217 187h179l219 -188zM72 143h383v-107h-383v107z" />
<glyph unicode="&#x25ca;" horiz-adv-x="561" d="M26 352l255 254l254 -254l-254 -255zM392 352l-111 111l-111 -111l111 -112z" />
<glyph unicode="&#x25cc;" horiz-adv-x="651" d="M557 409q0 -19 -12 -30.5t-31 -11.5t-31 11.5t-12 30.5t12 30.5t31 11.5t31 -11.5t12 -30.5zM181 123q0 -19 -12 -30.5t-31 -11.5t-31 11.5t-12 30.5t12 30.5t31 11.5t31 -11.5t12 -30.5zM279 47q0 -19 -12 -30.5t-31 -11.5t-31 11.5t-12 30.5t12 30.5t31 11.5t31 -11.5 t12 -30.5zM136 236q0 -19 -12 -30.5t-31 -11.5t-31 11.5t-12 30.5t12 30.5t31 11.5t31 -11.5t12 -30.5zM403 33q0 -19 -12 -30.5t-31 -11.5t-31 11.5t-12 30.5t12 30.5t31 11.5t31 -11.5t12 -30.5zM151 357q0 -19 -12 -30.5t-31 -11.5t-31 11.5t-12 30.5t12 30.5t31 11.5 t31 -11.5t12 -30.5zM518 79q0 -19 -12 -30.5t-31 -11.5t-31 11.5t-12 30.5t12 30.5t31 11.5t31 -11.5t12 -30.5zM227 456q0 -19 -12 -30.5t-31 -11.5t-31 11.5t-12 30.5t12 30.5t31 11.5t31 -11.5t12 -30.5zM591 175q0 -19 -12 -30.5t-31 -11.5t-31 11.5t-12 30.5t12 30.5 t31 11.5t31 -11.5t12 -30.5zM344 498q0 -19 -12 -30.5t-31 -11.5t-31 11.5t-12 30.5t12 30.5t31 11.5t31 -11.5t12 -30.5zM601 295q0 -19 -12 -30.5t-31 -11.5t-31 11.5t-12 30.5t12 30.5t31 11.5t31 -11.5t12 -30.5zM465 483q0 -19 -12 -30.5t-31 -11.5t-31 11.5t-12 30.5 t12 30.5t31 11.5t31 -11.5t12 -30.5z" />
<glyph unicode="&#x25fc;" horiz-adv-x="555" d="M0 555h555v-555h-555v555z" />
<glyph unicode="&#xfb01;" horiz-adv-x="624" d="M84 0v439h-63v115h63v28q0 201 229 195v-118q-48 1 -67.5 -17t-19.5 -65v-23h323v-554h-140v439h-183v-439h-142zM479 627q-34 0 -56.5 22t-22.5 54t22.5 53.5t56.5 21.5t57 -21.5t23 -53.5t-23 -54t-57 -22z" />
<glyph unicode="&#xfb02;" horiz-adv-x="623" d="M84 0v439h-63v115h63v28q0 201 233 195v-118q-51 1 -71 -17t-20 -65v-23h97v-115h-97v-439h-142zM414 0v740h140v-740h-140z" />
<glyph horiz-adv-x="838" d="M206 552q0 -44 33 -71.5t88 -29.5q67 42 67 100q0 38 -26.5 63t-68.5 25q-39 0 -66 -23.5t-27 -63.5zM376 -60v155q-17 -26 -51 -45t-81 -19q-80 0 -130.5 47t-50.5 123q0 71 41 114t114 80q-56 17 -92 59t-36 107q0 84 60.5 136.5t152.5 52.5q85 0 141.5 -46t56.5 -128 q0 -74 -55 -126h178v290h235v-108h-111v-632h-124v356h-302q-33 -15 -50 -24.5t-37.5 -25t-29.5 -35t-9 -43.5q0 -38 26 -64t67 -26q45 0 71.5 30t26.5 71h107v-299h-118z" />
<glyph horiz-adv-x="829" d="M611 0v408h-164q73 -48 73 -143q0 -81 -51.5 -130t-131.5 -49q-99 0 -153 66v-138h-125v282h120q5 -48 38 -76t80 -28q49 0 77 29t28 74q0 54 -36 83.5t-90 29.5h-33v103h368v121h-632v108h870v-108h-111v-632h-127z" />
<glyph horiz-adv-x="715" d="M433 0v162q-50 -85 -165 -85q-95 0 -152 64t-57 169t58.5 168.5t155.5 63.5q109 0 160 -81v171h-454v108h938v-108h-360v-173q47 83 155 83q93 0 149 -65.5t56 -166.5h-131q0 53 -32 87t-82 34q-56 0 -85.5 -38t-29.5 -92v-301h-124zM311 185q58 0 90 37.5t32 86.5 q0 50 -31.5 86.5t-89.5 36.5q-52 0 -87 -34t-35 -89q0 -56 34 -90t87 -34z" />
<glyph horiz-adv-x="672" d="M-21 632v108h875v-108h-485v-110q0 -100 -46 -153t-123 -59v-61q0 -64 38.5 -103.5t106.5 -39.5q85 0 127 68q-64 56 -64 151q0 94 62.5 149t161.5 55t160.5 -55t61.5 -149q0 -96 -62.5 -151t-159.5 -55q-35 0 -63 7q-33 -59 -91 -95t-136 -36q-125 0 -197.5 71 t-72.5 198v137h30q67 0 102 32t35 106v93h-260zM522 325q0 -49 30 -78.5t80 -29.5t79.5 29.5t29.5 78.5t-29.5 78.5t-79.5 29.5t-80 -29.5t-30 -78.5z" />
<glyph horiz-adv-x="521" d="M-21 632v108h563v-108h-118v-242q0 -89 -47 -144.5t-143 -55.5q-93 0 -143.5 51t-50.5 142q0 21 1 31h125v-31q0 -83 65 -83q63 0 63 84v248h-315z" />
<glyph horiz-adv-x="398" d="M-21 632v108h614v-108h-378v-52q0 -97 108 -97h42v-104h-52q-55 0 -82.5 -23.5t-27.5 -61.5q0 -44 33 -67t86 -23q75 0 118.5 43t43.5 111h109q0 -111 -73.5 -185.5t-197.5 -74.5q-117 0 -183.5 47t-66.5 136q0 58 34 97t83 50v3q-103 23 -103 143v58h-107z" />
<glyph horiz-adv-x="686" d="M601 308q-30 0 -50.5 20.5t-20.5 49.5q0 30 20.5 50.5t50.5 20.5t50.5 -20.5t20.5 -50.5q0 -29 -20.5 -49.5t-50.5 -20.5zM379 -298l-126 214h129l130 -214h-133zM-21 632v108h728v-108h-236v-183h-182q-87 0 -87 -60t78 -60h45q86 0 145.5 -41.5t59.5 -131.5 q0 -80 -57 -127t-162 -47q-111 0 -180 51.5t-73 141.5h129q1 -44 33.5 -69.5t86.5 -25.5q48 0 74.5 21t26.5 56q0 81 -107 81h-37q-34 0 -64.5 6.5t-60.5 22.5t-48 48.5t-18 77.5q0 74 51.5 110.5t130.5 36.5h91v92h-367z" />
<glyph horiz-adv-x="447" d="M50 416v102h367v-102h-39q-53 0 -85.5 -31t-32.5 -80q0 -51 35.5 -80t88.5 -29q65 1 104 47t39 118h111q2 -122 -70 -197.5t-197 -75.5q-104 0 -168.5 50.5t-64.5 144.5q0 85 62 133h-150zM-21 632v108h659v-108h-659z" />
<glyph horiz-adv-x="821" d="M-21 632v108h863v-108h-629v-79q0 -96 100 -96h20v-104h-18q-58 0 -88 -27t-30 -70q0 -60 51.5 -91.5t152.5 -31.5q123 0 193 53.5t70 150.5q0 51 -23.5 81t-58.5 30q-33 0 -56 -24t-23 -69q0 -36 15 -83h-107q-16 43 -16 97q0 87 54 130.5t134 43.5q86 0 140 -55.5 t54 -155.5q0 -143 -101 -226t-276 -83q-152 0 -243 56.5t-91 164.5q0 62 32.5 102t88.5 56v3q-103 22 -103 143v84h-105z" />
<glyph horiz-adv-x="548" d="M276 112q-103 0 -159.5 59t-56.5 156v165h131v-162q0 -48 22.5 -76.5t62.5 -28.5q42 0 65 28t23 77v162h337v-110h-211v-55q0 -96 -58 -155.5t-156 -59.5zM-21 632v108h722v-108h-722z" />
<glyph horiz-adv-x="564" d="M212 50v-131h-122v251h116q4 -38 33 -62.5t78 -24.5q43 0 65.5 21t22.5 52q0 39 -27.5 60.5t-80.5 21.5h-59q-71 3 -120 40t-49 111q0 78 52 115.5t131 37.5h91v90h-364v108h710v-108h-222v-183h-181q-88 0 -88 -61q0 -59 79 -59h412v-97h-192q27 -37 27 -92 q0 -67 -44 -109.5t-124 -42.5q-91 0 -144 62z" />
<glyph horiz-adv-x="537" d="M288 67q-97 0 -159 52t-70 135h122q9 -34 37.5 -56t70.5 -22q55 0 85 37t30 93q0 54 -30.5 91t-84.5 37q-42 0 -70.5 -22.5t-37.5 -55.5h-122q8 84 69.5 136t159.5 52q91 0 150.5 -48.5t75.5 -130.5h161v-109h-159q-14 -87 -74.5 -138t-153.5 -51zM-21 632v108h696v-108 h-696z" />
<glyph horiz-adv-x="648" d="M405 -251l-126 214h129l130 -214h-133zM-21 632v108h689v-108h-188v-200h-123q-74 0 -121 -38.5t-47 -110.5q0 -63 41.5 -103t107.5 -40q68 0 109.5 42t41.5 108h123q0 -118 -74.5 -190t-197.5 -72q-124 0 -202.5 70.5t-78.5 184.5q0 120 78.5 189t211.5 69h5v91h-375z " />
<glyph horiz-adv-x="673" d="M336 144q67 0 108.5 41t41.5 105t-41.5 104.5t-108.5 40.5q-65 0 -106.5 -40.5t-41.5 -104.5t41.5 -105t106.5 -41zM336 36q-120 0 -198.5 69.5t-78.5 184.5q0 101 59.5 165.5t152.5 82.5v94h-292v108h714v-108h-294v-94q94 -17 154.5 -82t60.5 -166q0 -115 -79 -184.5 t-199 -69.5zM404 -243l-126 214h129l130 -214h-133z" />
<glyph horiz-adv-x="569" d="M368 -298l-126 214h129l130 -214h-133zM-21 632v108h610v-108h-122v-183h-178q-87 0 -87 -60t78 -60h45q86 0 145.5 -41.5t59.5 -131.5q0 -80 -57 -127t-162 -47q-111 0 -180 51.5t-73 141.5h129q1 -44 33.5 -69.5t86.5 -25.5q48 0 74.5 21t26.5 56q0 81 -107 81h-37 q-34 0 -64.5 6.5t-60.5 22.5t-48 48.5t-18 77.5q0 74 51.5 110.5t130.5 36.5h88v92h-364z" />
<glyph horiz-adv-x="650" d="M412 -282l-126 214h129l130 -214h-133zM-21 632v108h691v-108h-170v-174h-108q-92 0 -150 -48t-58 -138q0 -80 51 -130.5t141 -50.5q62 0 102.5 29t40.5 78q0 32 -20.5 53t-51.5 21q-28 0 -47 -17.5t-19 -45.5q0 -11 3 -18h-93q-4 24 -4 36q0 65 46 101.5t119 36.5 q82 0 129.5 -46t47.5 -121q0 -93 -67.5 -146.5t-188.5 -53.5q-137 0 -225.5 75t-88.5 203q0 129 81.5 200t210.5 71h27v85h-399z" />
<glyph horiz-adv-x="577" d="M-21 632v108h618v-108h-93v-260q0 -95 -54.5 -154t-155.5 -59q-100 0 -154.5 60t-54.5 153v260h-106zM295 268q39 0 60.5 25t21.5 67v272h-166v-272q0 -41 22.5 -66.5t61.5 -25.5z" />
<glyph horiz-adv-x="387" d="M549 383h-199q-74 0 -117 -36t-43 -103q0 -66 38 -103.5t111 -37.5h20v-101h-40q-116 0 -188 62t-72 183q0 124 79 185.5t206 61.5h205v-111zM-21 632v108h570v-108h-570z" />
<glyph horiz-adv-x="474" d="M675 357q0 -123 -89 -196t-221 -73q-140 0 -220.5 74.5t-80.5 206.5q0 37 5 64h91q193 0 193 123q0 36 -21 59.5t-57 23.5q-38 0 -60 -23.5t-22 -63.5q0 -14 4 -38h-117q-4 26 -4 41q0 91 56.5 142.5t143.5 51.5q89 0 143.5 -54.5t54.5 -142.5q0 -100 -69.5 -156 t-194.5 -56h-21q4 -64 47 -104t126 -40q89 0 145.5 43t56.5 118h111z" />
<glyph horiz-adv-x="610" d="M540 -306l-126 214h129l130 -214h-133zM-21 632v108h653l-1 -108h-125v-202h-167q-66 0 -107 -34t-41 -95q0 -55 33 -87.5t88 -32.5q45 0 77.5 28t32.5 80h119v-316h-126v165q-46 -60 -140 -60q-93 0 -154.5 59.5t-61.5 167.5q0 112 74.5 174t192.5 62h50v91h-397z" />
<glyph horiz-adv-x="428" d="M327 84q-111 0 -180 45.5t-69 134.5q0 60 35 97.5t82 46.5v4q-53 14 -89 56t-36 109q0 77 50.5 124.5t130.5 47.5q82 0 128.5 -45.5t46.5 -119.5q0 -16 -2 -38h-96q1 12 1 22q0 32 -20 52.5t-54 20.5t-54.5 -22t-20.5 -56q0 -48 38.5 -73.5t97.5 -25.5h59v-104h-53 q-54 0 -83.5 -22t-29.5 -60q0 -44 37.5 -65t92.5 -21q83 0 128.5 37.5t45.5 99.5h113q0 -110 -81.5 -177.5t-217.5 -67.5z" />
<glyph horiz-adv-x="512" d="M271 87q-92 0 -154 56t-62 150q0 98 64 152t163 54h393v-108h-235q35 -48 35 -115q0 -88 -58 -138.5t-146 -50.5zM273 196q43 0 71 27.5t28 70.5q0 42 -28 69.5t-71 27.5q-45 0 -73.5 -27.5t-28.5 -70.5t28.5 -70t73.5 -27zM-21 632v108h696v-108h-696z" />
<glyph horiz-adv-x="358" d="M-21 632v108h578v-108h-353v-204q0 -68 31 -106.5t94 -38.5q57 0 89 37.5t32 93.5h107q0 -106 -63 -173t-175 -67q-118 0 -181.5 69.5t-63.5 184.5v204h-95z" />
<glyph horiz-adv-x="714" d="M318 283q54 0 84 35.5t30 89.5v224h-228v-210q0 -65 28.5 -102t85.5 -37zM-21 632v108h948v-108h-366v-172q51 82 162 82q97 0 150.5 -64t53.5 -168h-131q0 55 -29.5 88t-84.5 33q-60 0 -90.5 -41t-30.5 -103v-287h-129v239q-49 -65 -146 -65q-102 0 -157 68t-55 180v210 h-95z" />
<glyph horiz-adv-x="397" d="M320 70q-118 0 -189.5 68.5t-71.5 175.5q0 105 71 172t189 67q125 0 191.5 -70t66.5 -168q0 -104 -67.5 -174.5t-189.5 -70.5zM323 464q-58 0 -103 -35l238 -191q18 33 18 73q0 62 -41 107.5t-112 45.5zM-21 632v108h601v-108h-601zM323 160q59 0 101 35l-239 191 q-18 -34 -18 -75q0 -69 45.5 -110t110.5 -41z" />
<glyph horiz-adv-x="529" d="M268 185q40 0 61.5 28t21.5 76v66h-71q-44 0 -70.5 -22.5t-26.5 -62.5q0 -39 24 -62t61 -23zM270 76q-93 0 -150 53t-57 140q0 92 60 141.5t154 49.5h74v83q0 96 -68 96q-31 0 -50 -22t-19 -58q0 -18 4 -34h-130q-4 22 -4 39q0 83 50.5 134t143.5 51q194 0 194 -229v-60 h200v-105h-200v-59q0 -104 -52.5 -162t-149.5 -58z" />
<glyph horiz-adv-x="522" d="M247 185q40 0 62.5 28t22.5 76v66h-72q-44 0 -70.5 -22.5t-26.5 -62.5q0 -39 23.5 -62t60.5 -23zM-21 632v108h689v-108h-216v-172h216v-105h-216v-59q0 -104 -52.5 -162t-150.5 -58q-93 0 -149.5 53t-56.5 140q0 92 59.5 141.5t153.5 49.5h76v172h-353z" />
<glyph horiz-adv-x="436" d="M648 355q2 -113 -78.5 -188t-214.5 -75q-137 0 -216 75.5t-79 207.5q0 18 4 56h12q84 0 121.5 36t37.5 111v54h-256v108h669v-108h-285v-77q0 -178 -175 -193q0 -76 47.5 -118.5t124.5 -42.5q75 0 122.5 43.5t47.5 110.5h118z" />
<glyph horiz-adv-x="533" d="M333 -290l-126 214h129l130 -214h-133zM-21 632v108h574v-108h-98v-69q0 -249 -235 -249h-22v-113q0 -45 20.5 -72.5t60.5 -27.5q37 0 58.5 25.5t21.5 67.5v25h124q1 -9 1 -21q0 -95 -54 -151t-149 -56q-102 0 -156.5 60t-54.5 156v212h103q80 0 116.5 36.5t36.5 107.5 v69h-347z" />
<glyph horiz-adv-x="648" d="M456 406q46 125 179 125q93 0 154.5 -62.5t61.5 -173.5l-131 -2q0 55 -27.5 90t-77.5 35q-53 0 -79.5 -39.5t-26.5 -103.5v-21h-108v21q0 63 -26 103t-77 40q-52 0 -80 -34.5t-28 -90.5q0 -62 34 -99t93 -37q7 0 27 2v-113q-26 -2 -34 -2q-119 0 -185 69.5t-66 181.5 q0 113 62.5 174.5t158.5 61.5q130 0 173 -125h3zM-21 632v108h872v-108h-872z" />
<glyph horiz-adv-x="372" d="M318 75q-119 0 -189 66t-70 173q0 103 70.5 167.5t188.5 64.5q127 0 194.5 -69.5t67.5 -167.5q0 -96 -68.5 -165t-193.5 -69zM321 177q64 0 99.5 40t35.5 93q0 55 -35.5 94t-99.5 39q-59 0 -98 -36.5t-39 -95.5q0 -61 38 -97.5t99 -36.5zM-21 632v108h601v-108h-601z" />
<glyph horiz-adv-x="547" d="M305 -8q-108 0 -169 62.5t-61 168.5v185h142q79 0 130 31.5t51 98.5q0 45 -24.5 72t-66.5 27t-66 -27t-24 -72q0 -6 0.5 -18.5t0.5 -19.5h-128q-3 21 -3 42q0 92 60 149.5t160 57.5t160.5 -57.5t60.5 -161.5q0 -113 -73.5 -172t-190.5 -59h-58v-85q0 -50 23 -80t73 -30 q42 0 66 27.5t24 73.5v14h126v-16q0 -99 -57 -155t-156 -56z" />
<glyph horiz-adv-x="385" d="M331 274q49 0 81 22.5t43 56.5l-256 187v-116q0 -150 132 -150zM-21 632v108h591v-108h-370l370 -265q0 -79 -65 -140.5t-179 -61.5q-122 0 -187 72t-65 191v204h-95z" />
<glyph horiz-adv-x="516" d="M-21 632v108h651v-108h-197v-76q0 -76 -35 -132h232v-105h-432v-116q0 -46 21 -74t63 -28q39 0 61 26t22 67v13h124q1 -8 1 -19q0 -91 -55 -144t-151 -53q-102 0 -158 60.5t-56 157.5v202h81q154 0 154 145v76h-326z" />
<glyph horiz-adv-x="586" d="M537 71q-9 -80 -71.5 -130t-159.5 -50q-112 0 -176.5 63t-64.5 165q0 120 97 181q-73 39 -73 117q0 60 43.5 94t117.5 34h100v87h-371v108h627v-108h-133v-180h-177q-79 0 -79 -60q0 -40 41 -58q21 4 50 4q103 0 161 -50t68 -128h-124q-7 30 -35 52.5t-72 22.5 q-52 0 -83.5 -33t-31.5 -86t31.5 -85.5t83.5 -32.5q42 0 70.5 21.5t36.5 51.5h124zM365 -388l-126 214h129l130 -214h-133z" />
<glyph horiz-adv-x="975" d="M287 69q-97 0 -162.5 63.5t-65.5 165.5q0 104 65 168t162 64q137 0 200 -123h3q61 123 199 123q97 0 162.5 -64t65.5 -168q0 -102 -65.5 -165.5t-162.5 -63.5q-70 0 -122.5 33.5t-76.5 91.5h-4q-23 -58 -75.5 -91.5t-122.5 -33.5zM305 179q53 0 86 33.5t33 85.5 q0 54 -33 88t-86 34t-86.5 -34t-33.5 -89q0 -53 34 -85.5t86 -32.5zM669 179q53 0 86.5 32.5t33.5 85.5q0 55 -33 89t-86 34t-86 -34t-33 -88q0 -53 33 -86t85 -33zM-21 632v108h1016v-108h-1016z" />
<glyph horiz-adv-x="548" d="M206 552q0 -44 33 -71.5t88 -29.5q67 42 67 100q0 38 -26.5 63t-68.5 25q-39 0 -66 -23.5t-27 -63.5zM376 -60v155q-17 -26 -51 -45t-81 -19q-80 0 -130.5 47t-50.5 123q0 71 41 114t114 80q-56 17 -92 59t-36 107q0 84 60.5 136.5t152.5 52.5q85 0 141.5 -46t56.5 -128 q0 -74 -55 -126h226v-94h-350q-33 -15 -50 -24.5t-37.5 -25t-29.5 -35t-9 -43.5q0 -38 26 -64t67 -26q45 0 71.5 30t26.5 71h107v-299h-118z" />
<glyph horiz-adv-x="541" d="M-21 632v108h731v-108h-731zM243 408v103h467v-103h-263q73 -48 73 -143q0 -81 -51.5 -130t-131.5 -49q-99 0 -153 66v-138h-125v282h120q5 -48 38 -76t80 -28q49 0 77 29t28 74q0 54 -36 83.5t-90 29.5h-33z" />
<glyph horiz-adv-x="715" d="M433 0v162q-50 -85 -165 -85q-95 0 -152 64t-57 169t58.5 168.5t155.5 63.5q109 0 160 -81v171h-454v108h938v-108h-360v-173q47 83 155 83q93 0 149 -65.5t56 -166.5h-131q0 53 -32 87t-82 34q-56 0 -85.5 -38t-29.5 -92v-301h-124zM249 -145q-32 0 -55 22.5t-23 54.5 q0 33 23 56t55 23q33 0 56 -23t23 -56q0 -32 -23 -54.5t-56 -22.5zM311 185q58 0 90 37.5t32 86.5q0 50 -31.5 86.5t-89.5 36.5q-52 0 -87 -34t-35 -89q0 -56 34 -90t87 -34z" />
<glyph horiz-adv-x="672" d="M-21 632v108h875v-108h-485v-110q0 -100 -46 -153t-123 -59v-61q0 -64 38.5 -103.5t106.5 -39.5q85 0 127 68q-64 56 -64 151q0 94 62.5 149t161.5 55t160.5 -55t61.5 -149q0 -96 -62.5 -151t-159.5 -55q-35 0 -63 7q-33 -59 -91 -95t-136 -36q-125 0 -197.5 71 t-72.5 198v137h30q67 0 102 32t35 106v93h-260zM321 -224q-32 0 -55 22.5t-23 54.5q0 33 23 56t55 23q33 0 56 -23t23 -56q0 -32 -23 -54.5t-56 -22.5zM522 325q0 -49 30 -78.5t80 -29.5t79.5 29.5t29.5 78.5t-29.5 78.5t-79.5 29.5t-80 -29.5t-30 -78.5z" />
<glyph horiz-adv-x="521" d="M-21 632v108h563v-108h-118v-242q0 -89 -47 -144.5t-143 -55.5q-93 0 -143.5 51t-50.5 142q0 21 1 31h125v-31q0 -83 65 -83q63 0 63 84v248h-315zM236 -34q-32 0 -55 22.5t-23 54.5q0 33 23 56t55 23q33 0 56 -23t23 -56q0 -32 -23 -54.5t-56 -22.5z" />
<glyph horiz-adv-x="548" d="M276 112q-103 0 -159.5 59t-56.5 156v165h131v-162q0 -48 22.5 -76.5t62.5 -28.5q42 0 65 28t23 77v162h337v-110h-211v-55q0 -96 -58 -155.5t-156 -59.5zM-21 632v108h722v-108h-722zM278 -109q-32 0 -55 22.5t-23 54.5q0 33 23 56t55 23q33 0 56 -23t23 -56 q0 -32 -23 -54.5t-56 -22.5z" />
<glyph horiz-adv-x="714" d="M318 283q54 0 84 35.5t30 89.5v224h-228v-210q0 -65 28.5 -102t85.5 -37zM-21 632v108h948v-108h-366v-172q51 82 162 82q97 0 150.5 -64t53.5 -168h-131q0 55 -29.5 88t-84.5 33q-60 0 -90.5 -41t-30.5 -103v-287h-129v239q-49 -65 -146 -65q-102 0 -157 68t-55 180v210 h-95zM239 -43q-32 0 -55 22.5t-23 54.5q0 33 23 56t55 23q33 0 56 -23t23 -56q0 -32 -23 -54.5t-56 -22.5z" />
<glyph horiz-adv-x="0" d="M-210 719v89q0 90 44 149t142 59q89 0 137 -51.5t44 -139.5h-113q1 38 -16.5 60.5t-48.5 22.5q-69 0 -69 -99v-90h-120z" />
<glyph horiz-adv-x="331" d="M424 361q-62 -39 -150 -39q-101 0 -171 51t-73 159h123q2 -60 41.5 -88t97.5 -28q40 0 83 17zM-21 632v108h434v-108h-434z" />
<glyph horiz-adv-x="0" d="M-524 -97l153 179h172l155 -179h-133l-108 130l-108 -130h-131z" />
<glyph horiz-adv-x="976" d="M433 0v169q-7 -13 -18 -24l-175 -191h-139l130 137q-77 12 -124.5 71.5t-47.5 147.5q0 105 58.5 168.5t155.5 63.5q109 0 160 -81v171h-454v108h1017v-108h-439v-173q47 83 155 83q93 0 149 -65t56 -164q0 -106 -57.5 -167t-149.5 -61q-35 0 -66 7v102q12 -4 31 -4 q49 0 80 32t31 88q0 53 -32 87t-82 34q-56 0 -84.5 -38t-30.5 -92v-301h-124zM311 185q58 0 90 37.5t32 86.5q0 50 -31.5 86.5t-89.5 36.5q-52 0 -87 -34t-35 -89q0 -56 34 -90t87 -34z" />
<glyph horiz-adv-x="950" d="M541 87l-197 -225h-138v7l121 131q-118 5 -186.5 74t-68.5 190v137h30q67 0 102 32t35 106v93h-260v108h992v-108h-111v-632h-128v181q-43 -60 -131 -60q-17 0 -34 3q-8 -13 -26 -37zM629 220q49 0 76 32t27 75q-1 43 -27 74.5t-76 31.5q-46 0 -76.5 -28.5t-30.5 -76.5 q0 -51 30.5 -79.5t76.5 -28.5zM345 106q83 0 124 64q-62 59 -62 158q0 90 55 147t139 57q86 0 131 -60v160h-363v-110q0 -100 -46 -153t-123 -59v-61q0 -64 38.5 -103.5t106.5 -39.5z" />
<glyph horiz-adv-x="788" d="M572 0v209l-228 -229h-149l374 360v292h-145v-179q0 -89 -47 -144.5t-143 -55.5q-93 0 -143.5 51t-50.5 142q0 21 1 31h125v-31q0 -82 65 -82q63 0 63 83v185h-315v108h830v-108h-111v-632h-126z" />
<glyph horiz-adv-x="703" d="M322 204q69 0 115.5 43t46.5 111v274h-269v-49q0 -100 108 -100h42v-104h-52q-55 0 -82.5 -23.5t-27.5 -61.5q0 -44 33 -67t86 -23zM-21 632v108h745v-108h-110v-632h-130v192q-8 -10 -12 -14h2l-204 -229h-140l150 156q-92 3 -150 48.5t-58 127.5q0 58 34 97t83 50v3 q-103 23 -103 143v58h-107z" />
<glyph horiz-adv-x="686" d="M601 308q-30 0 -50.5 20.5t-20.5 49.5q0 30 20.5 50.5t50.5 20.5t50.5 -20.5t20.5 -50.5q0 -29 -20.5 -49.5t-50.5 -20.5zM-21 632v108h728v-108h-236v-183h-182q-87 0 -87 -60t78 -60h45q86 0 145.5 -41.5t59.5 -131.5q0 -56 -29 -97t-84 -61l130 -150h-133l-108 130 l-108 -130h-131l129 151q-63 22 -99 67.5t-39 108.5h129q1 -44 33.5 -69.5t86.5 -25.5q48 0 74.5 21t26.5 56q0 81 -107 81h-37q-34 0 -64.5 6.5t-60.5 22.5t-48 48.5t-18 77.5q0 74 51.5 110.5t130.5 36.5h91v92h-367z" />
<glyph horiz-adv-x="746" d="M-21 632v108h788v-108h-111v-632h-129v180q-14 -21 -33 -35l-170 -191h-140l135 142q-80 8 -130.5 57t-50.5 130q0 85 62 133h-150v102h367v-102h-39q-53 0 -85.5 -31t-32.5 -80q0 -51 35.5 -80t88.5 -29q65 1 104 47t39 118v271h-548z" />
<glyph horiz-adv-x="821" d="M-21 632v108h863v-108h-200v-97q62 -17 98.5 -69.5t36.5 -133.5q0 -114 -64.5 -190.5t-182.5 -104.5l129 -149h-133l-108 130l-108 -130h-131l121 142q-109 17 -171.5 71.5t-62.5 142.5q0 62 32.5 102t88.5 56v3q-103 22 -103 143v84h-105zM401 133q123 0 193 53.5 t70 150.5q0 51 -23.5 81t-58.5 30q-33 0 -56 -24t-23 -69q0 -36 15 -83h-107q-16 43 -16 97q0 70 35 111.5t93 55.5v96h-310v-79q0 -96 100 -96h20v-104h-18q-58 0 -88 -27t-30 -70q0 -60 51.5 -91.5t152.5 -31.5z" />
<glyph horiz-adv-x="852" d="M-21 632v108h894v-108h-111v-632h-120v192l-214 -235h-142l353 366v69h-155q-2 -94 -57 -152.5t-151 -58.5q-103 0 -159.5 59.5t-56.5 156.5v99h131v-96q0 -49 22.5 -77t62.5 -28q41 0 64.5 28t23.5 77v96h275v136h-660z" />
<glyph horiz-adv-x="936" d="M277 329h442v303h-252v-183h-181q-88 0 -88 -61q0 -59 79 -59zM723 0v62l-140 -173h-130l270 314v29h-226q27 -37 27 -92q0 -67 -44 -109.5t-124 -42.5q-91 0 -144 62v-131h-122v251h116q4 -38 33 -62.5t78 -24.5q43 0 65.5 21t22.5 52q0 39 -27.5 60.5t-80.5 21.5h-59 q-71 3 -120 40t-49 111q0 78 52 115.5t131 37.5h91v90h-364v108h977v-108h-110v-632h-123z" />
<glyph horiz-adv-x="825" d="M-21 632v108h912v-108h-111v-632h-126v100l-165 -185h-131l296 316v45h-137q-11 -87 -72 -138.5t-157 -51.5q-98 0 -160.5 52t-68.5 135h122q7 -33 36.5 -55.5t71.5 -22.5q55 0 85 34.5t30 86.5q0 50 -30 84t-85 34q-42 0 -70.5 -22.5t-37.5 -55.5h-122q8 84 69.5 136 t159.5 52q87 0 145.5 -43t77.5 -116h140v247h-672z" />
<glyph horiz-adv-x="648" d="M-21 632v108h689v-108h-188v-200h-123q-74 0 -121 -38.5t-47 -110.5q0 -63 41.5 -103t107.5 -40q68 0 109.5 42t41.5 108h123q0 -87 -42 -151t-117 -92l126 -145h-133l-104 126h-2h-6l-104 -126h-131l124 146q-76 27 -120 89t-44 146q0 120 78.5 189t211.5 69h5v91h-375z " />
<glyph horiz-adv-x="675" d="M336 144q67 0 108.5 41t41.5 105t-41.5 104.5t-108.5 40.5q-65 0 -106.5 -40.5t-41.5 -104.5t41.5 -105t106.5 -41zM447 -101l-108 130l-108 -130h-131l131 153q-79 26 -125.5 88.5t-46.5 149.5q0 101 59.5 165.5t152.5 82.5v94h-292v108h714v-108h-294v-94 q94 -17 154.5 -82t60.5 -166q0 -86 -45.5 -147.5t-122.5 -88.5l134 -155h-133z" />
<glyph horiz-adv-x="569" d="M-21 632v108h610v-108h-122v-183h-178q-87 0 -87 -60t78 -60h45q86 0 145.5 -41.5t59.5 -131.5q0 -119 -117 -159l129 -149h-133l-108 130l-108 -130h-131l131 153q-62 22 -97 66.5t-38 107.5h129q1 -44 33.5 -69.5t86.5 -25.5q48 0 74.5 21t26.5 56q0 81 -107 81h-37 q-34 0 -64.5 6.5t-60.5 22.5t-48 48.5t-18 77.5q0 74 51.5 110.5t130.5 36.5h88v92h-364z" />
<glyph horiz-adv-x="650" d="M-21 632v108h691v-108h-170v-174h-108q-92 0 -150 -48t-58 -138q0 -80 51 -130.5t141 -50.5q62 0 102.5 29t40.5 78q0 32 -20.5 53t-51.5 21q-28 0 -47 -17.5t-19 -45.5q0 -11 3 -18h-93q-4 24 -4 36q0 65 46 101.5t119 36.5q82 0 129.5 -46t47.5 -121 q0 -73 -42.5 -122.5t-120.5 -67.5l125 -145h-133l-108 130l-108 -130h-131l133 156q-85 29 -135 96t-50 161q0 129 81.5 200t210.5 71h27v85h-399z" />
<glyph horiz-adv-x="878" d="M295 348q39 0 60.5 25.5t21.5 67.5v191h-166v-191q0 -41 23 -67t61 -26zM-21 632v108h919v-108h-111v-632h-121v211l-231 -252h-147l373 390v283h-157v-180q0 -95 -54.5 -154t-155.5 -59q-100 0 -154.5 60t-54.5 153v180h-106z" />
<glyph horiz-adv-x="704" d="M-21 632v108h746v-108h-111v-632h-124v215l-218 -215h-168v6l377 341q-21 33 -58 53.5t-82 20.5q-66 0 -108.5 -39t-42.5 -109h-129q-2 114 65.5 182t181.5 68q112 0 179 -79v188h-508z" />
<glyph horiz-adv-x="783" d="M564 0v204q-17 -33 -46 -56h3l-253 -218h-159v7l192 157q-110 13 -173.5 86t-63.5 189q0 37 5 64h91q193 0 193 123q0 36 -21 59.5t-57 23.5q-38 0 -60 -23.5t-22 -63.5q0 -14 4 -38h-117q-4 26 -4 41q0 91 56.5 142.5t143.5 51.5q89 0 143.5 -54.5t54.5 -142.5 q0 -100 -69.5 -156t-194.5 -56h-21q4 -64 47 -104t126 -40q87 0 144.5 55t57.5 152v337h240v-108h-111v-632h-129z" />
<glyph horiz-adv-x="610" d="M-21 632v108h652v-108h-125v-202h-167q-66 0 -107 -34t-41 -95q0 -55 33 -87.5t88 -32.5q45 0 77.5 28t32.5 80h119v-316h-126v167q-2 -3 -7 -8.5t-8 -7.5h1l-175 -191h-140l147 153q-78 13 -126 70t-48 149q0 112 74.5 174t192.5 62h50v91h-397z" />
<glyph horiz-adv-x="724" d="M492 160l-203 -228h-141l151 156q-96 0 -158.5 46t-62.5 130q0 60 35 97.5t82 46.5v4q-53 14 -89 56t-36 109q0 77 50.5 124.5t130.5 47.5q82 0 128.5 -45.5t46.5 -119.5q0 -16 -2 -38h-96q1 12 1 22q0 32 -20 52.5t-54 20.5t-54.5 -22t-20.5 -56q0 -48 38.5 -73.5 t97.5 -25.5h59v-104h-53q-54 0 -83.5 -22t-29.5 -60q0 -42 33.5 -64t89.5 -22q81 0 131 51t50 134v363h238v-108h-109v-632h-129v186q-10 -15 -21 -26z" />
<glyph horiz-adv-x="850" d="M273 196q43 0 71 27.5t28 70.5q0 42 -28 69.5t-71 27.5q-45 0 -73.5 -27.5t-28.5 -70.5t28.5 -70t73.5 -27zM-21 632v108h891v-108h-110v-632h-117v146l-201 -229h-141l335 354v120h-196q35 -48 35 -115q0 -83 -58 -136t-146 -53q-92 0 -154 56t-62 150q0 98 64 152 t163 54h354v133h-657z" />
<glyph horiz-adv-x="668" d="M327 283q58 0 90.5 37.5t32.5 93.5v218h-246v-204q0 -68 30.5 -106.5t92.5 -38.5zM-21 632v108h710v-108h-111v-632h-128v246q-8 -10 -11 -13l-220 -254h-140l188 202q-94 9 -143.5 75.5t-49.5 171.5v204h-95z" />
<glyph horiz-adv-x="985" d="M318 283q54 0 84 35.5t30 89.5v224h-228v-210q0 -65 28.5 -102t85.5 -37zM-21 632v108h1027v-108h-445v-172q51 82 162 82q92 0 148 -63.5t56 -161.5q0 -108 -58 -170t-150 -62q-39 0 -70 9v100q18 -5 37 -5q49 0 79.5 33t30.5 88q0 53 -32 87t-82 34q-60 0 -90.5 -41 t-30.5 -103v-287h-129v243q-10 -12 -16 -17l-205 -247h-140l182 203q-87 10 -133 74.5t-46 165.5v210h-95z" />
<glyph horiz-adv-x="688" d="M458 133l-175 -192h-137l136 138q-98 7 -160.5 71t-62.5 164q0 105 68.5 171.5t173.5 66.5q111 0 173 -78v158h-495v108h729v-108h-109v-632h-125v152q-15 -18 -16 -19zM328 467q-59 0 -101 -34l237 -191q17 36 17 73q0 62 -41 107t-112 45zM328 164q60 0 102 35 l-239 191q-19 -35 -19 -76q0 -68 45 -109t111 -41z" />
<glyph horiz-adv-x="831" d="M268 204q42 0 63.5 27.5t21.5 76.5v54h-75q-42 0 -69 -22t-27 -59q0 -35 24 -56t62 -21zM269 97q-92 0 -149 50.5t-57 133.5q0 89 60 136.5t154 47.5h76v78q0 96 -73 96q-31 0 -50 -21.5t-19 -57.5q0 -14 3 -33h-126q-4 26 -4 40q0 81 50.5 131.5t143.5 50.5 q100 0 145.5 -62t45.5 -167v-55h168v275h235v-108h-112v-632h-117v148l-230 -231h-142l366 347v98h-168v-46q0 -100 -52.5 -159.5t-147.5 -59.5z" />
<glyph horiz-adv-x="822" d="M247 208q42 0 64 28t22 77v62h-76q-42 0 -68.5 -23t-26.5 -62q0 -37 24 -59.5t61 -22.5zM608 478v154h-158v-154h158zM-21 632v108h863v-108h-111v-632h-117v149l-231 -232h-142l367 348v110h-158v-56q0 -100 -52.5 -158.5t-148.5 -58.5q-92 0 -149 51.5t-57 135.5 q0 91 59.5 140t153.5 49h77v154h-354z" />
<glyph horiz-adv-x="749" d="M356 201q78 0 126 48t48 123v260h-167v-77q0 -178 -175 -193q0 -73 44.5 -117t123.5 -44zM-21 632v108h791v-108h-111v-632h-129v181q-14 -16 -22 -24h2l-253 -219h-157v7l187 153q-108 13 -167.5 86.5t-59.5 190.5q0 18 4 56h12q84 0 121.5 36t37.5 111v54h-256z" />
<glyph horiz-adv-x="910" d="M600 44q-8 0 -34 2v113q18 -2 27 -2q59 0 93 37t34 99q0 55 -27.5 90t-77.5 35q-53 0 -79.5 -39.5t-26.5 -103.5v-21h-108v21q0 63 -26 103t-77 40q-52 0 -80 -34.5t-28 -90.5q0 -62 34 -99t93 -37q7 0 27 2v-113q-26 -2 -34 -2q-119 0 -185 69.5t-66 181.5 q0 113 62.5 174.5t158.5 61.5q130 0 173 -125h3q37 101 134 121v105h-611v108h951v-108h-213v-115q61 -23 97.5 -80.5t36.5 -141.5q0 -112 -66 -181.5t-185 -69.5zM412 -182l153 179h172l155 -179h-133l-108 130l-108 -130h-131z" />
<glyph horiz-adv-x="670" d="M319 178q64 0 99.5 40t35.5 91v1q0 54 -35.5 93t-99.5 39q-58 0 -95.5 -36t-37.5 -95q0 -60 37.5 -96.5t95.5 -36.5zM690 632h-110v-632h-126v164q-15 -22 -31 -35l-162 -173h-139l128 129q-89 11 -140 73t-51 156q0 102 62 167t164 65q114 0 169 -83v169h-475v108h711 v-108z" />
<glyph horiz-adv-x="840" d="M303 432l17 -9q39 30 60 59.5t21 68.5q0 37 -24.5 63.5t-66.5 27.5q-40 0 -65.5 -25t-26.5 -61q-3 -77 85 -124zM623 0v152l-65 33l-203 -194h-152v11l260 233l-133 69l-154 -120h-147v15l203 157q-135 84 -135 201q0 83 57 137.5t152 54.5q98 0 155.5 -52t57.5 -133 q0 -58 -23.5 -101.5t-78.5 -89.5l205 -107h1v474h238v-108h-111v-632h-127z" />
<glyph horiz-adv-x="680" d="M329 274q46 0 78 21.5t46 58.5l-254 184v-114q0 -69 32.5 -109.5t97.5 -40.5zM463 440v192h-263zM-21 632v108h722v-108h-111v-632h-127v238q-10 -14 -25 -26l-219 -233h-140l193 192q-96 10 -147 79t-51 178v204h-95z" />
<glyph horiz-adv-x="901" d="M433 556q0 -76 -35 -132h289v208h-254v-76zM-21 632v108h943v-108h-111v-632h-113v169l-171 -230h-124l284 355v31h-495v-136q0 -39 19.5 -63.5t56.5 -24.5q33 0 51.5 25t18.5 64v13h112q1 -9 1 -20q0 -89 -48 -140.5t-134 -51.5q-95 0 -147 57t-52 148v215h81 q154 0 154 145v76h-326z" />
<glyph horiz-adv-x="586" d="M537 36q-9 -77 -71.5 -125.5t-159.5 -48.5q-112 0 -176.5 67t-64.5 175q0 129 100 194q-76 39 -76 119q0 60 43.5 94t117.5 34h100v87h-371v108h627v-108h-133v-180h-177q-79 0 -79 -60q0 -41 43 -59q20 4 47 4q85 0 145 -41.5t73 -104.5l-94 -102h-115l94 103 q-34 47 -99 47q-57 0 -91 -39.5t-34 -100.5t34.5 -98.5t91.5 -37.5q44 0 73 21.5t39 51.5h113z" />
<glyph horiz-adv-x="975" d="M305 179q53 0 86 33.5t33 85.5q0 54 -33 88t-86 34t-86.5 -34t-33.5 -89q0 -53 34 -85.5t86 -32.5zM669 179q53 0 86.5 32.5t33.5 85.5q0 55 -33 89t-86 34t-86 -34t-33 -88q0 -53 33 -86t85 -33zM800 -65l-108 130l-108 -130h-131l133 156q-68 32 -97 103h-4 q-23 -58 -75.5 -91.5t-122.5 -33.5q-97 0 -162.5 63.5t-65.5 165.5q0 104 65 168t162 64q137 0 200 -123h3q49 99 153 119v106h-663v108h1016v-108h-228v-115q67 -22 108 -80t41 -139q0 -70 -32.5 -123.5t-87.5 -81.5l137 -158h-133z" />
<glyph horiz-adv-x="1042" d="M499 0v168q-6 -9 -20 -25l-173 -189h-139l130 137q-77 12 -124.5 71.5t-47.5 147.5q0 105 58.5 168.5t155.5 63.5q109 0 160 -80v170h-520v108h1084v-108h-440v-172q50 82 155 82q93 0 149 -65t56 -164q0 -106 -57.5 -167t-149.5 -61q-35 0 -66 7v102q12 -4 32 -4 q48 0 79 32t31 88q0 53 -31.5 87t-82.5 34q-56 0 -84.5 -38t-30.5 -92v-301h-124zM82 -9q-28 0 -48.5 20.5t-20.5 48.5q0 30 20 50.5t49 20.5q30 0 50.5 -20.5t20.5 -50.5q0 -29 -20.5 -49t-50.5 -20zM378 185q57 0 89 37.5t32 86.5q0 50 -31.5 86.5t-89.5 36.5 q-53 0 -87.5 -34t-34.5 -89q0 -56 34 -90t88 -34z" />
<glyph horiz-adv-x="950" d="M541 87l-197 -225h-138v7l121 131q-118 5 -186.5 74t-68.5 190v137h30q67 0 102 32t35 106v93h-260v108h992v-108h-111v-632h-128v181q-43 -60 -131 -60q-17 0 -34 3q-8 -13 -26 -37zM95 -141q-29 0 -49 20.5t-20 48.5q0 30 20 50.5t49 20.5q30 0 50.5 -20.5t20.5 -50.5 q0 -29 -20.5 -49t-50.5 -20zM629 220q49 0 76 32t27 75q-1 43 -27 74.5t-76 31.5q-46 0 -76.5 -28.5t-30.5 -76.5q0 -51 30.5 -79.5t76.5 -28.5zM345 106q83 0 124 64q-62 59 -62 158q0 90 55 147t139 57q86 0 131 -60v160h-363v-110q0 -100 -46 -153t-123 -59v-61 q0 -64 38.5 -103.5t106.5 -39.5z" />
<glyph horiz-adv-x="788" d="M572 0v209l-228 -229h-149l374 360v292h-145v-179q0 -89 -47 -144.5t-143 -55.5q-93 0 -143.5 51t-50.5 142q0 21 1 31h125v-31q0 -82 65 -82q63 0 63 83v185h-315v108h830v-108h-111v-632h-126zM102 29q-28 0 -48.5 20.5t-20.5 48.5q0 30 20 50.5t49 20.5 q30 0 50.5 -20.5t20.5 -50.5q0 -29 -20.5 -49t-50.5 -20z" />
<glyph horiz-adv-x="852" d="M-21 632v108h894v-108h-111v-632h-120v192l-214 -235h-142l353 366v69h-155q-2 -94 -57 -152.5t-151 -58.5q-103 0 -159.5 59.5t-56.5 156.5v99h131v-96q0 -49 22.5 -77t62.5 -28q41 0 64.5 28t23.5 77v96h275v136h-660zM146 -32q-28 0 -48.5 20t-20.5 49q0 30 20 50.5 t49 20.5q30 0 50.5 -20.5t20.5 -50.5q0 -29 -20.5 -49t-50.5 -20z" />
<glyph horiz-adv-x="1059" d="M392 283q55 0 84.5 35.5t29.5 89.5v224h-228v-210q0 -65 28.5 -102t85.5 -37zM-21 632v108h1101v-108h-444v-171q51 81 161 81q92 0 148 -63.5t56 -161.5q0 -108 -57.5 -170t-149.5 -62q-36 0 -71 9v100q22 -5 38 -5q49 0 79 33t30 88q0 53 -31.5 87t-81.5 34 q-60 0 -90.5 -41t-30.5 -103v-287h-130v242q-4 -5 -13 -14l-207 -249h-140l182 203q-87 10 -133 74.5t-46 165.5v210h-170zM88 61q-28 0 -48.5 20.5t-20.5 48.5q0 30 20 50.5t49 20.5q30 0 50.5 -20.5t20.5 -50.5q0 -29 -20.5 -49t-50.5 -20z" />
<glyph horiz-adv-x="715" d="M433 0v169q-7 -13 -18 -24l-175 -191h-139l130 137q-77 12 -124.5 71.5t-47.5 147.5q0 105 58.5 168.5t155.5 63.5q109 0 160 -81v171h-454v108h938v-108h-360v-173q47 83 155 83q93 0 149 -65.5t56 -166.5h-131q0 53 -32 87t-82 34q-56 0 -84.5 -38t-30.5 -92v-301h-124 zM311 185q58 0 90 37.5t32 86.5q0 50 -31.5 86.5t-89.5 36.5q-52 0 -87 -34t-35 -89q0 -56 34 -90t87 -34z" />
<glyph horiz-adv-x="672" d="M-21 632v108h875v-108h-485v-110q0 -100 -46 -153t-123 -59v-61q0 -64 38.5 -103.5t106.5 -39.5q85 0 127 68q-64 56 -64 151q0 94 62.5 149t161.5 55t160.5 -55t61.5 -149q0 -96 -62.5 -151t-159.5 -55q-36 0 -64 7q-12 -21 -27 -39l-197 -225h-138v7l121 131 q-118 5 -186.5 74t-68.5 190v137h30q67 0 102 32t35 106v93h-260zM632 217q50 0 79.5 29.5t29.5 78.5t-29.5 78.5t-79.5 29.5t-80 -29.5t-30 -78.5t30 -78.5t80 -29.5z" />
<glyph horiz-adv-x="521" d="M596 233l-252 -253h-149l401 386v-133zM-21 632v108h617v-108h-172v-179q0 -89 -47 -144.5t-143 -55.5q-93 0 -143.5 51t-50.5 142q0 21 1 31h125v-31q0 -82 65 -82q63 0 63 83v185h-315z" />
<glyph horiz-adv-x="398" d="M-21 632v108h614v-108h-378v-52q0 -97 108 -97h42v-104h-52q-55 0 -82.5 -23.5t-27.5 -61.5q0 -44 33 -67t86 -23q75 0 118.5 43t43.5 111h109q0 -119 -81 -192l-192 -217h-139l143 149h-2q-117 0 -183.5 47t-66.5 136q0 58 34 97t83 50v3q-103 23 -103 143v58h-107z" />
<glyph horiz-adv-x="686" d="M601 308q-30 0 -50.5 20.5t-20.5 49.5q0 30 20.5 50.5t50.5 20.5t50.5 -20.5t20.5 -50.5q0 -29 -20.5 -49.5t-50.5 -20.5zM370 -389l-126 214h129l130 -214h-133zM-21 632v108h728v-108h-236v-183h-182q-87 0 -87 -60t78 -60h45q86 0 145.5 -41.5t59.5 -131.5 q0 -56 -29 -97t-84 -61l130 -150h-133l-108 130l-108 -130h-131l129 151q-63 22 -99 67.5t-39 108.5h129q1 -44 33.5 -69.5t86.5 -25.5q48 0 74.5 21t26.5 56q0 81 -107 81h-37q-34 0 -64.5 6.5t-60.5 22.5t-48 48.5t-18 77.5q0 74 51.5 110.5t130.5 36.5h91v92h-367z" />
<glyph horiz-adv-x="447" d="M-21 632v108h659v-108h-659zM50 416v102h367v-102h-39q-53 0 -85.5 -31t-32.5 -80q0 -51 35.5 -80t88.5 -29q65 1 104 47t39 118h111q3 -137 -86 -212l-171 -195h-139l127 134q-103 1 -167 51.5t-64 143.5q0 85 62 133h-150z" />
<glyph horiz-adv-x="821" d="M-21 632v108h863v-108h-629v-79q0 -96 100 -96h20v-104h-18q-58 0 -88 -27t-30 -70q0 -60 51.5 -91.5t152.5 -31.5q123 0 193 53.5t70 150.5q0 51 -23.5 81t-58.5 30q-33 0 -56 -24t-23 -69q0 -36 15 -83h-107q-16 43 -16 97q0 87 54 130.5t134 43.5q86 0 140 -55.5 t54 -155.5q0 -114 -64.5 -190.5t-182.5 -104.5l129 -149h-133l-108 130l-108 -130h-131l121 142q-109 17 -171.5 71.5t-62.5 142.5q0 62 32.5 102t88.5 56v3q-103 22 -103 143v84h-105z" />
<glyph horiz-adv-x="548" d="M-21 632v108h722v-108h-722zM428 -43h-142l414 429h-216q-3 -92 -58 -148.5t-150 -56.5q-103 0 -159.5 59.5t-56.5 156.5v99h131v-96q0 -49 22.5 -77t62.5 -28q41 0 64.5 28t23.5 77v96h337v-239z" />
<glyph horiz-adv-x="564" d="M212 50v-131h-122v251h116q4 -38 33 -62.5t78 -24.5q43 0 65.5 21t22.5 52q0 39 -27.5 60.5t-80.5 21.5h-59q-71 3 -120 40t-49 111q0 78 52 115.5t131 37.5h91v90h-364v108h756v-108h-268v-183h-181q-88 0 -88 -61q0 -59 79 -59h458v-97h-238q27 -37 27 -92 q0 -67 -44 -109.5t-124 -42.5q-91 0 -144 62zM735 82l-152 -193h-130l282 322v-129z" />
<glyph horiz-adv-x="537" d="M288 86q-98 0 -160.5 52t-68.5 135h122q7 -33 36.5 -55.5t71.5 -22.5q55 0 85 34.5t30 86.5q0 50 -30 84t-85 34q-42 0 -70.5 -22.5t-37.5 -55.5h-122q8 84 69.5 136t159.5 52q87 0 145.5 -43t77.5 -116h181v-242l-203 -228h-131l333 361h-174q-11 -87 -72 -138.5 t-157 -51.5zM-21 632v108h713v-108h-713z" />
<glyph horiz-adv-x="648" d="M405 -335l-126 214h129l130 -214h-133zM-21 632v108h689v-108h-188v-200h-123q-74 0 -121 -38.5t-47 -110.5q0 -63 41.5 -103t107.5 -40q68 0 109.5 42t41.5 108h123q0 -87 -42 -151t-117 -92l126 -145h-133l-104 126h-2h-6l-104 -126h-131l124 146q-76 27 -120 89 t-44 146q0 120 78.5 189t211.5 69h5v91h-375z" />
<glyph horiz-adv-x="675" d="M336 144q67 0 108.5 41t41.5 105t-41.5 104.5t-108.5 40.5q-65 0 -106.5 -40.5t-41.5 -104.5t41.5 -105t106.5 -41zM447 -101l-108 130l-108 -130h-131l131 153q-79 26 -125.5 88.5t-46.5 149.5q0 101 59.5 165.5t152.5 82.5v94h-292v108h714v-108h-294v-94 q94 -17 154.5 -82t60.5 -166q0 -86 -45.5 -147.5t-122.5 -88.5l134 -155h-133zM403 -339l-126 214h129l130 -214h-133z" />
<glyph horiz-adv-x="569" d="M364 -389l-126 214h129l130 -214h-133zM-21 632v108h610v-108h-122v-183h-178q-87 0 -87 -60t78 -60h45q86 0 145.5 -41.5t59.5 -131.5q0 -119 -117 -159l129 -149h-133l-108 130l-108 -130h-131l131 153q-62 22 -97 66.5t-38 107.5h129q1 -44 33.5 -69.5t86.5 -25.5 q48 0 74.5 21t26.5 56q0 81 -107 81h-37q-34 0 -64.5 6.5t-60.5 22.5t-48 48.5t-18 77.5q0 74 51.5 110.5t130.5 36.5h88v92h-364z" />
<glyph horiz-adv-x="650" d="M419 -374l-126 214h129l130 -214h-133zM-21 632v108h691v-108h-170v-174h-108q-92 0 -150 -48t-58 -138q0 -80 51 -130.5t141 -50.5q62 0 102.5 29t40.5 78q0 32 -20.5 53t-51.5 21q-28 0 -47 -17.5t-19 -45.5q0 -11 3 -18h-93q-4 24 -4 36q0 65 46 101.5t119 36.5 q82 0 129.5 -46t47.5 -121q0 -73 -42.5 -122.5t-120.5 -67.5l125 -145h-133l-108 130l-108 -130h-131l133 156q-85 29 -135 96t-50 161q0 129 81.5 200t210.5 71h27v85h-399z" />
<glyph horiz-adv-x="577" d="M288 -41l383 401v-144l-236 -257h-147zM-21 632v108h692v-108h-167v-180q0 -95 -54.5 -154t-155.5 -59q-100 0 -154.5 60t-54.5 153v180h-106zM295 348q39 0 60.5 25.5t21.5 67.5v191h-166v-191q0 -41 23 -67t61 -26z" />
<glyph horiz-adv-x="417" d="M61 273q0 111 74.5 181t198.5 70q100 0 175 -52.5t100 -142.5l-337 -329h-168v6l377 341q-20 33 -56.5 53.5t-82.5 20.5q-66 0 -109 -39t-43 -109h-129zM-21 632v108h630v-108h-630z" />
<glyph horiz-adv-x="474" d="M675 357q0 -129 -99 -204l-266 -233h-160v7l199 161q-133 5 -209 79t-76 202q0 37 5 64h91q193 0 193 123q0 36 -21 59.5t-57 23.5q-38 0 -60 -23.5t-22 -63.5q0 -14 4 -38h-117q-4 26 -4 41q0 91 56.5 142.5t143.5 51.5q89 0 143.5 -54.5t54.5 -142.5q0 -100 -69.5 -156 t-194.5 -56h-21q4 -64 47 -104t126 -40q89 0 145.5 43t56.5 118h111z" />
<glyph horiz-adv-x="610" d="M540 -306l-126 214h129l130 -214h-133zM-21 632v108h652v-108h-125v-202h-167q-66 0 -107 -34t-41 -95q0 -55 33 -87.5t88 -32.5q45 0 77.5 28t32.5 80h119v-316h-126v167q-2 -3 -7 -8.5t-8 -7.5h1l-175 -191h-140l147 153q-78 13 -126 70t-48 149q0 112 74.5 174 t192.5 62h50v91h-397z" />
<glyph horiz-adv-x="428" d="M327 84q-111 0 -180 45.5t-69 134.5q0 60 35 97.5t82 46.5v4q-53 14 -89 56t-36 109q0 77 50.5 124.5t130.5 47.5q82 0 128.5 -45.5t46.5 -119.5q0 -16 -2 -38h-96q1 12 1 22q0 32 -20 52.5t-54 20.5t-54.5 -22t-20.5 -56q0 -48 38.5 -73.5t97.5 -25.5h59v-104h-53 q-54 0 -83.5 -22t-29.5 -60q0 -44 37.5 -65t92.5 -21q83 0 128.5 37.5t45.5 99.5h113q0 -104 -74 -172l-197 -225h-140l147 153q-12 -1 -35 -1z" />
<glyph horiz-adv-x="512" d="M271 87q-92 0 -154 56t-62 150q0 98 64 152t163 54h393v-108h-235q35 -48 35 -115q0 -88 -58 -138.5t-146 -50.5zM273 196q43 0 71 27.5t28 70.5q0 42 -28 69.5t-71 27.5q-45 0 -73.5 -27.5t-28.5 -70.5t28.5 -70t73.5 -27zM301 -83l374 397v-135l-233 -262h-141z M-21 632v108h696v-108h-696z" />
<glyph horiz-adv-x="358" d="M-21 632v108h578v-108h-353v-204q0 -68 31 -106.5t94 -38.5q57 0 89 37.5t32 93.5h107q0 -121 -80 -189l-208 -246h-140l182 195q-114 3 -175.5 72t-61.5 182v204h-95z" />
<glyph horiz-adv-x="714" d="M318 283q54 0 84 35.5t30 89.5v224h-228v-210q0 -65 28.5 -102t85.5 -37zM-21 632v108h948v-108h-366v-172q51 82 162 82q97 0 150.5 -64t53.5 -168h-131q0 55 -29.5 88t-84.5 33q-60 0 -90.5 -41t-30.5 -103v-287h-129v243q-10 -12 -16 -17l-205 -247h-140l182 203 q-87 10 -133 74.5t-46 165.5v210h-95z" />
<glyph horiz-adv-x="397" d="M-21 632v108h601v-108h-601zM320 70q-118 0 -189.5 68.5t-71.5 175.5q0 105 71 172t189 67q125 0 191.5 -70t66.5 -168q0 -109 -70 -177l-176 -197h-131l127 129h-7zM323 464q-58 0 -103 -35l238 -191q18 33 18 73q0 62 -41 107.5t-112 45.5zM323 160q59 0 101 35 l-239 191q-18 -34 -18 -75q0 -69 45.5 -110t110.5 -41z" />
<glyph horiz-adv-x="529" d="M268 204q42 0 63.5 27.5t21.5 76.5v54h-75q-42 0 -69 -22t-27 -59q0 -35 24 -56t62 -21zM269 97q-92 0 -149 50.5t-57 133.5q0 89 60 136.5t154 47.5h76v78q0 96 -73 96q-31 0 -50 -21.5t-19 -57.5q0 -14 3 -33h-126q-4 26 -4 40q0 81 50.5 131.5t143.5 50.5 q100 0 145.5 -62t45.5 -167v-55h204v-103h-204v-46q0 -100 -52.5 -159.5t-147.5 -59.5zM271 -83l402 379v-117l-260 -262h-142z" />
<glyph horiz-adv-x="522" d="M247 208q42 0 64 28t22 77v62h-76q-42 0 -68.5 -23t-26.5 -62q0 -37 24 -59.5t61 -22.5zM241 -83l425 401v-117l-283 -284h-142zM-21 632v108h689v-108h-218v-154h217v-103h-217v-56q0 -100 -52.5 -158.5t-148.5 -58.5q-92 0 -149 51.5t-57 135.5q0 91 59.5 140t153.5 49 h77v154h-354z" />
<glyph horiz-adv-x="436" d="M-21 632v108h669v-108h-285v-77q0 -178 -175 -193q0 -76 47.5 -118.5t124.5 -42.5q75 0 122.5 43.5t47.5 110.5h118q1 -63 -25 -116t-74 -89l-244 -212h-158v7l182 148q-126 7 -197.5 81.5t-71.5 200.5q0 18 4 56h12q84 0 121.5 36t37.5 111v54h-256z" />
<glyph horiz-adv-x="910" d="M600 44q-8 0 -34 2v113q18 -2 27 -2q59 0 93 37t34 99q0 55 -27.5 90t-77.5 35q-53 0 -79.5 -39.5t-26.5 -103.5v-21h-108v21q0 63 -26 103t-77 40q-52 0 -80 -34.5t-28 -90.5q0 -62 34 -99t93 -37q7 0 27 2v-113q-26 -2 -34 -2q-119 0 -185 69.5t-66 181.5 q0 113 62.5 174.5t158.5 61.5q130 0 173 -125h3q37 101 134 121v105h-611v108h951v-108h-213v-115q61 -23 97.5 -80.5t36.5 -141.5q0 -112 -66 -181.5t-185 -69.5zM412 -182l153 179h172l155 -179h-133l-108 130l-108 -130h-131zM712 -419l-126 214h129l130 -214h-133z" />
<glyph horiz-adv-x="372" d="M321 178q63 0 98 40t35 92q0 54 -34.5 93t-98.5 39q-59 0 -97 -36t-38 -95q0 -60 38 -96.5t97 -36.5zM318 75q-119 0 -189 66t-70 173q0 103 70.5 167.5t188.5 64.5q127 0 194.5 -69.5t67.5 -167.5q0 -99 -68 -164l-180 -203h-136l130 133h-8zM-21 632v108h601v-108h-601 z" />
<glyph horiz-adv-x="513" d="M303 432l17 -8q39 31 60 59.5t21 67.5q0 37 -24.5 63.5t-66.5 27.5q-40 0 -65.5 -25t-26.5 -61q-3 -77 85 -124zM29 184v15l204 158q-136 84 -136 200q0 83 57 137.5t152 54.5q98 0 155.5 -52t57.5 -133q0 -57 -23.5 -101t-77.5 -90l142 -73v-114l-205 -195h-155v8 l264 236l-134 69l-154 -120h-147z" />
<glyph horiz-adv-x="385" d="M331 274q49 0 81 22.5t43 56.5l-256 187v-116q0 -150 132 -150zM-21 632v108h591v-108h-370l370 -265q0 -75 -54 -130l-242 -258h-140l188 186q-120 1 -184 73t-64 190v204h-95z" />
<glyph horiz-adv-x="516" d="M403 -61l250 310v-140l-126 -170h-124zM-21 632v108h674v-108h-220v-76q0 -76 -35 -132h255v-99h-461v-136q0 -39 19.5 -63.5t56.5 -24.5q33 0 51.5 25t18.5 64v13h112q1 -9 1 -20q0 -89 -48 -140.5t-134 -51.5q-95 0 -147 57t-52 148v215h81q154 0 154 145v76h-326z" />
<glyph horiz-adv-x="586" d="M537 36q-9 -77 -71.5 -125.5t-159.5 -48.5q-112 0 -176.5 67t-64.5 175q0 129 100 194q-76 39 -76 119q0 60 43.5 94t117.5 34h100v87h-371v108h627v-108h-133v-180h-177q-79 0 -79 -60q0 -41 43 -59q20 4 47 4q85 0 145 -41.5t73 -104.5l-94 -102h-115l94 103 q-34 47 -99 47q-57 0 -91 -39.5t-34 -100.5t34.5 -98.5t91.5 -37.5q44 0 73 21.5t39 51.5h113zM364 -418l-126 214h129l130 -214h-133z" />
<glyph horiz-adv-x="975" d="M287 69q-97 0 -162.5 63.5t-65.5 165.5q0 104 65 168t162 64q137 0 200 -123h3q61 123 199 123q97 0 162.5 -64t65.5 -168q0 -70 -32.5 -123.5t-87.5 -81.5l137 -158h-133l-108 130l-108 -130h-131l133 156q-68 32 -97 103h-4q-23 -58 -75.5 -91.5t-122.5 -33.5zM305 179 q53 0 86 33.5t33 85.5q0 54 -33 88t-86 34t-86.5 -34t-33.5 -89q0 -53 34 -85.5t86 -32.5zM669 179q53 0 86.5 32.5t33.5 85.5q0 55 -33 89t-86 34t-86 -34t-33 -88q0 -53 33 -86t85 -33zM-21 632v108h1016v-108h-1016z" />
<glyph horiz-adv-x="781" d="M499 0v168q-6 -9 -20 -25l-173 -189h-139l130 137q-77 12 -124.5 71.5t-47.5 147.5q0 105 58.5 168.5t155.5 63.5q109 0 160 -80v170h-520v108h1004v-108h-360v-172q50 82 155 82q93 0 149 -65.5t56 -166.5h-131q0 53 -31.5 87t-82.5 34q-56 0 -84.5 -38t-30.5 -92v-301 h-124zM82 -9q-28 0 -48.5 20.5t-20.5 48.5q0 30 20 50.5t49 20.5q30 0 50.5 -20.5t20.5 -50.5q0 -29 -20.5 -49t-50.5 -20zM378 185q57 0 89 37.5t32 86.5q0 50 -31.5 86.5t-89.5 36.5q-53 0 -87.5 -34t-34.5 -89q0 -56 34 -90t88 -34z" />
<glyph horiz-adv-x="672" d="M-21 632v108h875v-108h-485v-110q0 -100 -46 -153t-123 -59v-61q0 -64 38.5 -103.5t106.5 -39.5q85 0 127 68q-64 56 -64 151q0 94 62.5 149t161.5 55t160.5 -55t61.5 -149q0 -96 -62.5 -151t-159.5 -55q-36 0 -64 7q-12 -21 -27 -39l-197 -225h-138v7l121 131 q-118 5 -186.5 74t-68.5 190v137h30q67 0 102 32t35 106v93h-260zM95 -141q-29 0 -49 20.5t-20 48.5q0 30 20 50.5t49 20.5q30 0 50.5 -20.5t20.5 -50.5q0 -29 -20.5 -49t-50.5 -20zM632 217q50 0 79.5 29.5t29.5 78.5t-29.5 78.5t-79.5 29.5t-80 -29.5t-30 -78.5t30 -78.5 t80 -29.5z" />
<glyph horiz-adv-x="521" d="M596 233l-252 -253h-149l401 386v-133zM-21 632v108h617v-108h-172v-179q0 -89 -47 -144.5t-143 -55.5q-93 0 -143.5 51t-50.5 142q0 21 1 31h125v-31q0 -82 65 -82q63 0 63 83v185h-315zM102 29q-28 0 -48.5 20.5t-20.5 48.5q0 30 20 50.5t49 20.5q30 0 50.5 -20.5 t20.5 -50.5q0 -29 -20.5 -49t-50.5 -20z" />
<glyph horiz-adv-x="548" d="M-21 632v108h722v-108h-722zM428 -43h-142l414 429h-216q-3 -92 -58 -148.5t-150 -56.5q-103 0 -159.5 59.5t-56.5 156.5v99h131v-96q0 -49 22.5 -77t62.5 -28q41 0 64.5 28t23.5 77v96h337v-239zM146 -32q-28 0 -48.5 20t-20.5 49q0 30 20 50.5t49 20.5q30 0 50.5 -20.5 t20.5 -50.5q0 -29 -20.5 -49t-50.5 -20z" />
<glyph horiz-adv-x="789" d="M392 283q55 0 84.5 35.5t29.5 89.5v224h-228v-210q0 -65 28.5 -102t85.5 -37zM-21 632v108h1022v-108h-365v-171q51 81 161 81q97 0 150.5 -64t53.5 -168h-131q0 55 -29 88t-84 33q-60 0 -90.5 -41t-30.5 -103v-287h-130v242q-4 -5 -13 -14l-207 -249h-140l182 203 q-87 10 -133 74.5t-46 165.5v210h-170zM88 61q-28 0 -48.5 20.5t-20.5 48.5q0 30 20 50.5t49 20.5q30 0 50.5 -20.5t20.5 -50.5q0 -29 -20.5 -49t-50.5 -20z" />
<glyph horiz-adv-x="1695" d="M557 632v-171q46 81 151 81q83 0 137 -54q57 54 146 54q109 0 160 -81v171h-594zM311 185q58 0 90 37.5t32 86.5q0 50 -31.5 86.5t-89.5 36.5q-52 0 -87 -34t-35 -89q0 -56 34 -90t87 -34zM1151 0v162q-50 -85 -165 -85q-95 0 -152 64t-57 169v15q-4 48 -33.5 77 t-75.5 29q-56 0 -83.5 -37.5t-27.5 -92.5v-301h-124v162q-50 -85 -165 -85q-95 0 -152 64t-57 169t58.5 168.5t155.5 63.5q109 0 160 -81v171h-454v108h1735v-108h-439v-173q47 83 155 83q93 0 149 -65t56 -164q0 -106 -57.5 -167t-149.5 -61q-35 0 -66 7v102q12 -4 31 -4 q49 0 80 32t31 88q0 53 -32 87t-82 34q-56 0 -85.5 -38t-29.5 -92v-301h-124zM1029 185q58 0 90 37.5t32 86.5q0 50 -31.5 86.5t-89.5 36.5q-48 0 -82.5 -29.5t-38.5 -78.5v-14h-1v-1q0 -56 34 -90t87 -34z" />
<glyph horiz-adv-x="1695" d="M557 632v-171q46 81 151 81q82 0 131 -60q58 60 152 60q109 0 160 -81v171h-594zM249 -145q-32 0 -55 22.5t-23 54.5q0 33 23 56t55 23q33 0 56 -23t23 -56q0 -32 -23 -54.5t-56 -22.5zM968 -145q-32 0 -55 22.5t-23 54.5q0 33 23 56t55 23q33 0 56 -23t23 -56 q0 -32 -23 -54.5t-56 -22.5zM311 185q58 0 90 37.5t32 86.5q0 50 -31.5 86.5t-89.5 36.5q-52 0 -87 -34t-35 -89q0 -56 34 -90t87 -34zM1029 185q58 0 90 37.5t32 86.5q0 50 -31.5 86.5t-89.5 36.5q-52 0 -87 -34t-35 -89q0 -56 34 -90t87 -34zM1151 0v162q-50 -85 -165 -85 q-95 0 -152 64t-57 169v15q-4 48 -33.5 77t-75.5 29q-56 0 -83.5 -37.5t-27.5 -92.5v-301h-124v162q-50 -85 -165 -85q-95 0 -152 64t-57 169t58.5 168.5t155.5 63.5q109 0 160 -81v171h-454v108h1735v-108h-439v-173q47 83 155 83q93 0 149 -65t56 -164q0 -106 -57.5 -167 t-149.5 -61q-35 0 -66 7v102q12 -4 31 -4q49 0 80 32t31 88q0 53 -32 87t-82 34q-56 0 -85.5 -38t-29.5 -92v-301h-124z" />
<glyph horiz-adv-x="1655" d="M708 535q129 0 172 -121q64 30 64 125v93h-387v-175q46 78 151 78zM311 185q58 0 90 37.5t32 86.5q0 50 -31.5 86.5t-89.5 36.5q-52 0 -87 -34t-35 -89q0 -56 34 -90t87 -34zM1437 0v181q-45 -60 -131 -60q-12 0 -32 2q-35 -58 -92 -93t-135 -35q-124 0 -196.5 68.5 t-72.5 187.5v59q0 54 -30 87.5t-80 33.5q-56 0 -83.5 -37.5t-27.5 -92.5v-301h-124v162q-50 -85 -165 -85q-95 0 -152 64t-57 169t58.5 168.5t155.5 63.5q109 0 160 -81v171h-454v108h1697v-108h-111v-632h-128zM1334 220q49 0 76 32t27 75q-1 43 -27 74.5t-76 31.5 q-45 0 -75.5 -28.5t-30.5 -76.5q0 -51 30 -79.5t76 -28.5zM1050 106q84 0 125 64q-63 58 -63 158q0 90 55 147t139 57q87 0 131 -61v161h-364v-110q0 -100 -45.5 -153t-121.5 -59v-61q0 -64 38 -103.5t106 -39.5z" />
<glyph horiz-adv-x="1349" d="M986 196q66 1 105 47t39 118v271h-573v-185q48 77 167 77h297v-102h-40q-53 0 -85.5 -31t-32.5 -83q0 -53 35 -82.5t88 -29.5zM311 185q58 0 90 37.5t32 86.5q0 50 -31.5 86.5t-89.5 36.5q-52 0 -87 -34t-35 -89q0 -56 34 -90t87 -34zM557 295v-295h-124v162 q-50 -85 -165 -85q-95 0 -152 64t-57 169t58.5 168.5t155.5 63.5q109 0 160 -81v171h-454v108h1391v-108h-111v-632h-129v176q-60 -87 -181 -87q-91 0 -149.5 48.5t-58.5 137.5q0 98 77 147h-133q-65 0 -96.5 -36t-31.5 -91z" />
<glyph horiz-adv-x="1567" d="M311 185q58 0 90 37.5t32 86.5q0 50 -31.5 86.5t-89.5 36.5q-52 0 -87 -34t-35 -89q0 -56 34 -90t87 -34zM991 225q41 0 64 28.5t23 76.5v162h270v140h-791v-171q46 81 151 81q91 0 144.5 -58t53.5 -142v-12q0 -48 22.5 -76.5t62.5 -28.5zM557 301v-301h-124v162 q-50 -85 -165 -85q-95 0 -152 64t-57 169t58.5 168.5t155.5 63.5q109 0 160 -81v171h-454v108h1609v-108h-111v-632h-129v382h-143v-55q0 -96 -58 -155.5t-156 -59.5q-101 0 -157 55.5t-56 138.5v8q0 53 -30 85t-80 32q-56 0 -83.5 -37.5t-27.5 -92.5z" />
<glyph horiz-adv-x="1364" d="M557 632v-171q46 81 151 81q94 0 147 -69q79 68 211 68h5v91h-514zM311 185q58 0 90 37.5t32 86.5q0 50 -31.5 86.5t-89.5 36.5q-52 0 -87 -34t-35 -89q0 -56 34 -90t87 -34zM557 301v-301h-124v162q-50 -85 -165 -85q-95 0 -152 64t-57 169t58.5 168.5t155.5 63.5 q109 0 160 -81v171h-454v108h1406v-108h-188v-200h-123q-74 0 -121 -38.5t-47 -110.5q0 -63 41.5 -103t107.5 -40q68 0 109.5 42t41.5 108h123q0 -118 -74.5 -190t-197.5 -72q-124 0 -202.5 70.5t-78.5 184.5q0 12 2 34q-2 51 -32 82.5t-78 31.5q-56 0 -83.5 -37.5 t-27.5 -92.5z" />
<glyph horiz-adv-x="1567" d="M557 632v-177q45 75 148 75q36 0 66 -12v114h-214zM311 185q58 0 90 37.5t32 86.5q0 50 -31.5 86.5t-89.5 36.5q-52 0 -87 -34t-35 -89q0 -56 34 -90t87 -34zM981 268q39 0 60.5 25t21.5 67v272h-166v-272q0 -41 22.5 -66.5t61.5 -25.5zM557 301v-301h-124v162 q-50 -85 -165 -85q-95 0 -152 64t-57 169t58.5 168.5t155.5 63.5q109 0 160 -81v171h-454v108h1608v-108h-111v-632h-129v632h-157v-260q0 -95 -54.5 -154t-155.5 -59q-96 0 -150 55t-59 144q-11 33 -38 53t-65 20q-56 0 -83.5 -37.5t-27.5 -92.5z" />
<glyph horiz-adv-x="1090" d="M-21 632v108h1132v-108h-454v-223q51 83 164 83q95 0 153 -65.5t58 -165.5q0 -109 -60 -171.5t-157 -62.5q-38 0 -70 7v102q18 -4 37 -4q53 0 85.5 34t32.5 92q0 54 -33 89t-83 35q-63 0 -95 -37.5t-32 -90.5v-254h-125v375h-118q-75 0 -118 -35t-43 -101 q0 -64 38.5 -100t111.5 -36h18v-101h-39q-113 0 -185.5 60t-72.5 166q0 94 58 149h-143v108h493v147h-553z" />
<glyph horiz-adv-x="1403" d="M701 533q111 0 155 -87q73 48 188 48h139v138h-626v-173q44 74 144 74zM249 -145q-32 0 -55 22.5t-23 54.5q0 33 23 56t55 23q33 0 56 -23t23 -56q0 -32 -23 -54.5t-56 -22.5zM311 185q58 0 90 37.5t32 86.5q0 50 -31.5 86.5t-89.5 36.5q-52 0 -87 -34t-35 -89 q0 -56 34 -90t87 -34zM557 301v-301h-124v162q-50 -85 -165 -85q-95 0 -152 64t-57 169t58.5 168.5t155.5 63.5q109 0 160 -81v171h-454v108h1444v-108h-110v-632h-130v383h-133q-74 0 -117 -36t-43 -103q0 -66 38 -103.5t111 -37.5h20v-101h-40q-116 0 -188 62t-72 183 q0 30 4 51q1 64 -26.5 97.5t-72.5 33.5q-54 0 -80.5 -36.5t-26.5 -91.5z" />
<glyph horiz-adv-x="1833" d="M1025 506q128 0 191 -70q104 22 104 142v54h-763v-169q42 70 132 70q102 0 142 -92q69 65 194 65zM311 185q58 0 90 37.5t32 86.5q0 50 -31.5 86.5t-89.5 36.5q-52 0 -87 -34t-35 -89q0 -56 34 -90t87 -34zM1440 201q78 0 126.5 48t48.5 123v260h-168v-77q0 -86 -46 -138 t-129 -60v-3q0 -69 44.5 -111t123.5 -42zM557 301v-301h-124v162q-50 -85 -165 -85q-95 0 -152 64t-57 169t58.5 168.5t155.5 63.5q109 0 160 -81v171h-454v108h1875v-108h-111v-632h-128v180q-65 -87 -202 -87q-119 0 -189 64.5t-79 177.5q-24 61 -113 61q-67 0 -103 -36 t-36 -104q0 -66 38 -103t111 -37h20v-102h-40q-116 0 -188 62t-72 184q0 13 1 19h-1q4 74 -23 112t-75 38q-54 0 -80.5 -36.5t-26.5 -91.5z" />
<glyph horiz-adv-x="1426" d="M1208 444v188h-651v-172q47 82 149 82q96 0 147 -82q68 63 176 63q112 0 179 -79zM311 185q58 0 90 37.5t32 86.5q0 50 -31.5 86.5t-89.5 36.5q-52 0 -87 -34t-35 -89q0 -56 34 -90t87 -34zM557 301v-301h-124v162q-50 -85 -165 -85q-95 0 -152 64t-57 169t58.5 168.5 t155.5 63.5q109 0 160 -81v171h-454v108h1467v-108h-111v-632h-124v215l-218 -215h-168v6l377 341q-21 33 -58 53.5t-82 20.5q-66 0 -108.5 -39t-42.5 -109h-129v9q-1 73 -32 111t-81 38q-55 0 -83.5 -38t-28.5 -92z" />
<glyph horiz-adv-x="1759" d="M695 533q49 0 85 -27.5t54 -79.5q75 68 213 68h177q60 52 150 52q114 0 169 -83v169h-986v-171q44 72 138 72zM311 185q58 0 90 37.5t32 86.5q0 50 -31.5 86.5t-89.5 36.5q-52 0 -87 -34t-35 -89q0 -56 34 -90t87 -34zM1408 178q64 0 99.5 40t35.5 91v1q0 54 -35.5 93 t-99.5 39q-58 0 -95.5 -36t-37.5 -95q0 -60 37.5 -96.5t95.5 -36.5zM1779 632h-110v-632h-126v158q-55 -83 -169 -83q-103 0 -164.5 66.5t-61.5 172.5q0 34 8 69h-103q-74 0 -117 -36t-43 -103q0 -66 38 -103.5t111 -37.5h20v-101h-40q-116 0 -188 62t-72 183v14 q4 84 -21.5 126t-76.5 42q-54 0 -80.5 -36.5t-26.5 -91.5v-301h-124v162q-50 -85 -165 -85q-95 0 -152 64t-57 169t58.5 168.5t155.5 63.5q109 0 160 -81v171h-454v108h1800v-108z" />
<glyph horiz-adv-x="1492" d="M311 185q58 0 90 37.5t32 86.5q0 50 -31.5 86.5t-89.5 36.5q-52 0 -87 -34t-35 -89q0 -56 34 -90t87 -34zM708 535q59 0 101.5 -27t63.5 -75q188 2 188 123q0 36 -21 59.5t-57 23.5q-19 0 -34 -6v-1h-392v-175q46 78 151 78zM1273 0v204q-24 -48 -81.5 -81.5 t-139.5 -33.5q-123 0 -198 70t-81 192q-9 36 -37.5 58t-67.5 22q-56 0 -83.5 -37.5t-27.5 -92.5v-301h-124v162q-50 -85 -165 -85q-95 0 -152 64t-57 169t58.5 168.5t155.5 63.5q109 0 160 -81v171h-454v108h943q28 9 62 9q89 0 144 -54.5t55 -142.5q0 -100 -69.5 -156 t-195.5 -56h-21q4 -64 47.5 -104t126.5 -40q86 0 144 55t58 152v337h240v-110h-110v-630h-130z" />
</font>
</defs>
</svg>
